<svg width="99" height="30" viewBox="0 0 99 30" fill="none" xmlns="http://www.w3.org/2000/svg">
<path d="M36.5868 23.9811L43.536 5.05273H46.6604L53.5555 23.9811H50.5387L48.9228 19.3572H41.2195L39.6036 23.9811H36.5868ZM42.0277 17.0858H48.1146L45.071 8.45983L42.0277 17.0858Z" fill="#404040"/>
<path d="M56.122 6.82289C55.5835 6.82289 55.1346 6.66066 54.7753 6.33616C54.4343 5.99366 54.2637 5.57002 54.2637 5.06526C54.2637 4.56049 54.4343 4.14589 54.7753 3.82139C55.1346 3.47889 55.5835 3.30762 56.122 3.30762C56.6609 3.30762 57.1008 3.47889 57.4418 3.82139C57.801 4.14589 57.9807 4.56049 57.9807 5.06526C57.9807 5.57002 57.801 5.99366 57.4418 6.33616C57.1008 6.66066 56.6609 6.82289 56.122 6.82289ZM54.6946 23.9811V9.06366H57.5497V23.9811H54.6946Z" fill="#404040"/>
<path d="M60.4745 23.9809V4.51172H63.3296V16.1121L68.447 10.5688H71.8675L66.1843 16.6529L72.7026 23.9809H69.0935L63.3296 17.1126V23.9809H60.4745Z" fill="#404040"/>
<path d="M78.5664 24.3062C77.2556 24.3062 76.0885 24.0178 75.0649 23.4409C74.0596 22.846 73.2693 22.0258 72.6949 20.9802C72.1202 19.9347 71.833 18.7178 71.833 17.3298C71.833 15.9236 72.1112 14.6888 72.668 13.6252C73.2424 12.5616 74.0327 11.7323 75.038 11.1374C76.0617 10.5425 77.2466 10.2451 78.5933 10.2451C79.9042 10.2451 81.0443 10.5425 82.0142 11.1374C82.9837 11.7143 83.738 12.4895 84.2766 13.463C84.8151 14.4364 85.0847 15.509 85.0847 16.6808C85.0847 16.8611 85.0758 17.0594 85.0578 17.2757C85.0578 17.474 85.0485 17.6993 85.0306 17.9517H74.634C74.7239 19.2496 75.1459 20.2411 75.9 20.9262C76.6722 21.5932 77.5611 21.9267 78.5664 21.9267C79.3746 21.9267 80.0479 21.7464 80.5865 21.3858C81.1433 21.0072 81.5563 20.5025 81.8256 19.8716H84.6806C84.3214 21.1335 83.6032 22.188 82.5258 23.0353C81.4663 23.8826 80.1465 24.3062 78.5664 24.3062ZM78.5664 12.5977C77.6149 12.5977 76.7709 12.8861 76.0348 13.463C75.2983 14.0218 74.8494 14.8691 74.6881 16.0048H82.2297C82.1755 14.9592 81.8076 14.13 81.1253 13.517C80.443 12.9041 79.5901 12.5977 78.5664 12.5977Z" fill="#404040"/>
<path d="M86.4757 23.9817V10.5696H89.0074L89.2229 12.9221C89.6359 12.0929 90.2375 11.4439 91.0274 10.9752C91.8356 10.4885 92.7602 10.2451 93.8018 10.2451C95.4178 10.2451 96.6838 10.7499 97.5995 11.7594C98.5331 12.7689 99 14.2741 99 16.2751V23.9817H96.1721V16.5726C96.1721 13.9767 95.1126 12.6788 92.9937 12.6788C91.9342 12.6788 91.0543 13.0573 90.3541 13.8145C89.6718 14.5716 89.3308 15.6532 89.3308 17.0594V23.9817H86.4757Z" fill="#404040"/>
<path fill-rule="evenodd" clip-rule="evenodd" d="M23.7107 0.131836H26.7084V3.14179H23.7107V0.131836ZM15.7957 0.131836H18.7935V3.14179H15.7957V0.131836ZM23.7107 9.06372H26.7084V12.0737H23.7107V9.06372ZM23.7107 18.0214H26.7084V21.0313H23.7107V18.0214ZM7.88074 18.0214H10.8785V21.0313H7.88074V18.0214Z" fill="#404040"/>
<path fill-rule="evenodd" clip-rule="evenodd" d="M2.97141 5.13C2.97141 3.94433 3.92883 2.98313 5.10984 2.98313H10.965V0H5.10984C2.28776 0 0 2.29679 0 5.13V25.4887C0 27.9596 1.99489 29.9628 4.45595 29.9634H4.45711L26.6898 30V28.1123L9.55433 8.20857L2.97141 15.6316V5.13ZM2.97141 25.4887V20.1178L9.52123 12.7321L21.8123 27.0088L4.45954 26.9803H4.45711C3.63658 26.9803 2.97141 26.3125 2.97141 25.4887Z" fill="#404040"/>
</svg>
