<svg width="96" height="30" viewBox="0 0 96 30" fill="none" xmlns="http://www.w3.org/2000/svg">
<path d="M39.8342 24.4368H33.1942V5.43848H39.4624C41.7112 5.43848 43.3137 5.84705 44.2696 6.66418C45.2435 7.46355 45.7306 8.58269 45.7306 10.0215V10.6077C45.7306 11.6913 45.518 12.5706 45.093 13.2456C44.668 13.9029 44.0394 14.3914 43.2074 14.7112C44.1457 15.0132 44.8541 15.4928 45.3322 16.15C45.8104 16.7895 46.0493 17.6333 46.0493 18.6814V19.4008C46.0493 20.9818 45.5535 22.2164 44.562 23.1046C43.5882 23.9927 42.0122 24.4368 39.8342 24.4368ZM39.5156 7.99646H36.2219V13.4322H39.489C40.5868 13.4322 41.3922 13.2279 41.9059 12.8193C42.4193 12.4108 42.6761 11.7446 42.6761 10.8209V10.3413C42.6761 9.54193 42.4193 8.95573 41.9059 8.58269C41.4102 8.19189 40.6134 7.99646 39.5156 7.99646ZM39.3827 16.0168H36.2219V21.7456H39.4359C40.6928 21.7456 41.5783 21.5414 42.0916 21.1328C42.6229 20.7064 42.8888 20.0492 42.8888 19.161V18.5748C42.8888 17.6866 42.6053 17.0382 42.0388 16.6297C41.472 16.2211 40.5868 16.0168 39.3827 16.0168Z" fill="#404040"/>
<path d="M52.5569 22.3316C52.9639 22.3316 53.3447 22.2872 53.6989 22.1984C54.0707 22.0918 54.4072 21.9319 54.7083 21.7188C55.3103 21.328 55.7705 20.8039 56.0892 20.1467C56.4258 19.4894 56.5939 18.7966 56.5939 18.0683V16.4163C56.346 16.6294 56.0008 16.8159 55.5582 16.9758C55.1153 17.1357 54.5754 17.2867 53.9378 17.4288C53.141 17.6064 52.5389 17.7752 52.1319 17.9351C51.7245 18.0949 51.3703 18.2992 51.0693 18.5479C50.8214 18.7611 50.6267 19.0098 50.4852 19.294C50.3613 19.5782 50.2991 19.9069 50.2991 20.2799V20.3865C50.2991 20.9904 50.4852 21.4701 50.857 21.8253C51.2464 22.1628 51.8133 22.3316 52.5569 22.3316ZM57.0454 24.4366L56.7002 21.6655C56.2576 22.5892 55.5934 23.3352 54.7083 23.9037C53.8404 24.4721 52.7516 24.7563 51.4411 24.7563C49.9894 24.7563 48.8827 24.4099 48.1211 23.7172C47.3599 23.0244 46.9791 22.0563 46.9791 20.8128V20.573C46.9791 19.7914 47.1296 19.1163 47.4307 18.5479C47.7317 17.9617 48.1567 17.4732 48.7056 17.0824C48.8827 16.9581 49.0598 16.8515 49.2369 16.7627C49.4316 16.6561 49.6173 16.5584 49.7944 16.4696C50.1842 16.3097 50.6443 16.1676 51.1756 16.0432C51.7245 15.9011 52.4063 15.7412 53.2207 15.5636C54.478 15.2972 55.3456 15.0307 55.8237 14.7642C56.3194 14.48 56.5673 14.0359 56.5673 13.432V13.3787C56.5673 12.7037 56.346 12.1796 55.9034 11.8066C55.4785 11.4335 54.7614 11.247 53.752 11.247C52.6894 11.247 51.8927 11.4868 51.3617 11.9664C50.848 12.4461 50.5736 13.1211 50.5384 13.9915V14.6577H47.4041V13.9649C47.4928 12.4016 48.0683 11.1582 49.1305 10.2345C50.2107 9.293 51.7156 8.82227 53.6457 8.82227C55.7529 8.82227 57.2581 9.26637 58.1608 10.1545C59.0819 11.025 59.5421 12.2329 59.5421 13.7784V24.4366H57.0454Z" fill="#404040"/>
<path d="M64.4751 24.4369H61.4471V9.11566H63.9172L64.3422 12.4197C64.5724 11.194 65.0326 10.3147 65.7234 9.78179C66.4315 9.24889 67.4409 8.98242 68.7513 8.98242H69.5747V12.1799H68.3264C67.8127 12.1799 67.3525 12.2154 66.9451 12.2865C66.5554 12.3575 66.2191 12.4641 65.9357 12.6062C65.3868 12.8904 65.0064 13.3523 64.7937 13.9918C64.5814 14.6313 64.4751 15.484 64.4751 16.5498V24.4369Z" fill="#404040"/>
<path d="M76.1701 24.7833C74.0277 24.7833 72.3986 24.206 71.2828 23.0513C70.185 21.8789 69.6361 20.2003 69.6361 18.0153V15.6971C69.6361 14.9333 69.7072 14.2405 69.8488 13.6188C69.9903 12.9793 70.194 12.4019 70.4595 11.8868C71.0263 10.8743 71.8055 10.1104 72.7969 9.59527C73.7884 9.06237 74.9304 8.7959 76.2233 8.7959C78.1178 8.7959 79.6316 9.27553 80.765 10.2348C81.898 11.194 82.518 12.6862 82.624 14.7113V15.2175H79.3838V14.7113C79.2954 13.5744 78.9944 12.7484 78.4807 12.2332C77.9673 11.718 77.2147 11.4605 76.2233 11.4605C75.1607 11.4605 74.3197 11.8157 73.7 12.5263C73.098 13.2369 72.7969 14.3027 72.7969 15.7238V17.962C72.7969 19.2588 73.089 20.2624 73.6735 20.973C74.2755 21.6835 75.1165 22.0388 76.1967 22.0388C77.1882 22.0388 77.9407 21.7723 78.4541 21.2394C78.9854 20.7065 79.304 19.8805 79.4103 18.7614V18.1485H82.6506V18.8147C82.5446 20.8575 81.907 22.3674 80.7384 23.3444C79.5874 24.3037 78.0647 24.7833 76.1701 24.7833Z" fill="#404040"/>
<path d="M89.0148 22.3316C89.4221 22.3316 89.8029 22.2872 90.1568 22.1984C90.5289 22.0918 90.8652 21.9319 91.1662 21.7188C91.7683 21.328 92.2288 20.8039 92.5474 20.1467C92.8837 19.4894 93.0521 18.7966 93.0521 18.0683V16.4163C92.8039 16.6294 92.4587 16.8159 92.0161 16.9758C91.5736 17.1357 91.0333 17.2867 90.396 17.4288C89.5992 17.6064 88.9972 17.7752 88.5898 17.9351C88.1825 18.0949 87.8286 18.2992 87.5276 18.5479C87.2797 18.7611 87.0847 19.0098 86.9431 19.294C86.8192 19.5782 86.7574 19.9069 86.7574 20.2799V20.3865C86.7574 20.9904 86.9431 21.4701 87.3149 21.8253C87.7047 22.1628 88.2712 22.3316 89.0148 22.3316ZM93.5033 24.4366L93.1581 21.6655C92.7155 22.5892 92.0517 23.3352 91.1662 23.9037C90.2986 24.4721 89.2095 24.7563 87.8994 24.7563C86.4474 24.7563 85.3406 24.4099 84.5794 23.7172C83.8178 23.0244 83.4374 22.0563 83.4374 20.8128V20.573C83.4374 19.7914 83.5879 19.1163 83.8886 18.5479C84.1896 17.9617 84.6146 17.4732 85.1635 17.0824C85.3406 16.9581 85.5177 16.8515 85.6948 16.7627C85.8895 16.6561 86.0756 16.5584 86.2527 16.4696C86.6421 16.3097 87.1026 16.1676 87.6336 16.0432C88.1828 15.9011 88.8643 15.7412 89.679 15.5636C90.9359 15.2972 91.8038 15.0307 92.2816 14.7642C92.7777 14.48 93.0255 14.0359 93.0255 13.432V13.3787C93.0255 12.7037 92.8039 12.1796 92.3614 11.8066C91.9364 11.4335 91.2194 11.247 90.2099 11.247C89.1477 11.247 88.3509 11.4868 87.8196 11.9664C87.3063 12.4461 87.0318 13.1211 86.9963 13.9915V14.6577H83.8623V13.9649C83.9507 12.4016 84.5262 11.1582 85.5885 10.2345C86.6687 9.293 88.1738 8.82227 90.1039 8.82227C92.2108 8.82227 93.716 9.26637 94.6191 10.1545C95.5398 11.025 96 12.2329 96 13.7784V24.4366H93.5033Z" fill="#404040"/>
<path fill-rule="evenodd" clip-rule="evenodd" d="M2.68594 0.69605C3.13018 0.250378 3.73272 0 4.36097 0H17.8713L26.1955 8.35094V26.2445C26.1955 26.8747 25.9459 27.4792 25.5017 27.9249C25.0574 28.3705 24.4549 28.6209 23.8267 28.6209H20.5823V26.0378H23.6206V9.42091L16.8048 2.58312H4.56694V12.1407H1.99213V2.37646C1.99213 1.74619 2.2417 1.14173 2.68594 0.69605Z" fill="#404040"/>
<path fill-rule="evenodd" clip-rule="evenodd" d="M16.0508 1.29199H18.6257V7.59481H24.9082V10.1779H16.0508V1.29199Z" fill="#404040"/>
<path fill-rule="evenodd" clip-rule="evenodd" d="M9.76813 12.1348L12.4468 18.3629L19.5363 18.911L14.1324 23.3876L15.7644 29.9996L9.76813 26.4596L3.77187 29.9996L5.40389 23.3876L0 18.911L7.08944 18.3629L9.76813 12.1348ZM9.76813 18.6549L8.83755 20.8185L6.55914 20.9947L8.29267 22.4307L7.74291 24.6581L9.76813 23.4624L11.7933 24.6581L11.2436 22.4307L12.9771 20.9947L10.6987 20.8185L9.76813 18.6549Z" fill="#404040"/>
</svg>
