<svg width="250" height="37" viewBox="0 0 250 37" fill="none" xmlns="http://www.w3.org/2000/svg">
<path d="M60.224 6.932C62.768 6.932 64.568 7.592 65.624 8.912C66.68 10.208 67.208 11.9 67.208 13.988C67.208 16.076 66.68 17.768 65.624 19.064C64.568 20.36 62.768 21.008 60.224 21.008H56.624V29H52.952V6.932H60.224ZM59.72 19.712C61.04 19.712 62 19.208 62.6 18.2C63.224 17.192 63.536 15.788 63.536 13.988C63.536 12.212 63.224 10.82 62.6 9.812C62 8.804 61.04 8.3 59.72 8.3H56.624V19.712H59.72ZM76.936 19.064C78.712 19.544 79.996 20.156 80.788 20.9C81.604 21.644 82.012 22.724 82.012 24.14C82.012 25.772 81.436 27.068 80.284 28.028C79.156 28.964 77.548 29.432 75.46 29.432C73.204 29.432 71.524 28.976 70.42 28.064C69.316 27.128 68.644 25.784 68.404 24.032L71.392 23.672C71.512 24.92 71.908 25.892 72.58 26.588C73.252 27.284 74.212 27.632 75.46 27.632C76.468 27.632 77.296 27.356 77.944 26.804C78.592 26.252 78.916 25.616 78.916 24.896C78.916 24.176 78.628 23.6 78.052 23.168C77.476 22.736 76.528 22.352 75.208 22.016L73.48 21.512C71.944 21.104 70.768 20.504 69.952 19.712C69.136 18.92 68.728 17.804 68.728 16.364C68.728 14.804 69.304 13.568 70.456 12.656C71.608 11.744 73.204 11.288 75.244 11.288C77.38 11.288 78.964 11.744 79.996 12.656C81.028 13.544 81.652 14.852 81.868 16.58L78.88 16.832C78.76 15.656 78.388 14.744 77.764 14.096C77.164 13.424 76.324 13.088 75.244 13.088C74.116 13.088 73.264 13.316 72.688 13.772C72.112 14.228 71.824 14.828 71.824 15.572C71.824 16.388 72.1 17.012 72.652 17.444C73.228 17.876 74.128 18.26 75.352 18.596L76.936 19.064ZM98.69 11.72L89.87 36.308L86.918 35.876L90.266 29.684L82.778 11.72H86.414L91.922 25.364L96.602 11.72H98.69ZM103.269 20.36C103.269 22.76 103.533 24.572 104.061 25.796C104.613 27.02 105.633 27.632 107.121 27.632C108.345 27.632 109.221 27.26 109.749 26.516C110.301 25.772 110.601 24.644 110.649 23.132L113.745 23.24C113.601 25.256 113.025 26.792 112.017 27.848C111.009 28.904 109.353 29.432 107.049 29.432C104.217 29.432 102.273 28.616 101.217 26.984C100.161 25.328 99.6326 23.12 99.6326 20.36C99.6326 17.576 100.161 15.368 101.217 13.736C102.273 12.104 104.217 11.288 107.049 11.288C109.353 11.288 110.997 11.792 111.981 12.8C112.989 13.784 113.565 15.236 113.709 17.156L110.649 17.552C110.601 16.04 110.301 14.924 109.749 14.204C109.221 13.46 108.345 13.088 107.121 13.088C105.633 13.088 104.613 13.7 104.061 14.924C103.533 16.124 103.269 17.936 103.269 20.36ZM126.258 11.288C128.154 11.288 129.546 11.768 130.434 12.728C131.346 13.688 131.802 15.044 131.802 16.796V29H128.166V17.084C128.166 15.812 127.938 14.864 127.482 14.24C127.026 13.616 126.306 13.304 125.322 13.304C123.834 13.304 122.394 13.856 121.002 14.96V29H117.366V6.176L121.002 5.708V13.088C121.77 12.536 122.61 12.104 123.522 11.792C124.434 11.456 125.346 11.288 126.258 11.288ZM142.815 29.432C139.911 29.432 137.883 28.604 136.731 26.948C135.603 25.268 135.039 23.072 135.039 20.36C135.039 17.624 135.603 15.428 136.731 13.772C137.883 12.116 139.911 11.288 142.815 11.288C145.695 11.288 147.711 12.128 148.863 13.808C150.015 15.464 150.591 17.648 150.591 20.36C150.591 26.408 147.999 29.432 142.815 29.432ZM142.815 27.632C144.399 27.632 145.479 26.996 146.055 25.724C146.655 24.452 146.955 22.664 146.955 20.36C146.955 18.032 146.667 16.244 146.091 14.996C145.515 13.724 144.423 13.088 142.815 13.088C141.207 13.088 140.115 13.712 139.539 14.96C138.963 16.208 138.675 18.008 138.675 20.36C138.675 22.688 138.963 24.488 139.539 25.76C140.115 27.008 141.207 27.632 142.815 27.632ZM157.815 29H154.179V6.176L157.815 5.708V29ZM169.186 29.432C166.282 29.432 164.254 28.604 163.102 26.948C161.974 25.268 161.41 23.072 161.41 20.36C161.41 17.624 161.974 15.428 163.102 13.772C164.254 12.116 166.282 11.288 169.186 11.288C172.066 11.288 174.082 12.128 175.234 13.808C176.386 15.464 176.962 17.648 176.962 20.36C176.962 26.408 174.37 29.432 169.186 29.432ZM169.186 27.632C170.77 27.632 171.85 26.996 172.426 25.724C173.026 24.452 173.326 22.664 173.326 20.36C173.326 18.032 173.038 16.244 172.462 14.996C171.886 13.724 170.794 13.088 169.186 13.088C167.578 13.088 166.486 13.712 165.91 14.96C165.334 16.208 165.046 18.008 165.046 20.36C165.046 22.688 165.334 24.488 165.91 25.76C166.486 27.008 167.578 27.632 169.186 27.632ZM194.626 13.232H192.106C193.066 14.36 193.546 15.824 193.546 17.624C193.546 19.4 193.054 20.912 192.07 22.16C191.11 23.408 189.454 24.032 187.102 24.032C185.494 24.032 184.162 23.768 183.106 23.24L182.134 24.176C181.558 24.656 181.27 25.22 181.27 25.868C181.27 26.228 181.402 26.564 181.666 26.876C181.954 27.164 182.35 27.308 182.854 27.308H189.586C191.122 27.308 192.334 27.704 193.222 28.496C194.11 29.288 194.554 30.284 194.554 31.484C194.554 33.308 193.798 34.568 192.286 35.264C190.798 35.96 188.83 36.308 186.382 36.308C184.03 36.308 182.194 35.984 180.874 35.336C179.578 34.688 178.93 33.584 178.93 32.024C178.93 31.4 179.134 30.788 179.542 30.188C179.974 29.588 180.526 29.12 181.198 28.784C180.574 28.568 180.07 28.232 179.686 27.776C179.326 27.296 179.146 26.756 179.146 26.156C179.146 25.628 179.242 25.136 179.434 24.68C179.626 24.2 179.974 23.72 180.478 23.24L181.594 22.16C180.538 21.104 180.01 19.592 180.01 17.624C180.01 15.848 180.514 14.348 181.522 13.124C182.554 11.9 184.306 11.288 186.778 11.288C187.954 11.288 188.938 11.432 189.73 11.72H194.626V13.232ZM186.778 22.268C187.978 22.268 188.818 21.872 189.298 21.08C189.802 20.288 190.054 19.136 190.054 17.624C190.054 16.136 189.802 15.008 189.298 14.24C188.818 13.448 187.978 13.052 186.778 13.052C185.578 13.052 184.738 13.448 184.258 14.24C183.778 15.008 183.538 16.136 183.538 17.624C183.538 19.136 183.778 20.288 184.258 21.08C184.738 21.872 185.578 22.268 186.778 22.268ZM183.43 29C183.022 29.336 182.686 29.756 182.422 30.26C182.182 30.788 182.062 31.34 182.062 31.916C182.062 32.852 182.422 33.512 183.142 33.896C183.886 34.304 184.966 34.508 186.382 34.508C188.206 34.508 189.502 34.28 190.27 33.824C191.062 33.392 191.458 32.612 191.458 31.484C191.458 30.692 191.17 30.08 190.594 29.648C190.018 29.216 189.298 29 188.434 29H183.43ZM211.256 11.72L202.436 36.308L199.484 35.876L202.832 29.684L195.344 11.72H198.98L204.488 25.364L209.168 11.72H211.256ZM224.64 8.984V16" fill="black"/>
<path d="M1.08689 13.2575C4.91122 14.1211 5.49958 17.5754 6.97047 20.1662C8.34488 23.0244 11.1246 23.4256 14.0196 22.8079L14.0396 22.7069C11.3111 21.9599 8.82852 19.9914 7.71828 17.4349C7.0655 15.9314 6.71689 14.1257 5.29924 13.2264C4.41347 12.6645 3.32736 12.6181 2.32362 12.3484C1.31988 12.079 0.231127 11.3751 0.171703 10.3806C0.0963933 10.7798 0.0502078 11.1843 0.0234375 11.5908C0.177882 12.372 0.502947 13.0669 1.08689 13.2575Z" fill="#F2B679"/>
<path d="M11.3842 12.6818C12.2244 7.20143 16.7968 3.02684 21.802 1.14825C21.8579 1.09787 21.9108 1.04577 21.9752 1C18.8063 1.3509 15.7086 2.58814 13.3546 4.69357C11.0009 6.799 9.44028 9.79536 9.32319 12.9138C9.20611 16.0322 10.6088 19.2206 13.151 21.1049C13.1537 21.0681 13.1593 21.0309 13.1625 20.9941C10.8997 19.1092 11.1406 15.3042 11.3842 12.6818Z" fill="#068075"/>
<path d="M21.0482 3.47273C21.0482 2.58151 21.1605 1.72511 21.7995 1.14795C16.7943 3.02654 12.2219 7.20113 11.3817 12.6815C11.1381 15.3039 10.8972 19.1089 13.16 20.9938C13.4036 18.1788 14.9654 15.3882 17.2032 13.6069C18.0399 12.9411 18.9751 12.4011 19.8079 11.7309C20.641 11.0608 21.3885 10.224 21.6715 9.2058C21.9316 8.27054 21.7763 7.27539 21.5556 6.33034C21.335 5.38557 21.0482 4.44196 21.0482 3.47273Z" fill="#F2B679"/>
<path d="M25.449 1.06963C28.1948 1.81922 31.0857 2.59127 33.2067 4.56658C35.4596 6.66453 37.2041 9.95192 36.5419 13.0447C36.208 14.6032 35.384 15.1378 35.4243 16.7296C35.5161 20.3507 40.6239 22.9953 36.2027 23.3657C36.2027 23.3657 35.7232 23.4294 34.8547 23.5557C34.5061 23.6064 34.7944 24.1859 35.2178 24.8954C35.4049 25.2092 35.3537 25.6036 35.0939 25.863C35.0239 25.9329 34.9624 25.9994 34.9245 26.0558C34.8489 26.1678 34.8718 26.3137 34.9721 26.4053C35.1877 26.6013 35.2622 27.0933 35.1642 27.3659C35.0377 27.7177 34.7018 27.9479 34.3932 28.167C34.0849 28.3861 33.7639 28.6506 33.6963 29.0176C33.5633 29.737 35.2363 32.7529 32.0939 32.5514C29.163 32.3638 27.4435 30.7039 25.937 31.0836C25.0439 31.3087 23.9416 34.1865 23.543 35.0003" stroke="black" stroke-miterlimit="10" stroke-linecap="round"/>
<path d="M30.0495 13.172C26.675 11.4696 22.3129 11.5697 19.0387 13.4325C16.2098 15.0419 14.2953 17.9111 13.9141 20.9472C14.2482 19.9774 14.7757 19.0369 15.5 18.1509C19.2208 14.2302 24.6125 12.2177 30.0495 13.172Z" fill="#068075"/>
<path d="M15.4995 18.1511C14.7752 19.0369 14.2478 19.9776 13.9136 20.9474C13.8509 21.4463 13.825 21.9495 13.8483 22.4527L13.9759 22.5198C15.5118 20.1898 18.1674 18.4511 20.9915 18.1693C22.6524 18.0038 24.5181 18.2116 25.8155 17.1523C26.6259 16.4905 26.9925 15.489 27.5523 14.6303C28.1121 13.7716 29.1212 12.9618 30.1096 13.2005C30.0899 13.1904 30.069 13.1821 30.049 13.172C24.612 12.2177 19.2203 14.2302 15.4995 18.1511Z" fill="#F2B679"/>
<path d="M17.2202 4.97307C13.0481 8.46024 11.2345 14.4236 12.7798 19.5755C13.3823 21.5845 14.4558 23.5307 14.3646 25.6223C14.2943 27.228 13.5256 28.7442 12.4945 29.9952C11.4634 31.2463 10.1755 32.2671 8.89844 33.2777" stroke="black" stroke-miterlimit="10" stroke-linecap="round"/>
<path d="M14.2423 24.092C13.4318 21.3548 15.1616 19.0706 17.3782 17.2219C19.5949 15.3735 22.4749 14.4872 25.3146 13.8557" stroke="black" stroke-miterlimit="10" stroke-linecap="round"/>
<path d="M3.81641 15.7745C4.24767 17.4476 7.04532 20.7344 8.48621 21.729C9.9271 22.7235 11.8293 22.822 13.5846 22.6582" stroke="black" stroke-miterlimit="10" stroke-linecap="round"/>
<path d="M6.96995 20.1662C5.49906 17.5754 4.9107 14.1211 1.08637 13.2575C0.502425 13.0669 0.177362 12.372 0.0232124 11.5905C-0.19801 14.9239 1.17286 18.4105 3.67133 20.661C6.47456 23.1859 10.5795 24.0532 14.0114 22.8459L14.0191 22.8079C11.1241 23.4257 8.34436 23.0244 6.96995 20.1662Z" fill="#068075"/>
</svg>
