<svg width="20" height="20" viewBox="0 0 20 20" fill="none" xmlns="http://www.w3.org/2000/svg">
<g clip-path="url(#clip0_364_21080)">
<path d="M11.6641 5.69451C12.8501 6.19817 13.8006 7.14861 14.3042 8.33459M12.2091 1.66797C15.1567 2.5186 17.48 4.84174 18.3307 7.78933" stroke="#404040" stroke-width="1.5"/>
<path d="M3.14589 9.98527L6.65817 6.67803L4.17034 1.6706C4.16799 1.66586 4.16179 1.66455 4.15764 1.66783C2.35227 3.09732 1.49724 4.6291 1.69099 5.97425C1.94363 7.72826 2.93917 10.4943 5.55295 13.2258C6.49338 14.3523 8.15331 15.8499 10.0733 16.8856M10.0733 16.8856C12.0854 17.9712 14.3859 19.0059 16.3334 17.7834C16.7624 17.5141 17.9283 16.4702 18.3316 15.8708C18.3344 15.8668 18.3328 15.8613 18.3283 15.859L13.3367 13.35L10.0733 16.8856Z" stroke="#404040" stroke-width="1.5"/>
</g>
<defs>
<clipPath id="clip0_364_21080">
<rect width="20" height="20" fill="white" transform="translate(0 0.000976562)"/>
</clipPath>
</defs>
</svg>
