<svg width="112" height="30" viewBox="0 0 112 30" fill="none" xmlns="http://www.w3.org/2000/svg">
<path d="M45.5059 27.6244C43.5152 27.6244 41.8181 27.2614 40.4155 26.5354C39.0353 25.8094 37.8477 24.8339 36.8524 23.6089L39.4992 21.1247C40.3364 22.1455 41.2527 22.9169 42.248 23.4387C43.2662 23.9605 44.4198 24.2214 45.7093 24.2214C47.2254 24.2214 48.3678 23.8811 49.137 23.2005C49.9063 22.5199 50.2906 21.601 50.2906 20.4441C50.2906 19.5139 50.0193 18.7766 49.4763 18.2321C48.9332 17.6876 47.9718 17.2793 46.5916 17.007L44.4878 16.6327C42.1801 16.2016 40.4495 15.4416 39.2954 14.3526C38.1418 13.2637 37.5648 11.7664 37.5648 9.86067C37.5648 8.81708 37.757 7.87559 38.1418 7.0362C38.549 6.17408 39.1032 5.45947 39.8045 4.89231C40.5286 4.30243 41.3997 3.84872 42.4179 3.53108C43.4356 3.21348 44.5785 3.05469 45.8452 3.05469C47.6326 3.05469 49.1822 3.37228 50.4945 4.00752C51.8068 4.62008 52.9264 5.51616 53.8543 6.69587L51.1729 9.07797C50.5624 8.28394 49.8155 7.64876 48.9332 7.17231C48.0509 6.69587 46.9536 6.4577 45.6418 6.4577C44.2844 6.4577 43.2323 6.72994 42.4854 7.27442C41.739 7.81889 41.3658 8.61293 41.3658 9.65652C41.3658 10.6547 41.671 11.4034 42.282 11.9025C42.893 12.3789 43.8428 12.7419 45.1327 12.9915L47.2366 13.4338C49.6122 13.8876 51.3428 14.6589 52.4289 15.7479C53.5374 16.8368 54.0916 18.3342 54.0916 20.2399C54.0916 21.3515 53.8994 22.3611 53.5146 23.2685C53.1302 24.176 52.5643 24.9587 51.8179 25.6166C51.0938 26.2519 50.2004 26.7509 49.137 27.1139C48.0737 27.4542 46.8634 27.6244 45.5059 27.6244Z" fill="#404040"/>
<path d="M63.5477 27.6246C62.2811 27.6246 61.1498 27.4091 60.1544 26.9781C59.1591 26.547 58.3219 25.9345 57.6429 25.1404C56.9645 24.3237 56.4442 23.3482 56.0822 22.2139C55.7201 21.0568 55.5391 19.775 55.5391 18.3685C55.5391 16.9619 55.7201 15.6915 56.0822 14.5571C56.4442 13.4001 56.9645 12.4246 57.6429 11.6305C58.3219 10.8138 59.1591 10.1899 60.1544 9.75888C61.1498 9.3278 62.2811 9.1123 63.5477 9.1123C65.3123 9.1123 66.7605 9.50932 67.8918 10.3034C69.023 11.0974 69.8485 12.1523 70.3688 13.4682L67.3147 14.8974C67.0657 14.0807 66.6246 13.4341 65.9913 12.9577C65.3803 12.4586 64.5659 12.209 63.5477 12.209C62.1903 12.209 61.161 12.6401 60.4597 13.5022C59.7812 14.3416 59.4415 15.4419 59.4415 16.8031V19.9679C59.4415 21.3291 59.7812 22.4407 60.4597 23.3028C61.161 24.1423 62.1903 24.5619 63.5477 24.5619C64.6339 24.5619 65.4933 24.3011 66.1272 23.7793C66.7833 23.2348 67.3036 22.5201 67.6879 21.6354L70.5047 23.1327C69.9165 24.5846 69.0342 25.6963 67.8578 26.4676C66.6814 27.239 65.2449 27.6246 63.5477 27.6246Z" fill="#404040"/>
<path d="M85.2589 27.2163C84.2863 27.2163 83.5394 26.944 83.0192 26.3996C82.4989 25.8324 82.182 25.1178 82.0689 24.2556H81.8996C81.5598 25.3673 80.9377 26.2067 80.0331 26.7739C79.1279 27.3411 78.0307 27.6246 76.7412 27.6246C74.9087 27.6246 73.4944 27.1482 72.4991 26.1954C71.5265 25.2425 71.0397 23.9607 71.0397 22.35C71.0397 20.5804 71.6736 19.2533 72.9402 18.3685C74.2297 17.4837 76.1079 17.0413 78.5737 17.0413H81.7637V15.544C81.7637 14.455 81.4696 13.6156 80.8814 13.0257C80.2932 12.4359 79.3769 12.141 78.1326 12.141C77.0916 12.141 76.2432 12.3678 75.5871 12.8216C74.931 13.2753 74.3767 13.8538 73.9244 14.5571L71.7187 12.5493C72.3069 11.5511 73.1324 10.7344 74.1957 10.0992C75.259 9.44124 76.6504 9.1123 78.3699 9.1123C80.6552 9.1123 82.4082 9.64544 83.6302 10.7117C84.8517 11.778 85.4627 13.3093 85.4627 15.3058V24.1876H87.3292V27.2163H85.2589ZM77.7933 24.8002C78.9469 24.8002 79.8972 24.5506 80.6436 24.0515C81.3905 23.5297 81.7637 22.8378 81.7637 21.9756V19.4234H78.6417C76.085 19.4234 74.8067 20.2174 74.8067 21.8055V22.4181C74.8067 23.2121 75.0669 23.8133 75.5871 24.2216C76.1302 24.6073 76.8654 24.8002 77.7933 24.8002Z" fill="#404040"/>
<path d="M93.0244 27.2164C91.7573 27.2164 90.807 26.8988 90.1737 26.2636C89.5627 25.6057 89.2574 24.6982 89.2574 23.5412V2.03418H92.9565V24.1878H95.3995V27.2164H93.0244Z" fill="#404040"/>
<path d="M104.161 27.6246C102.893 27.6246 101.762 27.4091 100.767 26.9781C99.7715 26.547 98.9231 25.9345 98.2219 25.1404C97.5206 24.3237 96.9775 23.3482 96.5927 22.2139C96.2306 21.0568 96.0501 19.775 96.0501 18.3685C96.0501 16.9619 96.2306 15.6915 96.5927 14.5571C96.9775 13.4001 97.5206 12.4246 98.2219 11.6305C98.9231 10.8138 99.7715 10.1899 100.767 9.75888C101.762 9.3278 102.893 9.1123 104.161 9.1123C105.45 9.1123 106.581 9.33914 107.554 9.7929C108.55 10.2466 109.375 10.8818 110.031 11.6986C110.688 12.4926 111.174 13.4227 111.491 14.489C111.83 15.5553 112 16.701 112 17.9261V19.3213H99.8846V19.8998C99.8846 21.261 100.281 22.384 101.073 23.2688C101.887 24.1309 103.041 24.5619 104.534 24.5619C105.62 24.5619 106.536 24.3237 107.283 23.8473C108.029 23.3709 108.663 22.7243 109.183 21.9076L111.355 24.0515C110.699 25.1404 109.749 26.0139 108.504 26.6718C107.26 27.3071 105.812 27.6246 104.161 27.6246ZM104.161 12.0049C103.527 12.0049 102.939 12.1183 102.396 12.3451C101.875 12.572 101.423 12.8896 101.039 13.298C100.677 13.7063 100.394 14.1941 100.19 14.7613C99.9865 15.3285 99.8846 15.9524 99.8846 16.6329V16.8711H108.097V16.5308C108.097 15.1697 107.747 14.0807 107.045 13.2639C106.344 12.4246 105.382 12.0049 104.161 12.0049Z" fill="#404040"/>
<path d="M14.7049 0H0V30H28.903V14.2373H25.8606V26.9492H3.0424V3.05085H14.7049V0Z" fill="#404040"/>
<path d="M18.2544 3.05085H23.7093L10.1413 16.6565V11.1864H7.09894V21.8644H17.7473V18.8136H12.2929L25.8606 5.20836V10.678H28.903V0H18.2544V3.05085Z" fill="#404040"/>
</svg>
