<svg width="60" height="58" viewBox="0 0 60 58" fill="none" xmlns="http://www.w3.org/2000/svg">
<path d="M44.7019 26.4541C44.3705 26.5648 44.1496 27.0076 44.2601 27.3396C45.5966 31.6564 43.4758 38.187 40.5708 42.1717C39.0024 44.2747 37.3345 45.4923 35.8764 45.4923C35.5451 45.4923 35.2026 45.8244 35.2026 46.1564C35.2026 46.4885 35.534 46.8205 35.8764 46.8205C37.7763 46.8205 39.8971 45.3816 41.6865 42.8358C44.8124 38.6297 47.0546 31.435 45.4861 26.7862C45.3757 26.5648 45.0333 26.3434 44.7019 26.4541Z" fill="black"/>
<path d="M33.8549 14.0572C38.8807 14.6107 43.1333 10.4046 42.5699 5.42365C42.5699 5.09159 42.2385 4.87021 41.8961 4.75953C36.8704 4.20609 32.6178 8.4122 33.1811 13.3931C33.1811 13.7252 33.5125 14.0572 33.8549 14.0572ZM41.1229 6.19846C41.2334 9.74044 38.2179 12.8397 34.5287 12.729C34.4182 9.07632 37.4337 6.08777 41.1229 6.19846Z" fill="black"/>
<path d="M41.1227 14.1679C37.5439 14.1679 34.1971 15.7175 31.8443 18.1527C33.0704 8.96563 28.7184 5.53433 28.4865 5.42365C28.1551 5.20227 27.7022 5.31296 27.4813 5.53433C27.2604 5.86639 27.2604 6.30914 27.5918 6.53052C27.5918 6.53052 28.8178 7.5267 29.7125 9.74044C30.4967 11.6221 31.0491 14.7214 30.1544 19.3702C27.8127 16.1603 24.1234 14.2786 20.2133 14.2786C11.4982 14.2786 7.58809 20.145 8.02992 28.8893H7.35611C3.99823 28.8893 1.3252 31.5458 1.3252 34.8664C1.3252 40.5114 6.9143 43.7214 12.2714 49.0343C12.4924 49.2557 12.9452 49.2557 13.2766 49.0343C13.7184 48.5916 14.0608 48.2595 14.5027 47.9275C17.8605 52.9084 21.6492 55.7862 25.0071 55.7862C26.9069 55.7862 28.8068 55.3435 30.5962 54.458H30.7066C32.496 55.3435 34.3959 55.7862 36.2957 55.7862C40.0954 55.7862 44.337 52.2443 47.9158 46.1565C51.2626 40.4007 53.284 33.5382 53.284 27.7824C53.284 19.4809 49.3738 14.1679 41.1006 14.1679H41.1227ZM12.7464 47.374C7.61017 42.3931 2.69485 39.5153 2.69485 34.645C2.69485 32.0992 4.81561 29.9962 7.38925 29.9962C9.62047 29.9962 10.7361 30.8817 12.1941 33.6488C12.3046 33.8702 12.5255 33.9809 12.8679 33.9809C13.0888 33.9809 13.4312 33.8702 13.5417 33.6488C14.8782 30.9924 16.1153 29.9962 18.3466 29.9962C20.9202 29.9962 23.041 32.0992 23.041 34.645C22.82 39.5153 17.9047 42.3931 12.7575 47.374H12.7464ZM46.7118 45.271C43.4754 50.8053 39.5652 54.1259 36.3178 54.1259C34.6389 54.1259 32.8495 53.6832 31.1816 52.9084C31.0711 52.9084 30.9607 52.7977 30.8502 52.7977H30.2869C30.1764 52.7977 30.066 52.7977 29.9555 52.9084C28.2766 53.6832 26.5976 54.1259 24.8193 54.1259C21.8038 54.1259 18.4459 51.4694 15.32 46.7099C19.7935 42.7252 24.0351 39.6259 24.0351 34.645C24.0351 31.3244 21.351 28.6679 18.0041 28.6679C15.32 28.6679 13.873 29.8855 12.6359 31.8778C11.7412 30.4389 10.7361 29.4427 9.27805 29C9.05713 25.6794 9.49896 21.3626 12.1831 18.4847C13.9725 16.4923 16.6565 15.4962 20.1138 15.4962C24.1344 15.4962 27.8237 17.7099 29.834 21.3626C30.0549 21.8053 30.7287 21.916 31.0601 21.4733V21.3626C32.9599 17.8206 36.8701 15.4962 41.0012 15.4962C44.6904 15.4962 47.5954 16.7137 49.3848 18.9275C50.9533 20.9198 51.848 23.9084 51.848 27.5611C51.9585 33.0954 49.9482 39.6259 46.7118 45.271Z" fill="black"/>
<path d="M5.4784 35.0877C5.4784 33.7595 6.48358 32.7633 7.8201 32.7633C8.15147 32.7633 8.49387 32.4312 8.49387 32.0992C8.49387 31.7671 8.16252 31.4351 7.8201 31.4351C5.80979 31.4351 4.13086 33.0954 4.13086 35.0877C4.13086 38.4083 7.36721 40.29 10.3827 43.2786C10.6036 43.4999 11.0565 43.4999 11.3878 43.2786C11.6087 43.0572 11.6087 42.6144 11.3878 42.2824C8.37236 39.4045 5.46737 37.7442 5.46737 35.0877H5.4784Z" fill="black"/>
<path d="M55.0842 13.061C57.7683 13.061 59.9996 10.8473 59.9996 8.19079C59.9996 5.5343 57.7683 3.32056 55.0842 3.32056C52.4001 3.32056 50.1689 5.5343 50.1689 8.19079C50.1689 10.8473 52.4001 13.061 55.0842 13.061ZM55.0842 4.75949C56.9841 4.75949 58.5526 6.30911 58.5526 8.19079C58.5526 10.0725 56.9841 11.6221 55.0842 11.6221C53.1844 11.6221 51.6159 10.0725 51.6159 8.19079C51.6159 6.30911 53.1844 4.75949 55.0842 4.75949Z" fill="black"/>
<path d="M7.59918 51.1372C5.69932 51.1372 4.13086 52.6868 4.13086 54.5685C4.13086 56.4502 5.69932 57.9998 7.59918 57.9998C9.49903 57.9998 11.0675 56.4502 11.0675 54.5685C11.0675 52.6868 9.49903 51.1372 7.59918 51.1372ZM7.59918 56.6716C6.48357 56.6716 5.4784 55.7861 5.4784 54.5685C5.4784 53.3509 6.37311 52.4654 7.59918 52.4654C8.82524 52.4654 9.71996 53.3509 9.71996 54.5685C9.71996 55.7861 8.71479 56.6716 7.59918 56.6716Z" fill="black"/>
<path d="M45.0335 0C45.5858 0 46.0386 0.44275 46.0386 0.996185C46.0386 1.54962 45.5858 1.99237 45.0335 1.99237C44.4812 1.99237 44.0283 1.54962 44.0283 0.996185C44.0283 0.44275 44.4812 0 45.0335 0Z" fill="black"/>
<path d="M58.2219 17.9312C58.7742 17.9312 59.2271 18.3739 59.2271 18.9273C59.2271 19.4808 58.7742 19.9235 58.2219 19.9235C57.6696 19.9235 57.2168 19.4808 57.2168 18.9273C57.2168 18.3739 57.6696 17.9312 58.2219 17.9312Z" fill="black"/>
<path d="M43.9175 24.2404C44.293 24.2404 44.5912 24.5393 44.5912 24.9045C44.5912 25.2698 44.293 25.5687 43.9175 25.5687C43.5419 25.5687 43.2437 25.2698 43.2437 24.9045C43.2437 24.5393 43.5419 24.2404 43.9175 24.2404Z" fill="black"/>
<path d="M56.2112 42.8358C56.7635 42.8358 57.2164 43.2785 57.2164 43.8319C57.2164 44.3854 56.7635 44.8281 56.2112 44.8281C55.6589 44.8281 55.2061 44.3854 55.2061 43.8319C55.2061 43.2785 55.6589 42.8358 56.2112 42.8358Z" fill="black"/>
<path d="M49.1643 56.0078C49.7166 56.0078 50.1695 56.4505 50.1695 57.0039C50.1695 57.5574 49.7166 58.0001 49.1643 58.0001C48.6121 58.0001 48.1592 57.5574 48.1592 57.0039C48.1592 56.4505 48.6121 56.0078 49.1643 56.0078Z" fill="black"/>
<path d="M17.7722 56.0078C18.3245 56.0078 18.7774 56.4505 18.7774 57.0039C18.7774 57.5574 18.3245 58.0001 17.7722 58.0001C17.22 58.0001 16.7671 57.5574 16.7671 57.0039C16.7671 56.4505 17.22 56.0078 17.7722 56.0078Z" fill="black"/>
<path d="M16.3142 3.43146C16.8665 3.43146 17.3194 3.87421 17.3194 4.42764C17.3194 4.98108 16.8665 5.42383 16.3142 5.42383C15.762 5.42383 15.3091 4.98108 15.3091 4.42764C15.3091 3.87421 15.762 3.43146 16.3142 3.43146Z" fill="black"/>
<path d="M5.14725 15.9387C5.69953 15.9387 6.15241 16.3815 6.15241 16.9349C6.15241 17.4883 5.69953 17.9311 5.14725 17.9311C4.59497 17.9311 4.14209 17.4883 4.14209 16.9349C4.14209 16.3815 4.59497 15.9387 5.14725 15.9387Z" fill="black"/>
<path d="M1.00516 44.2748C1.55744 44.2748 2.01032 44.7176 2.01032 45.271C2.01032 45.8245 1.55744 46.2672 1.00516 46.2672C0.452876 46.2672 0 45.8245 0 45.271C0 44.7176 0.452876 44.2748 1.00516 44.2748Z" fill="black"/>
</svg>
