<svg width="32" height="32" viewBox="0 0 32 32" fill="none" xmlns="http://www.w3.org/2000/svg">
<mask id="mask0_2001_47" style="mask-type:alpha" maskUnits="userSpaceOnUse" x="0" y="0" width="32" height="32">
<rect width="32" height="32" fill="#D9D9D9"/>
</mask>
<g mask="url(#mask0_2001_47)">
<path d="M1.85809 11.8153C4.87716 12.5773 5.34163 15.6252 6.50282 17.9112C7.58783 20.4331 9.78223 20.7872 12.0677 20.2421L12.0835 20.153C9.92947 19.4938 7.96963 17.757 7.09317 15.5013C6.57783 14.1747 6.30263 12.5814 5.18348 11.7879C4.48422 11.2921 3.6268 11.2512 2.83441 11.0132C2.04202 10.7755 1.18251 10.1545 1.1356 9.27692C1.07615 9.62921 1.03969 9.98607 1.01855 10.3447C1.14048 11.034 1.3971 11.6472 1.85809 11.8153Z" fill="#F2B679"/>
<path d="M9.98726 11.3073C10.6505 6.4718 14.2602 2.78837 18.2115 1.13081C18.2556 1.08636 18.2974 1.04039 18.3482 1C15.8466 1.30962 13.4011 2.40129 11.5428 4.259C9.68466 6.11672 8.45265 8.76054 8.36022 11.5121C8.26779 14.2636 9.37509 17.0768 11.3821 18.7395C11.3842 18.707 11.3886 18.6742 11.3911 18.6417C9.60477 16.9785 9.79497 13.6212 9.98726 11.3073Z" fill="#068075"/>
<path d="M17.6162 3.18181C17.6162 2.39545 17.7049 1.63981 18.2093 1.13055C14.2581 2.78812 10.6484 6.47155 9.98513 11.3071C9.79284 13.621 9.60264 16.9783 11.389 18.6414C11.5813 16.1576 12.8142 13.6954 14.5809 12.1237C15.2413 11.5362 15.9796 11.0597 16.6371 10.4684C17.2948 9.8771 17.8849 9.13874 18.1083 8.24036C18.3136 7.41514 18.191 6.53708 18.0168 5.70321C17.8426 4.8696 17.6162 4.03701 17.6162 3.18181Z" fill="#F2B679"/>
<path d="M21.0905 1.0614C23.2582 1.7228 25.5404 2.40402 27.2148 4.14693C28.9932 5.99804 30.3704 8.89865 29.8476 11.6276C29.5841 13.0027 28.9336 13.4744 28.9654 14.8789C29.0378 18.0739 33.0702 20.4074 29.5799 20.7343C29.5799 20.7343 29.2013 20.7904 28.5158 20.9019C28.2406 20.9466 28.4682 21.4579 28.8024 22.084C28.9501 22.3609 28.9096 22.7088 28.7046 22.9377C28.6493 22.9994 28.6008 23.0581 28.5708 23.1079C28.5111 23.2067 28.5292 23.3354 28.6084 23.4162C28.7787 23.5892 28.8374 24.0233 28.7601 24.2638C28.6602 24.5742 28.395 24.7774 28.1514 24.9707C27.908 25.1639 27.6546 25.3974 27.6012 25.7212C27.4962 26.3559 28.817 29.017 26.3362 28.8392C24.0225 28.6736 22.665 27.2091 21.4758 27.5441C20.7707 27.7427 19.9005 30.2819 19.5858 31" stroke="black" stroke-miterlimit="10" stroke-linecap="round"/>
<path d="M24.7224 11.74C22.0585 10.2378 18.6149 10.3262 16.0301 11.9698C13.7969 13.3899 12.2855 15.9215 11.9845 18.6004C12.2483 17.7447 12.6647 16.9149 13.2365 16.1331C16.1738 12.6737 20.4302 10.898 24.7224 11.74Z" fill="#068075"/>
<path d="M13.2361 16.1333C12.6643 16.9148 12.2479 17.7449 11.9841 18.6006C11.9346 19.0408 11.9142 19.4848 11.9325 19.9287L12.0333 19.9879C13.2458 17.9321 15.3422 16.398 17.5717 16.1493C18.8829 16.0033 20.3558 16.1866 21.3799 15.2519C22.0197 14.668 22.3091 13.7844 22.751 13.0267C23.193 12.269 23.9896 11.5545 24.7699 11.7651C24.7543 11.7562 24.7378 11.7489 24.722 11.74C20.4298 10.898 16.1734 12.6736 13.2361 16.1333Z" fill="#F2B679"/>
<path d="M14.5944 4.50555C11.3008 7.58244 9.86909 12.8442 11.089 17.3899C11.5647 19.1626 12.4121 20.8798 12.3401 22.7253C12.2846 24.1421 11.6778 25.4799 10.8638 26.5838C10.0498 27.6876 9.03304 28.5883 8.0249 29.4801" stroke="black" stroke-miterlimit="10" stroke-linecap="round"/>
<path d="M12.2435 21.3751C11.6037 18.9599 12.9693 16.9444 14.7192 15.3133C16.4691 13.6824 18.7427 12.9003 20.9845 12.3431" stroke="black" stroke-miterlimit="10" stroke-linecap="round"/>
<path d="M4.01282 14.0362C4.35328 15.5124 6.56185 18.4125 7.69935 19.2901C8.83684 20.1676 10.3385 20.2545 11.7242 20.11" stroke="black" stroke-miterlimit="10" stroke-linecap="round"/>
<path d="M6.50235 17.9112C5.34117 15.6253 4.8767 12.5773 1.85762 11.8154C1.39663 11.6472 1.14002 11.0341 1.01832 10.3445C0.843683 13.2857 1.92591 16.3621 3.89829 18.3478C6.11127 20.5756 9.3519 21.3409 12.0612 20.2757L12.0672 20.2421C9.78177 20.7872 7.58736 20.4331 6.50235 17.9112Z" fill="#068075"/>
</g>
</svg>
