<svg width="96" height="30" viewBox="0 0 96 30" fill="none" xmlns="http://www.w3.org/2000/svg">
<path d="M51.6828 23.6087L45.1428 15.448L51.2668 8.23242H47.2227L41.7684 15.1022V8.23242H38.4868V23.6087H41.7684V18.8828L42.9704 17.4536L47.6387 23.6087H51.6828Z" fill="#404040"/>
<path d="M59.3989 23.8849C64.0672 23.8849 67.4644 20.5653 67.4644 15.9317C67.4644 11.2981 64.0672 7.97852 59.3989 7.97852C54.7536 7.97852 51.3564 11.2981 51.3564 15.9317C51.3564 20.5653 54.7536 23.8849 59.3989 23.8849ZM59.3989 20.9803C56.5564 20.9803 54.7305 18.7903 54.7305 15.9317C54.7305 13.0501 56.5564 10.8831 59.3989 10.8831C62.2417 10.8831 64.0903 13.0501 64.0903 15.9317C64.0903 18.7903 62.2417 20.9803 59.3989 20.9803Z" fill="#404040"/>
<path d="M78.1334 23.6087C81.0684 23.6087 82.6169 21.7644 82.6169 19.4592C82.6169 17.5227 81.2996 15.9321 79.6588 15.6785C81.1148 15.3788 82.3165 14.0879 82.3165 12.1514C82.3165 10.0997 80.8144 8.23242 77.8791 8.23242H69.7675V23.6087H78.1334ZM77.1629 14.3875H73.049V11.0449H77.1629C78.2721 11.0449 78.9655 11.7595 78.9655 12.7277C78.9655 13.696 78.2721 14.3875 77.1629 14.3875ZM77.2782 20.7732H73.049V17.2H77.2782C78.5725 17.2 79.2659 18.0299 79.2659 18.9981C79.2659 20.1046 78.5264 20.7732 77.2782 20.7732Z" fill="#404040"/>
<path d="M95.9999 23.6087V20.7271H88.3732V17.2461H95.8382V14.3645H88.3732V11.114H95.9999V8.23242H85.0917V23.6087H95.9999Z" fill="#404040"/>
<path d="M29.2104 7.85943V4.15337H16.4949V0H12.4272V4.15337H0V7.85943H12.4593V11.2141H3.01072V26.1342H6.8542V14.9201H12.4593V30H16.4308V14.9201H22.5484V21.9489C22.5484 22.3003 22.3882 22.4601 21.8758 22.4601C21.3633 22.4601 19.4736 22.4601 17.8721 22.3962C18.4166 23.4185 18.9932 25.0479 19.1533 26.1342C21.6516 26.1342 23.4772 26.0703 24.8225 25.4952C26.1356 24.9201 26.52 23.8339 26.52 22.0128V11.2141H16.4308V7.85943H29.2104Z" fill="#404040"/>
</svg>
