<svg width="36" height="36" viewBox="0 0 36 36" fill="none" xmlns="http://www.w3.org/2000/svg">
<g clip-path="url(#clip0_695_116)">
<path d="M10.4999 35.8411C10.233 35.7958 9.96902 35.7346 9.70936 35.6581L5.40586 34.3081C3.84963 33.8509 2.48294 32.9028 1.50975 31.6052C0.536547 30.3076 0.00901177 28.7301 0.00585938 27.1081V9.00009C0.00741911 7.76716 0.312912 6.55362 0.895297 5.4669C1.47768 4.38018 2.319 3.4538 3.34477 2.76976C4.37054 2.08571 5.54913 1.6651 6.77622 1.54515C8.00331 1.42521 9.24104 1.60963 10.3799 2.08209L10.4999 2.13759V35.8411ZM31.0199 1.75059L30.9884 1.74009L26.9159 0.39009C26.4551 0.24066 25.9809 0.136665 25.4999 0.0795898V33.4726L28.5809 34.3606C29.4637 34.5755 30.3838 34.5871 31.2717 34.3945C32.1596 34.2019 32.9923 33.8101 33.7067 33.2488C34.4212 32.6874 34.9988 31.9712 35.396 31.154C35.7933 30.3369 35.9997 29.4402 35.9999 28.5316V8.81409C35.9976 7.26735 35.5181 5.75898 34.6268 4.49483C33.7356 3.23069 32.4759 2.27234 31.0199 1.75059ZM22.4999 0.28509C22.4999 0.28509 13.7354 2.79459 13.4999 2.82009V35.8201C13.6499 35.7886 22.4999 33.3661 22.4999 33.3661V0.28509Z" fill="white"/>
</g>
<defs>
<clipPath id="clip0_695_116">
<rect width="36" height="36" fill="white"/>
</clipPath>
</defs>
</svg>
