<svg width="80" height="80" viewBox="0 0 80 80" fill="none" xmlns="http://www.w3.org/2000/svg">
<path d="M56.6667 40.0002C56.6667 49.2048 49.2047 56.6668 40 56.6668C30.7953 56.6668 23.3334 49.2048 23.3334 40.0002C23.3334 30.7954 30.7953 23.3335 40 23.3335C49.2047 23.3335 56.6667 30.7954 56.6667 40.0002Z" stroke="black" stroke-width="1.5"/>
<path d="M62.1536 15.093C60.8296 16.3114 60 18.0587 60 19.9998C60 23.6817 62.9846 26.6665 66.6666 26.6665C67.931 26.6665 69.113 26.3145 70.1203 25.7033C72.0463 24.5344 73.3333 22.4174 73.3333 19.9998C73.3333 16.3179 70.3486 13.3332 66.6666 13.3332C64.926 13.3332 63.341 14.0004 62.1536 15.093ZM62.1536 15.093C56.2646 9.8512 48.5043 6.6665 40 6.6665C21.5905 6.6665 6.66663 21.5903 6.66663 39.9998C6.66663 58.4092 21.5905 73.3332 40 73.3332C58.4093 73.3332 73.3333 58.4092 73.3333 39.9998C73.3333 38.8748 73.2776 37.7628 73.1686 36.6665" stroke="black" stroke-width="1.5"/>
</svg>
