<svg width="30" height="31" viewBox="0 0 30 31" fill="none" xmlns="http://www.w3.org/2000/svg">
<rect opacity="0.1" y="0.5" width="30" height="30" rx="5" fill="#2B6CF5"/>
<path d="M9.45506 19.4689C9.16651 19.7553 9.16651 20.2198 9.45506 20.5062C9.74349 20.7926 10.2112 20.7926 10.4996 20.5062L9.45506 19.4689ZM20.545 10.5305C20.8335 10.2441 20.8335 9.77966 20.545 9.49316C20.2566 9.20671 19.7889 9.20671 19.5005 9.49316L20.545 10.5305ZM10.4996 20.5062L14.9314 16.1051L13.8869 15.0678L9.45506 19.4689L10.4996 20.5062ZM16.1132 14.9316L20.545 10.5305L19.5005 9.49316L15.0687 13.8942L16.1132 14.9316Z" fill="#2B6CF5"/>
<path d="M11.5744 9.27881H10.4325C9.79593 9.27881 9.4776 9.27881 9.34451 9.44519C9.30306 9.49708 9.27393 9.5576 9.2592 9.62228C9.21218 9.82952 9.41193 10.0757 9.8112 10.5679L17.8082 20.4263C17.9126 20.555 17.9648 20.6193 18.0336 20.6599C18.0563 20.6733 18.0801 20.6846 18.1048 20.6937C18.1798 20.7215 18.263 20.7215 18.4294 20.7215H19.5671C20.2035 20.7215 20.5216 20.7215 20.6547 20.5552C20.6962 20.5033 20.7254 20.4428 20.7401 20.3782C20.7871 20.1709 20.5875 19.9248 20.1884 19.4325L12.1957 9.57419C12.0913 9.44541 12.0392 9.38103 11.9703 9.34047C11.9476 9.32709 11.9239 9.31575 11.8991 9.30659C11.8241 9.27881 11.7409 9.27881 11.5744 9.27881Z" fill="#2B6CF5"/>
</svg>
