<svg width="30" height="31" viewBox="0 0 30 31" fill="none" xmlns="http://www.w3.org/2000/svg">
<rect opacity="0.1" y="0.5" width="30" height="30" rx="5" fill="#2B6CF5"/>
<path fill-rule="evenodd" clip-rule="evenodd" d="M17.9 9H12.1C10.6001 9 9.85016 9 9.32443 9.38197C9.15464 9.50533 9.00533 9.65464 8.88197 9.82443C8.5 10.3502 8.5 11.1001 8.5 12.6V18.4C8.5 19.8999 8.5 20.6498 8.88197 21.1756C9.00533 21.3454 9.15464 21.4947 9.32443 21.618C9.85016 22 10.6001 22 12.1 22H17.9C19.3999 22 20.1498 22 20.6756 21.618C20.8454 21.4947 20.9947 21.3454 21.118 21.1756C21.5 20.6498 21.5 19.8999 21.5 18.4V12.6C21.5 11.1001 21.5 10.3502 21.118 9.82443C20.9947 9.65464 20.8454 9.50533 20.6756 9.38197C20.1498 9 19.3999 9 17.9 9ZM17.6667 15.5C17.6667 16.9728 16.4728 18.1667 15 18.1667C13.5272 18.1667 12.3333 16.9728 12.3333 15.5C12.3333 14.0272 13.5272 12.8333 15 12.8333C16.4728 12.8333 17.6667 14.0272 17.6667 15.5ZM18.6667 12.5C19.0349 12.5 19.3333 12.2015 19.3333 11.8333C19.3333 11.4651 19.0349 11.1667 18.6667 11.1667C18.2985 11.1667 18 11.4651 18 11.8333C18 12.2015 18.2985 12.5 18.6667 12.5Z" fill="#2B6CF5"/>
</svg>
