<svg width="16" height="16" viewBox="0 0 16 16" fill="none" xmlns="http://www.w3.org/2000/svg">
<path d="M0.632091 3.7911L1.24895 3.78759C1.24884 3.76764 1.24776 3.7477 1.24571 3.72785L0.632091 3.7911ZM12.2135 15.3679L12.2767 14.7543C12.2568 14.7523 12.2369 14.7512 12.2169 14.7511L12.2135 15.3679ZM3.95254 6.33575L3.85516 5.72665C3.65783 5.75819 3.48801 5.88338 3.39949 6.06254C3.31097 6.2417 3.31473 6.45263 3.40957 6.62856L3.95254 6.33575ZM9.66779 12.0488L9.37523 12.5919C9.55108 12.6866 9.76197 12.6903 9.94111 12.6018C10.1202 12.5133 10.2453 12.3435 10.2769 12.1462L9.66779 12.0488ZM1.89611 1.89597C2.77944 1.01299 4.2117 1.01299 5.09503 1.89597L5.96724 1.02342C4.60215 -0.341141 2.38899 -0.341141 1.0239 1.02342L1.89611 1.89597ZM5.09503 1.89597C5.97822 2.77882 5.97822 4.21011 5.09503 5.09295L5.96724 5.96551C7.33249 4.60082 7.33249 2.38812 5.96724 1.02342L5.09503 1.89597ZM10.9107 10.9071C11.7941 10.0241 13.2263 10.0241 14.1097 10.9071L14.9819 10.0345C13.6167 8.66998 11.4037 8.66998 10.0386 10.0345L10.9107 10.9071ZM14.1097 10.9071C14.9928 11.7899 14.9928 13.2212 14.1097 14.1041L14.9819 14.9766C16.3471 13.6119 16.3471 11.3993 14.9819 10.0345L14.1097 10.9071ZM4.80406 11.1973C2.47983 8.87396 1.26197 6.082 1.24895 3.78759L0.0152308 3.79459C0.0305045 6.48487 1.43351 9.57242 3.93184 12.0698L4.80406 11.1973ZM1.24571 3.72785C1.1782 3.07282 1.39529 2.3966 1.89611 1.89597L1.0239 1.02342C0.249361 1.79766 -0.0854914 2.84561 0.0184715 3.85434L1.24571 3.72785ZM14.1097 14.1041C13.6088 14.6048 12.9322 14.8218 12.2767 14.7543L12.1502 15.9815C13.1591 16.0855 14.2074 15.7508 14.9819 14.9766L14.1097 14.1041ZM12.2169 14.7511C9.92145 14.7381 7.12827 13.5205 4.80406 11.1973L3.93184 12.0698C6.43022 14.5672 9.51884 15.9695 12.2099 15.9848L12.2169 14.7511ZM5.09503 5.09295C4.74447 5.44337 4.30912 5.65408 3.85516 5.72665L4.04991 6.94489C4.75182 6.8327 5.42681 6.50576 5.96724 5.96551L5.09503 5.09295ZM6.83966 9.16249C5.86254 8.18578 5.07709 7.12164 4.49551 6.04303L3.40957 6.62856C4.04979 7.81599 4.90813 8.9762 5.96741 10.0351L6.83966 9.16249ZM10.2769 12.1462C10.3495 11.6926 10.5602 11.2575 10.9107 10.9071L10.0386 10.0345C9.49811 10.5748 9.17092 11.2496 9.05865 11.9513L10.2769 12.1462ZM9.96035 11.5057C8.88124 10.9244 7.81669 10.1392 6.83966 9.16249L5.96741 10.0351C7.02669 11.0939 8.18739 11.9519 9.37523 12.5919L9.96035 11.5057Z" fill="#091331"/>
</svg>
