<svg width="30" height="31" viewBox="0 0 30 31" fill="none" xmlns="http://www.w3.org/2000/svg">
<rect opacity="0.1" y="0.5" width="30" height="30" rx="5" fill="#2B6CF5"/>
<path d="M22.4966 22.2499L22.5 22.2493V17.2982C22.5 14.8761 21.9785 13.0103 19.1469 13.0103C17.7856 13.0103 16.8721 13.7573 16.4992 14.4654H16.4598V13.2364H13.775V22.2493H16.5706V17.7864C16.5706 16.6114 16.7934 15.4751 18.2486 15.4751C19.6824 15.4751 19.7038 16.8161 19.7038 17.8618V22.2499H22.4966Z" fill="#2B6CF5"/>
<path d="M9.2229 13.2373H12.0219V22.2502H9.2229V13.2373Z" fill="#2B6CF5"/>
<path d="M10.6211 8.75C9.72619 8.75 9 9.47619 9 10.3711C9 11.2661 9.72619 12.0074 10.6211 12.0074C11.5161 12.0074 12.2422 11.2661 12.2422 10.3711C12.2417 9.47619 11.5155 8.75 10.6211 8.75Z" fill="#2B6CF5"/>
</svg>
