<svg width="30" height="31" viewBox="0 0 30 31" fill="none" xmlns="http://www.w3.org/2000/svg">
<rect opacity="0.1" y="0.5" width="30" height="30" rx="5" fill="#2B6CF5"/>
<path d="M13.932 15.9838C13.8817 15.9838 12.8267 15.9841 12.3402 15.9837C12.0897 15.9835 12.0003 15.8935 12.0003 15.6414C12 14.9939 11.9998 14.3464 12.0003 13.6988C12.0005 13.45 12.095 13.355 12.3422 13.3548C12.8288 13.3545 13.878 13.3547 13.932 13.3547C13.932 13.3103 13.9318 12.3755 13.932 11.9449C13.9323 11.3085 14.0459 10.6992 14.3692 10.1414C14.7003 9.57043 15.182 9.17932 15.7994 8.95318C16.1949 8.80824 16.6053 8.75042 17.025 8.7501C17.55 8.74978 18.075 8.75026 18.6001 8.75122C18.8258 8.75154 18.9259 8.85132 18.9264 9.07858C18.9273 9.68767 18.9273 10.2968 18.9264 10.9057C18.926 11.1353 18.8301 11.2276 18.5993 11.2302C18.169 11.2348 17.7383 11.2319 17.3084 11.2492C16.8743 11.2492 16.6459 11.4613 16.6459 11.9107C16.6355 12.386 16.6415 12.8619 16.6415 13.3545C16.6822 13.3545 17.9178 13.3543 18.4954 13.3545C18.7577 13.3545 18.8474 13.4447 18.8474 13.7085C18.8474 14.3525 18.8472 14.9966 18.8468 15.6406C18.8466 15.9005 18.7624 15.9835 18.4984 15.9837C17.9209 15.984 16.6901 15.9838 16.6363 15.9838V21.1962C16.6363 21.4741 16.5488 21.5626 16.2746 21.5626C15.6061 21.5626 14.9375 21.5628 14.269 21.5626C14.0266 21.5626 13.9321 21.4685 13.9321 21.2261C13.932 19.5286 13.932 16.0434 13.932 15.9838Z" fill="#2B6CF5"/>
</svg>
