<svg width="26" height="26" viewBox="0 0 26 26" fill="none" xmlns="http://www.w3.org/2000/svg">
<g clip-path="url(#clip0_79_77)">
<path d="M0.5 6.75C0.5 5.9212 0.82924 5.12634 1.41529 4.54029C2.00134 3.95424 2.7962 3.625 3.625 3.625H22.375C23.2038 3.625 23.9987 3.95424 24.5847 4.54029C25.1708 5.12634 25.5 5.9212 25.5 6.75V19.25C25.5 20.0788 25.1708 20.8737 24.5847 21.4597C23.9987 22.0458 23.2038 22.375 22.375 22.375H3.625C2.7962 22.375 2.00134 22.0458 1.41529 21.4597C0.82924 20.8737 0.5 20.0788 0.5 19.25V6.75ZM3.625 5.1875C3.2106 5.1875 2.81317 5.35212 2.52015 5.64515C2.22712 5.93817 2.0625 6.3356 2.0625 6.75V7.08906L13 13.6516L23.9375 7.08906V6.75C23.9375 6.3356 23.7729 5.93817 23.4799 5.64515C23.1868 5.35212 22.7894 5.1875 22.375 5.1875H3.625ZM23.9375 8.91094L16.5812 13.325L23.9375 17.8516V8.91094ZM23.8844 19.6547L15.0719 14.2312L13 15.4734L10.9281 14.2312L2.11563 19.6531C2.20442 19.9856 2.40049 20.2795 2.67342 20.4891C2.94635 20.6988 3.28085 20.8125 3.625 20.8125H22.375C22.7189 20.8125 23.0533 20.6991 23.3262 20.4898C23.5991 20.2804 23.7953 19.9869 23.8844 19.6547ZM2.0625 17.8516L9.41875 13.325L2.0625 8.91094V17.8516Z" fill="#2B6CF5"/>
</g>
<defs>
<clipPath id="clip0_79_77">
<rect width="25" height="25" fill="white" transform="translate(0.5 0.5)"/>
</clipPath>
</defs>
</svg>
