<svg width="60" height="60" viewBox="0 0 60 60" fill="none" xmlns="http://www.w3.org/2000/svg">
<path fill-rule="evenodd" clip-rule="evenodd" d="M13.9256 55.8677C15.097 48.0387 21.8477 42.0337 30.0002 42.0337C38.157 42.0337 44.9078 48.0388 46.0767 55.8678C46.1006 56.0365 46.0501 56.2073 45.9383 56.3359C45.8267 56.4646 45.6647 56.5385 45.4942 56.5385C41.3081 56.5385 18.6937 56.5385 14.5066 56.537C14.3366 56.537 14.1749 56.4632 14.0634 56.3348C13.952 56.2065 13.9017 56.036 13.9256 55.8677ZM30.0002 40.8572C25.4746 40.8572 21.7855 37.1638 21.7855 32.638C21.7855 28.1124 25.4746 24.419 30.0002 24.419C34.5302 24.419 38.2193 28.1124 38.2193 32.638C38.2193 37.1638 34.5302 40.8572 30.0002 40.8572ZM13.6249 34.6133C13.6249 35.1328 13.2031 35.5545 12.6837 35.5545C12.1643 35.5545 11.7426 35.1328 11.7426 34.6133C11.7426 24.5367 19.9235 16.3557 30.0002 16.3557C40.0769 16.3557 48.2578 24.5367 48.2578 34.6133C48.2578 35.1328 47.8361 35.5545 47.3167 35.5545C46.7973 35.5545 46.3755 35.1328 46.3755 34.6133C46.3755 25.5755 39.038 18.238 30.0002 18.238C20.9624 18.238 13.6249 25.5755 13.6249 34.6133ZM29.059 9.31225V4.40272C29.059 3.88331 29.4808 3.46155 30.0002 3.46155C30.5196 3.46155 30.9414 3.88331 30.9414 4.40272V9.31225L31.2058 9.08025C31.5962 8.73767 32.1914 8.77649 32.534 9.16684C32.8767 9.55731 32.8378 10.1525 32.4474 10.4951L30.621 12.0978C30.2659 12.4095 29.7346 12.4095 29.3794 12.0978L27.553 10.4951C27.1626 10.1525 27.1237 9.55731 27.4664 9.16684C27.809 8.77649 28.4042 8.73767 28.7946 9.08025L29.059 9.31225ZM14.172 15.4787L14.1948 15.1277C14.2287 14.6093 14.6769 14.2159 15.1953 14.2498C15.7136 14.2835 16.107 14.7319 16.0731 15.2503L15.915 17.675C15.8843 18.1465 15.5087 18.5221 15.0371 18.5528L12.6123 18.7111C12.094 18.7448 11.6457 18.3514 11.6118 17.8331C11.5781 17.3147 11.9715 16.8665 12.4898 16.8327L12.8409 16.8098L9.36938 13.3383C9.00197 12.971 9.00197 12.3745 9.36938 12.0072C9.73667 11.6399 10.333 11.6399 10.7003 12.0072L14.172 15.4787ZM6.67444 31.6968L6.44244 31.4325C6.09973 31.042 6.13855 30.4468 6.52902 30.1043C6.9195 29.7617 7.51455 29.8005 7.85726 30.1908L9.45997 32.0173C9.77161 32.3725 9.77161 32.9037 9.45997 33.2588L7.85726 35.0853C7.51455 35.4757 6.9195 35.5145 6.52902 35.1719C6.13855 34.8293 6.09973 34.2341 6.44244 33.8437L6.67444 33.5792H1.76491C1.2455 33.5792 0.82373 33.1575 0.82373 32.638C0.82373 32.1186 1.2455 31.6968 1.76491 31.6968H6.67444ZM45.8284 15.4787L49.3001 12.0072C49.6674 11.6399 50.2637 11.6399 50.631 12.0072C50.9984 12.3745 50.9984 12.971 50.631 13.3383L47.1595 16.8098L47.5106 16.8327C48.0289 16.8665 48.4223 17.3147 48.3886 17.8331C48.3547 18.3514 47.9064 18.7448 47.3881 18.7111L44.9633 18.5528C44.4917 18.5221 44.1161 18.1465 44.0854 17.675L43.9273 15.2503C43.8934 14.7319 44.2868 14.2835 44.8051 14.2498C45.3235 14.2159 45.7717 14.6093 45.8056 15.1277L45.8284 15.4787ZM53.326 31.6968H58.2355C58.7549 31.6968 59.1767 32.1186 59.1767 32.638C59.1767 33.1575 58.7549 33.5792 58.2355 33.5792H53.326L53.558 33.8437C53.9007 34.2341 53.8619 34.8293 53.4714 35.1719C53.0809 35.5145 52.4858 35.4757 52.1431 35.0853L50.5404 33.2588C50.2288 32.9037 50.2288 32.3725 50.5404 32.0173L52.1431 30.1908C52.4858 29.8005 53.0809 29.7617 53.4714 30.1043C53.8619 30.4468 53.9007 31.042 53.558 31.4325L53.326 31.6968Z" fill="#2B6CF5"/>
</svg>
