<svg width="60" height="60" viewBox="0 0 60 60" fill="none" xmlns="http://www.w3.org/2000/svg">
<path fill-rule="evenodd" clip-rule="evenodd" d="M41.2948 36.4587C43.2327 31.9741 43.783 26.6937 43.8663 21.5327C38.973 21.0864 33.7418 19.311 30.0104 15.9942C26.5637 19.2721 20.7024 21.0946 16.1354 21.531C16.2186 26.6925 16.7689 31.9738 18.7071 36.4588C20.6769 41.017 24.1078 44.7791 30.0009 46.7831C35.8942 44.7791 39.325 41.0169 41.2948 36.4587ZM33.9022 27.3537C36.0568 29.5083 36.0568 33.0019 33.9022 35.1565C31.7476 37.3111 28.2539 37.3111 26.0994 35.1565C23.9448 33.0019 23.9448 29.5082 26.0994 27.3537C28.254 25.1991 31.7477 25.1991 33.9022 27.3537ZM30.0008 24.1563C33.9211 24.1563 37.0996 27.3347 37.0996 31.255C37.0996 35.1752 33.9212 38.3537 30.0008 38.3537C26.0804 38.3537 22.9021 35.1754 22.9021 31.255C22.9021 27.3346 26.0805 24.1563 30.0008 24.1563ZM26.8959 31.7688C26.5769 31.472 26.559 30.9728 26.8557 30.6538C27.1526 30.3348 27.6518 30.3169 27.9708 30.6136L29.2752 31.8291L32.0032 29.0279C32.3068 28.7157 32.806 28.7088 33.1181 29.0125C33.4303 29.3161 33.4372 29.8153 33.1336 30.1274L29.8793 33.4693C29.5824 33.7883 29.0832 33.8063 28.7642 33.5095L26.8959 31.7687V31.7688ZM42.0064 55.4428C38.2699 57.2104 34.2067 58.125 30.0009 58.125C22.2343 58.125 15.2031 54.977 10.1135 49.8874C-1.83505 37.939 -0.609152 18.2852 12.6322 7.87594C12.9751 7.60641 13.0345 7.11 12.765 6.76711L11.9631 5.64293L18.3278 6.76911L17.3174 13.1532L16.4489 11.9351C16.187 11.5597 15.6632 11.4737 15.3027 11.7641C12.5935 13.9506 10.381 16.7303 8.86182 19.9065C4.55882 28.9028 6.45585 39.5802 13.4383 46.5626C20.3321 53.4564 30.8058 55.3763 39.7092 51.3205L39.0446 53.7822L39.0464 53.7826C38.9359 54.1956 39.1755 54.6231 39.5882 54.7426L42.0064 55.4428ZM46.2008 53.8596L46.979 55.2423L40.7713 53.445L42.4556 47.2057L43.0939 48.3398C43.3322 48.7641 43.8907 48.8865 44.3028 48.548C47.1218 46.3714 49.431 43.5665 51.02 40.343C55.4713 31.3133 53.62 20.494 46.5633 13.4374C39.4581 6.33223 28.5689 4.5334 19.5661 9.02684L19.9969 6.30493C20.0886 5.83454 19.8042 5.4252 19.3632 5.34774L17.1774 4.96102C21.1243 2.9345 25.4855 1.87512 30.0007 1.87512C45.5339 1.87512 58.1257 14.4669 58.1257 30.0001C58.1257 34.6179 57.0163 38.9716 55.0502 42.8091C53.0151 46.7811 50.0619 50.2062 46.4706 52.8045C46.1154 53.0263 45.9936 53.4906 46.2006 53.8598L46.2008 53.8596Z" fill="#2B6CF5"/>
</svg>
