<svg width="60" height="60" viewBox="0 0 60 60" fill="none" xmlns="http://www.w3.org/2000/svg">
<path fill-rule="evenodd" clip-rule="evenodd" d="M26.4963 27.866H42.4513C43.2693 27.866 43.9349 27.2004 43.9349 26.3824V25.8586C43.9349 20.6426 39.6916 16.3981 34.4744 16.3981C29.2572 16.3981 25.0138 20.6426 25.0138 25.8586V26.3824C25.0138 27.2004 25.6783 27.866 26.4963 27.866ZM43.9701 9.34338L45.4759 9.99846C45.6834 10.0887 45.8474 10.2539 45.9388 10.4614L46.5939 11.9684L47.2478 10.4614C47.338 10.2551 47.5033 10.0899 47.7107 9.99846L49.2166 9.34338L47.7107 8.68831C47.5045 8.59924 47.3392 8.43401 47.2478 8.22542L46.5939 6.71956L45.9388 8.22542C45.8474 8.43284 45.6834 8.59807 45.4759 8.68831L43.9701 9.34338ZM30.2134 7.11799C30.2134 9.4676 32.1248 11.3789 34.4744 11.3789C36.824 11.3789 38.7353 9.4676 38.7353 7.11799C38.7353 4.76838 36.824 2.85706 34.4744 2.85706C32.1248 2.85588 30.2134 4.76721 30.2134 7.11799ZM20.0861 18.3832L20.8607 20.1657L21.6365 18.3832C21.7431 18.1383 21.9388 17.9426 22.1849 17.8348L23.9673 17.0602L22.1849 16.2844C21.94 16.1789 21.7443 15.9832 21.6365 15.7371L20.8607 13.9559L20.0861 15.7371C19.9806 15.9832 19.7838 16.1789 19.5377 16.2844L17.7552 17.0602L19.5377 17.8348C19.7838 17.9426 19.9795 18.1383 20.0861 18.3832ZM16.7099 53.884L7.61969 36.4395C7.57047 36.3469 7.48844 36.2789 7.38648 36.2461C7.34664 36.2332 7.30563 36.2274 7.26578 36.2274C7.2025 36.2274 7.14156 36.2426 7.08531 36.2719L3.12086 38.3379C2.93102 38.4364 2.85367 38.6813 2.95328 38.8711L12.0435 56.3156C12.0916 56.4082 12.1748 56.4774 12.2755 56.509C12.3775 56.5406 12.4841 56.5324 12.5767 56.4832L16.5412 54.4172C16.6349 54.3692 16.7029 54.2871 16.7345 54.1852C16.7673 54.0844 16.7591 53.9766 16.7099 53.884ZM32.0943 34.7145C33.0611 34.7567 33.9564 35.175 34.615 35.8946C35.2748 36.6129 35.6146 37.541 35.5736 38.5078C35.5314 39.4735 35.1119 40.3688 34.3935 41.0285C33.674 41.6883 32.7447 42.027 31.7802 41.986L23.7166 41.6379C23.3298 41.6215 23.0005 41.9215 22.9841 42.3094C22.9666 42.6973 23.2677 43.0254 23.6556 43.043L31.7193 43.391C31.7931 43.3946 31.867 43.3957 31.9408 43.3957C33.2017 43.3957 34.4029 42.9282 35.3439 42.0645C35.6287 41.8043 35.8783 41.5149 36.0927 41.2055L36.0986 41.216L51.2627 33.3129C52.1193 32.8664 53.1048 32.7809 54.0341 33.0739C54.9669 33.3668 55.724 34.0008 56.1728 34.8586C56.6181 35.7164 56.7037 36.7008 56.4119 37.6313C56.1154 38.5617 55.4837 39.3211 54.6271 39.7676L32.2865 51.4102C31.1181 52.0196 29.8994 51.9305 28.3127 51.5895L19.4463 49.6875C18.749 49.5375 18.0013 49.4531 17.249 49.8457L16.4181 50.2781L10.4064 38.7469L18.4091 34.5762C18.9623 34.2879 19.4884 34.1707 20.1119 34.1977L32.0943 34.7145Z" fill="#2B6CF5"/>
</svg>
