<svg width="60" height="60" viewBox="0 0 60 60" fill="none" xmlns="http://www.w3.org/2000/svg">
<path fill-rule="evenodd" clip-rule="evenodd" d="M33.5533 3.41496L37.1259 6.08917C38.103 6.82054 39.1314 7.19484 40.35 7.26269L44.8056 7.51054C47.4736 7.6589 49.6405 9.47706 50.2499 12.0789L51.2678 16.4238C51.5461 17.6121 52.0934 18.5599 52.9833 19.3951L56.2373 22.4491C58.1856 24.2777 58.6768 27.0634 57.4714 29.4482L55.4582 33.4308C54.9077 34.52 54.7176 35.5978 54.8624 36.8096L55.3921 41.2407C55.7092 43.894 54.2949 46.3435 51.8386 47.3955L47.7364 49.1524C46.6144 49.6329 45.7761 50.3364 45.1081 51.3578L42.6656 55.0925C41.203 57.3288 38.545 58.2962 35.9873 57.5232L31.7155 56.2323C30.5473 55.8792 29.4529 55.8792 28.2845 56.2323L24.0128 57.5232C21.4551 58.2962 18.797 57.3288 17.3345 55.0925L14.892 51.3578C14.2239 50.3364 13.3856 49.6329 12.2637 49.1524L8.16122 47.3953C5.70497 46.3433 4.29063 43.8937 4.60774 41.2405L5.13743 36.8094C5.28227 35.5976 5.09219 34.5198 4.54165 33.4305L2.52848 29.4479C1.32309 27.0633 1.81422 24.2776 3.76258 22.4489L7.01653 19.3949C7.90645 18.5597 8.4536 17.6119 8.73192 16.4236L9.74981 12.0786C10.3592 9.47695 12.5261 7.65878 15.1941 7.51031L19.6497 7.26246C20.8683 7.19472 21.8968 6.82031 22.8739 6.08894L26.4464 3.41472C28.5855 1.81371 31.4141 1.81371 33.5533 3.41496ZM27.7209 31.5305L23.8438 27.6534C22.8389 26.6486 21.209 26.6486 20.2042 27.6534C19.1993 28.6583 19.1993 30.2882 20.2042 31.293L25.9067 36.9954C26.9116 38.0001 28.5415 38.0003 29.5463 36.9954C32.9834 33.5582 36.3816 30.0824 39.8029 26.6294C40.8005 25.6226 40.7973 23.9979 39.7918 22.9979C38.7861 21.9977 37.1567 22.0005 36.158 23.0092L27.7209 31.5305ZM29.9998 10.8344C24.7075 10.8344 19.9161 12.9797 16.4478 16.448C12.9795 19.9164 10.8343 24.7077 10.8343 30C10.8343 35.2923 12.9795 40.0837 16.4478 43.552C19.9161 47.0203 24.7075 49.1655 29.9998 49.1655C35.2921 49.1655 40.0836 47.0203 43.5518 43.552C47.0201 40.0837 49.1654 35.2923 49.1654 30C49.1654 24.7077 47.0201 19.9162 43.5518 16.448C40.0836 12.9797 35.2921 10.8344 29.9998 10.8344ZM42.2261 17.7737C39.0972 14.6448 34.7745 12.7094 29.9998 12.7094C25.2251 12.7094 20.9024 14.6448 17.7735 17.7737C14.6446 20.9026 12.7093 25.2253 12.7093 30C12.7093 34.7747 14.6446 39.0974 17.7735 42.2263C20.9024 45.3552 25.2251 47.2905 29.9998 47.2905C34.7745 47.2905 39.0972 45.3552 42.2261 42.2264C45.355 39.0975 47.2902 34.7748 47.2902 30.0001C47.2904 25.2253 45.355 20.9026 42.2261 17.7737Z" fill="#2B6CF5"/>
</svg>
