<svg width="60" height="60" viewBox="0 0 60 60" fill="none" xmlns="http://www.w3.org/2000/svg">
<path d="M46.875 18.75H24.375C23.3804 18.75 22.4266 19.1451 21.7234 19.8484C21.0201 20.5516 20.625 21.5054 20.625 22.5V37.5C20.625 38.4946 21.0201 39.4484 21.7234 40.1516C22.4266 40.8549 23.3804 41.25 24.375 41.25H26.25V45C26.2518 45.3702 26.3632 45.7315 26.5701 46.0385C26.777 46.3455 27.0701 46.5843 27.4125 46.725C27.635 46.83 27.879 46.8813 28.125 46.875C28.3718 46.8764 28.6164 46.8291 28.8448 46.7358C29.0733 46.6425 29.281 46.505 29.4563 46.3312L34.5187 41.25H46.875C47.8696 41.25 48.8234 40.8549 49.5266 40.1516C50.2299 39.4484 50.625 38.4946 50.625 37.5V22.5C50.625 21.5054 50.2299 20.5516 49.5266 19.8484C48.8234 19.1451 47.8696 18.75 46.875 18.75ZM39.375 31.875H37.5V33.75C37.5 34.2473 37.3025 34.7242 36.9508 35.0758C36.5992 35.4275 36.1223 35.625 35.625 35.625C35.1277 35.625 34.6508 35.4275 34.2992 35.0758C33.9475 34.7242 33.75 34.2473 33.75 33.75V31.875H31.875C31.3777 31.875 30.9008 31.6775 30.5492 31.3258C30.1975 30.9742 30 30.4973 30 30C30 29.5027 30.1975 29.0258 30.5492 28.6742C30.9008 28.3225 31.3777 28.125 31.875 28.125H33.75V26.25C33.75 25.7527 33.9475 25.2758 34.2992 24.9242C34.6508 24.5725 35.1277 24.375 35.625 24.375C36.1223 24.375 36.5992 24.5725 36.9508 24.9242C37.3025 25.2758 37.5 25.7527 37.5 26.25V28.125H39.375C39.8723 28.125 40.3492 28.3225 40.7008 28.6742C41.0525 29.0258 41.25 29.5027 41.25 30C41.25 30.4973 41.0525 30.9742 40.7008 31.3258C40.3492 31.6775 39.8723 31.875 39.375 31.875Z" fill="#2B6CF5"/>
<path d="M39.375 45C38.8777 45 38.4008 45.1975 38.0492 45.5492C37.6975 45.9008 37.5 46.3777 37.5 46.875V50.625C37.5 51.1223 37.3025 51.5992 36.9508 51.9508C36.5992 52.3025 36.1223 52.5 35.625 52.5H15C14.5027 52.5 14.0258 52.3025 13.6742 51.9508C13.3225 51.5992 13.125 51.1223 13.125 50.625V9.375C13.125 8.87772 13.3225 8.40081 13.6742 8.04918C14.0258 7.69754 14.5027 7.5 15 7.5H16.875C16.875 8.99184 17.4676 10.4226 18.5225 11.4775C19.5774 12.5324 21.0082 13.125 22.5 13.125H28.125C29.6168 13.125 31.0476 12.5324 32.1025 11.4775C33.1574 10.4226 33.75 8.99184 33.75 7.5H35.625C36.1223 7.5 36.5992 7.69754 36.9508 8.04918C37.3025 8.40081 37.5 8.87772 37.5 9.375V13.125C37.5 13.6223 37.6975 14.0992 38.0492 14.4508C38.4008 14.8025 38.8777 15 39.375 15C39.8723 15 40.3492 14.8025 40.7008 14.4508C41.0525 14.0992 41.25 13.6223 41.25 13.125V9.375C41.25 7.88316 40.6574 6.45242 39.6025 5.39752C38.5476 4.34263 37.1168 3.75 35.625 3.75H15C13.5082 3.75 12.0774 4.34263 11.0225 5.39752C9.96763 6.45242 9.375 7.88316 9.375 9.375V50.625C9.375 52.1168 9.96763 53.5476 11.0225 54.6025C12.0774 55.6574 13.5082 56.25 15 56.25H35.625C37.1168 56.25 38.5476 55.6574 39.6025 54.6025C40.6574 53.5476 41.25 52.1168 41.25 50.625V46.875C41.25 46.3777 41.0525 45.9008 40.7008 45.5492C40.3492 45.1975 39.8723 45 39.375 45Z" fill="#2B6CF5"/>
</svg>
