<svg width="198" height="40" viewBox="0 0 198 40" fill="none" xmlns="http://www.w3.org/2000/svg">
<path d="M39.9945 15.8569V24.1435C39.9945 25.6959 38.7351 26.962 37.176 26.962H26.9561V37.1756C26.9561 38.7343 25.6967 40 24.1376 40H15.8569C14.2982 40 13.0384 38.7343 13.0384 37.1756V26.962H2.81853C1.25981 26.962 0 25.6963 0 24.1435V15.8569C0 14.3041 1.25942 13.0384 2.81853 13.0384H13.0388V2.81853C13.0388 1.26611 14.2982 0 15.8573 0H24.138C25.6967 0 26.9565 1.26572 26.9565 2.81853V13.0384H37.1764C38.7347 13.0384 39.9945 14.3041 39.9945 15.8569Z" fill="#091331"/>
<path d="M35.7179 11.6884C38.4808 11.6884 40.7206 9.44863 40.7206 6.68576C40.7206 3.9229 38.4808 1.68317 35.7179 1.68317C32.9551 1.68317 30.7153 3.9229 30.7153 6.68576C30.7153 9.44863 32.9551 11.6884 35.7179 11.6884Z" fill="#204289"/>
<path d="M27.909 11.0819C17.6891 11.0819 13.0386 20.1431 13.0386 27.5327V33.5293C14.3768 24.561 22.2766 22.7289 28.3296 21.6085C35.1791 20.3401 36.9832 11.0819 27.909 11.0819Z" fill="#2B6CF5"/>
<path d="M58.4551 30.7493H50.7207V8.93109H58.519C60.7136 8.93109 62.6028 9.36788 64.1866 10.2415C65.7704 11.1079 66.9885 12.3544 67.8407 13.9808C68.7001 15.6072 69.1298 17.5533 69.1298 19.8189C69.1298 22.0916 68.7001 24.0447 67.8407 25.6783C66.9885 27.3118 65.7633 28.5653 64.1653 29.4389C62.5744 30.3125 60.671 30.7493 58.4551 30.7493ZM55.3336 26.7969H58.2633C59.627 26.7969 60.774 26.5554 61.7044 26.0724C62.6419 25.5824 63.345 24.826 63.8137 23.8033C64.2896 22.7734 64.5275 21.4453 64.5275 19.8189C64.5275 18.2067 64.2896 16.8892 63.8137 15.8665C63.345 14.8437 62.6454 14.0909 61.715 13.6079C60.7846 13.125 59.6376 12.8835 58.274 12.8835H55.3336V26.7969Z" fill="#091331"/>
<path d="M79.8551 31.0689C78.2003 31.0689 76.7692 30.7173 75.5618 30.0142C74.3615 29.304 73.4347 28.3167 72.7812 27.0525C72.1278 25.7812 71.8011 24.3075 71.8011 22.6314C71.8011 20.941 72.1278 19.4638 72.7812 18.1996C73.4347 16.9283 74.3615 15.941 75.5618 15.2379C76.7692 14.5277 78.2003 14.1726 79.8551 14.1726C81.5099 14.1726 82.9375 14.5277 84.1378 15.2379C85.3452 15.941 86.2756 16.9283 86.929 18.1996C87.5824 19.4638 87.9091 20.941 87.9091 22.6314C87.9091 24.3075 87.5824 25.7812 86.929 27.0525C86.2756 28.3167 85.3452 29.304 84.1378 30.0142C82.9375 30.7173 81.5099 31.0689 79.8551 31.0689ZM79.8764 27.5533C80.6293 27.5533 81.2578 27.3402 81.7621 26.914C82.2663 26.4808 82.6463 25.8913 82.902 25.1456C83.1648 24.3998 83.2962 23.5511 83.2962 22.5994C83.2962 21.6477 83.1648 20.799 82.902 20.0533C82.6463 19.3075 82.2663 18.718 81.7621 18.2848C81.2578 17.8515 80.6293 17.6349 79.8764 17.6349C79.1165 17.6349 78.4773 17.8515 77.9588 18.2848C77.4474 18.718 77.0604 19.3075 76.7976 20.0533C76.5419 20.799 76.4141 21.6477 76.4141 22.5994C76.4141 23.5511 76.5419 24.3998 76.7976 25.1456C77.0604 25.8913 77.4474 26.4808 77.9588 26.914C78.4773 27.3402 79.1165 27.5533 79.8764 27.5533Z" fill="#091331"/>
<path d="M98.2536 31.0689C96.5774 31.0689 95.1357 30.7138 93.9283 30.0035C92.728 29.2862 91.8047 28.2919 91.1584 27.0206C90.5192 25.7493 90.1996 24.2862 90.1996 22.6314C90.1996 20.9552 90.5227 19.4851 91.169 18.2209C91.8224 16.9496 92.7493 15.9588 93.9496 15.2486C95.1499 14.5312 96.5774 14.1726 98.2322 14.1726C99.6598 14.1726 100.91 14.4318 101.982 14.9503C103.055 15.4687 103.903 16.1967 104.528 17.1342C105.153 18.0717 105.498 19.1726 105.562 20.4368H101.279C101.158 19.62 100.839 18.9631 100.32 18.4659C99.8089 17.9616 99.1378 17.7095 98.3068 17.7095C97.6037 17.7095 96.9893 17.9013 96.4638 18.2848C95.9453 18.6612 95.5405 19.2116 95.2493 19.9361C94.9581 20.6605 94.8125 21.5376 94.8125 22.5675C94.8125 23.6115 94.9545 24.4993 95.2386 25.2308C95.5298 25.9623 95.9382 26.5199 96.4638 26.9034C96.9893 27.2869 97.6037 27.4787 98.3068 27.4787C98.8253 27.4787 99.2905 27.3721 99.7024 27.1591C100.121 26.946 100.466 26.6371 100.736 26.2322C101.013 25.8203 101.194 25.3267 101.279 24.7514H105.562C105.491 26.0014 105.15 27.1023 104.539 28.054C103.935 28.9986 103.101 29.7372 102.036 30.2699C100.97 30.8025 99.7095 31.0689 98.2536 31.0689Z" fill="#091331"/>
<path d="M117.171 14.3856V17.7947H107.317V14.3856H117.171ZM109.554 10.4652H114.093V25.7209C114.093 26.1399 114.156 26.4666 114.284 26.701C114.412 26.9283 114.59 27.0881 114.817 27.1804C115.051 27.2727 115.321 27.3189 115.627 27.3189C115.84 27.3189 116.053 27.3011 116.266 27.2656C116.479 27.223 116.642 27.191 116.756 27.1697L117.47 30.5469C117.242 30.6179 116.923 30.6996 116.511 30.7919C116.099 30.8913 115.598 30.9517 115.009 30.973C113.915 31.0156 112.956 30.87 112.132 30.5362C111.316 30.2024 110.68 29.6839 110.225 28.9808C109.771 28.2777 109.547 27.3899 109.554 26.3175V10.4652Z" fill="#091331"/>
<path d="M127.345 31.0689C125.691 31.0689 124.259 30.7173 123.052 30.0142C121.852 29.304 120.925 28.3167 120.271 27.0525C119.618 25.7812 119.291 24.3075 119.291 22.6314C119.291 20.941 119.618 19.4638 120.271 18.1996C120.925 16.9283 121.852 15.941 123.052 15.2379C124.259 14.5277 125.691 14.1726 127.345 14.1726C129 14.1726 130.428 14.5277 131.628 15.2379C132.835 15.941 133.766 16.9283 134.419 18.1996C135.073 19.4638 135.399 20.941 135.399 22.6314C135.399 24.3075 135.073 25.7812 134.419 27.0525C133.766 28.3167 132.835 29.304 131.628 30.0142C130.428 30.7173 129 31.0689 127.345 31.0689ZM127.367 27.5533C128.119 27.5533 128.748 27.3402 129.252 26.914C129.757 26.4808 130.137 25.8913 130.392 25.1456C130.655 24.3998 130.786 23.5511 130.786 22.5994C130.786 21.6477 130.655 20.799 130.392 20.0533C130.137 19.3075 129.757 18.718 129.252 18.2848C128.748 17.8515 128.119 17.6349 127.367 17.6349C126.607 17.6349 125.968 17.8515 125.449 18.2848C124.938 18.718 124.551 19.3075 124.288 20.0533C124.032 20.799 123.904 21.6477 123.904 22.5994C123.904 23.5511 124.032 24.3998 124.288 25.1456C124.551 25.8913 124.938 26.4808 125.449 26.914C125.968 27.3402 126.607 27.5533 127.367 27.5533Z" fill="#091331"/>
<path d="M138.35 30.7493V14.3856H142.75V17.2408H142.921C143.219 16.2251 143.72 15.4581 144.423 14.9396C145.126 14.414 145.936 14.1513 146.852 14.1513C147.079 14.1513 147.324 14.1655 147.587 14.1939C147.85 14.2223 148.08 14.2613 148.279 14.3111V18.3381C148.066 18.2741 147.771 18.2173 147.395 18.1676C147.019 18.1179 146.674 18.093 146.362 18.093C145.694 18.093 145.097 18.2386 144.572 18.5298C144.053 18.8139 143.642 19.2116 143.336 19.723C143.038 20.2344 142.889 20.8238 142.889 21.4915V30.7493H138.35Z" fill="#091331"/>
<path d="M150.711 30.7493V8.93109H159.319C160.974 8.93109 162.384 9.24714 163.548 9.87925C164.713 10.5042 165.601 11.3743 166.212 12.4893C166.83 13.5973 167.138 14.8757 167.138 16.3246C167.138 17.7734 166.826 19.0518 166.201 20.1598C165.576 21.2677 164.67 22.1307 163.484 22.7486C162.305 23.3665 160.878 23.6754 159.202 23.6754H153.715V19.9787H158.456C159.344 19.9787 160.075 19.826 160.651 19.5206C161.233 19.2081 161.666 18.7784 161.95 18.2315C162.241 17.6775 162.387 17.0419 162.387 16.3246C162.387 15.6001 162.241 14.968 161.95 14.4283C161.666 13.8814 161.233 13.4588 160.651 13.1605C160.068 12.8551 159.33 12.7024 158.435 12.7024H155.324V30.7493H150.711Z" fill="#2B6CF5"/>
<path d="M170.05 30.7493V14.3856H174.449V17.2408H174.62C174.918 16.2251 175.419 15.4581 176.122 14.9396C176.825 14.414 177.635 14.1513 178.551 14.1513C178.778 14.1513 179.023 14.1655 179.286 14.1939C179.549 14.2223 179.78 14.2613 179.979 14.3111V18.3381C179.765 18.2741 179.471 18.2173 179.094 18.1676C178.718 18.1179 178.373 18.093 178.061 18.093C177.393 18.093 176.797 18.2386 176.271 18.5298C175.753 18.8139 175.341 19.2116 175.035 19.723C174.737 20.2344 174.588 20.8238 174.588 21.4915V30.7493H170.05Z" fill="#091331"/>
<path d="M188.957 31.0689C187.302 31.0689 185.871 30.7173 184.663 30.0142C183.463 29.304 182.536 28.3167 181.883 27.0525C181.229 25.7812 180.903 24.3075 180.903 22.6314C180.903 20.941 181.229 19.4638 181.883 18.1996C182.536 16.9283 183.463 15.941 184.663 15.2379C185.871 14.5277 187.302 14.1726 188.957 14.1726C190.612 14.1726 192.039 14.5277 193.239 15.2379C194.447 15.941 195.377 16.9283 196.031 18.1996C196.684 19.4638 197.011 20.941 197.011 22.6314C197.011 24.3075 196.684 25.7812 196.031 27.0525C195.377 28.3167 194.447 29.304 193.239 30.0142C192.039 30.7173 190.612 31.0689 188.957 31.0689ZM188.978 27.5533C189.731 27.5533 190.359 27.3402 190.864 26.914C191.368 26.4808 191.748 25.8913 192.004 25.1456C192.266 24.3998 192.398 23.5511 192.398 22.5994C192.398 21.6477 192.266 20.799 192.004 20.0533C191.748 19.3075 191.368 18.718 190.864 18.2848C190.359 17.8515 189.731 17.6349 188.978 17.6349C188.218 17.6349 187.579 17.8515 187.06 18.2848C186.549 18.718 186.162 19.3075 185.899 20.0533C185.643 20.799 185.516 21.6477 185.516 22.5994C185.516 23.5511 185.643 24.3998 185.899 25.1456C186.162 25.8913 186.549 26.4808 187.06 26.914C187.579 27.3402 188.218 27.5533 188.978 27.5533Z" fill="#091331"/>
</svg>
