<?xml version="1.0" encoding="utf-8"?>
<!-- Generator: Adobe Illustrator 26.0.1, SVG Export Plug-In . SVG Version: 6.00 Build 0)  -->
<svg version="1.1" id="Layer_1" xmlns="http://www.w3.org/2000/svg" xmlns:xlink="http://www.w3.org/1999/xlink" x="0px" y="0px"
	 viewBox="0 0 121.5 41" style="enable-background:new 0 0 121.5 41;" xml:space="preserve">
<g>
	<g>
		<path d="M6.8,5.4h6.3V8h-0.6L6.8,7.3V5.4z M6.8,35.6l5-0.7h1l4.7,0.7v1.9H6.8V35.6z M11.1,5.4h2l0.4,14.3v17.9h-2.4V5.4z
			 M11.2,5.4h4.3l11.8,28.8h-1.6L36.7,5.4h2.5L26.7,37.5h-2.4L11.2,5.4z M33,35.6l5.8-0.7h1l6.2,0.7v1.9H33V35.6z M37.2,22.6V5.4
			h4.4c-0.1,4.8-0.1,9.8-0.1,14.9v2.4c0,4.9,0,9.9,0.1,14.9h-4.5C37.2,32.7,37.2,27.7,37.2,22.6z M39.3,5.4H46v1.9L39.8,8h-0.5V5.4z
			"/>
		<path d="M53.5,28.1c0,3.5,2.6,7,7.3,7c3.4,0,6.7-1.5,8.4-3.9l1.4,1.2c-2,3.1-5.4,5.8-11,5.8c-6,0-10.2-3.9-10.2-8.8
			c0-4.7,3-8.2,8.6-10.6l1,1.4C54.6,22.2,53.5,25.5,53.5,28.1z M56.5,19.1c-2.4-2.7-3.3-5.2-3.3-7.7c0-4.2,3.3-6.8,7.8-6.8
			c4.7,0,7.2,2.5,7.2,6.1c0,3.6-2.5,6-8.3,9l-0.8-1.3c3.5-2.2,6-4.5,6-7.5c0-2.8-1.8-4.6-4.2-4.6c-2.4,0-4.4,1.9-4.4,4.5
			c0,1.7,0.4,3.2,2.2,5.5c1.9,2.3,3.3,3.8,6.3,7.1c3.8,4.1,6.7,7.2,11.7,12.6l-2.4-1.1l6.2,0.8l-0.2,2c-1.4,0.3-2.4,0.5-3.6,0.5
			c-2.5,0-4-0.6-5.5-2.2c-3.2-3.5-5.5-6.2-8-9C60.4,23.6,58.8,21.7,56.5,19.1z M74.9,18.4h2.2c-1.2,5.6-3.3,9.8-6.2,13.8l-1.5-1
			C72,27.5,73.8,23.5,74.9,18.4z M75.4,19.6l-4.6-0.7v-1.9h9.7v1.9l-4.2,0.7H75.4z"/>
		<path d="M114.4,21.4c0,10.5-7.2,16.8-14.6,16.8S85,32.4,85,21.4c0-10.5,7.3-16.8,14.7-16.8S114.4,10.5,114.4,21.4z M99.7,35.8
			c6.8,0,9.6-7.2,9.6-14.4c0-7.2-2.8-14.4-9.6-14.4s-9.6,7.2-9.6,14.4C90.1,28.6,92.9,35.8,99.7,35.8z"/>
	</g>
</g>
</svg>
