<svg width="36" height="36" viewBox="0 0 36 36" fill="none" xmlns="http://www.w3.org/2000/svg">
<path d="M3.51973 0.112499C2.99941 0.253124 2.52129 0.527344 2.13457 0.907032C1.71973 1.30781 1.52285 1.62422 1.31895 2.19375L1.15723 2.63672V16.8398V31.043L1.31895 31.4859C1.70566 32.5688 2.49316 33.293 3.54785 33.5742C3.91348 33.6656 5.19316 33.6797 13.8627 33.6797H23.7627L23.7486 31.275L23.7275 28.8633L23.2002 28.582C20.9572 27.3797 19.326 25.4109 18.5947 23.0414L18.4049 22.4297H11.8869C5.82598 22.4297 5.36191 22.4227 5.12988 22.3031C4.37754 21.9305 4.37754 20.8195 5.12988 20.4469C5.36191 20.3273 5.82598 20.3203 11.7955 20.3203H18.208V19.7719C18.208 19.4766 18.2713 18.9352 18.3416 18.5766L18.4682 17.9297H11.9221C5.83301 17.9297 5.36191 17.9227 5.12988 17.8031C4.37754 17.4305 4.37754 16.3195 5.12988 15.9469C5.36191 15.8273 5.8541 15.8203 12.3369 15.8203H19.2979L19.6072 15.3141C20.0221 14.6461 20.8307 13.6898 21.3791 13.2258C23.0877 11.7844 25.0072 11.025 27.1939 10.9195L28.0518 10.8773V9.9V8.92969H24.0299C19.5369 8.92969 19.6846 8.94375 19.3541 8.44453L19.1924 8.20547V4.10625V0L11.5494 0.00703049C5.09473 0.00703049 3.84316 0.0281258 3.51973 0.112499ZM15.0439 4.69688C15.1775 4.76016 15.3604 4.92188 15.4447 5.05547L15.6064 5.29453V9V12.7055L15.4447 12.9445C15.1072 13.4508 15.3393 13.4297 10.0869 13.4297C4.83457 13.4297 5.0666 13.4508 4.7291 12.9445L4.56738 12.7055V9V5.29453L4.7291 5.05547C5.0666 4.54922 4.83457 4.57031 10.0869 4.57031C14.4322 4.57031 14.8189 4.57734 15.0439 4.69688ZM13.3564 24.9469C14.1088 25.3195 14.1088 26.4305 13.3564 26.8031C13.1314 26.9156 12.7869 26.9297 9.24316 26.9297C5.69941 26.9297 5.35488 26.9156 5.12988 26.8031C4.37754 26.4305 4.37754 25.3195 5.12988 24.9469C5.35488 24.8344 5.69941 24.8203 9.24316 24.8203C12.7869 24.8203 13.1314 24.8344 13.3564 24.9469Z" fill="white"/>
<path d="M6.60938 9V11.3203H10.0898H13.5703V9V6.67969H10.0898H6.60938V9Z" fill="white"/>
<path d="M21.2344 3.76172V6.82031H24.307H27.3867L26.5781 5.99063C24.532 3.90234 21.3328 0.703125 21.2906 0.703125C21.2555 0.703125 21.2344 2.08125 21.2344 3.76172Z" fill="white"/>
<path d="M26.4668 13.0852C25.4332 13.2329 24.0621 13.8165 23.1832 14.4774C22.1285 15.279 21.2215 16.4883 20.7645 17.7048C20.434 18.5977 20.3145 19.2657 20.3145 20.2852C20.3145 21.3048 20.434 21.9727 20.7645 22.8657C21.2145 24.068 22.1074 25.2704 23.141 26.0579C24.034 26.7469 25.2504 27.2743 26.3965 27.4571C29.7855 28.0126 33.1465 26.0649 34.3488 22.8657C34.6793 21.9727 34.7988 21.3048 34.7988 20.2852C34.7988 18.8719 34.4754 17.6907 33.7723 16.5165C33.3785 15.8555 32.5277 14.9204 31.8949 14.4423C30.4113 13.3313 28.3582 12.818 26.4668 13.0852Z" fill="white"/>
<path d="M25.7988 31.8305C25.7988 33.0961 25.834 34.3266 25.8691 34.5586C25.9535 35.0859 26.2137 35.4656 26.6777 35.7539C26.973 35.9367 27.0855 35.9648 27.5215 35.9648C27.9574 35.9648 28.0699 35.9367 28.3652 35.7539C28.8293 35.4656 29.0895 35.0859 29.1738 34.5586C29.209 34.3266 29.2441 33.1031 29.2441 31.8375V29.5313L28.8082 29.5875C28.2316 29.6508 26.8746 29.6508 26.277 29.5805L25.7988 29.5242V31.8305Z" fill="white"/>
</svg>
