<svg width="112" height="30" viewBox="0 0 112 30" fill="none" xmlns="http://www.w3.org/2000/svg">
<path d="M36.0005 24.2813L42.9726 5.42383H46.1073L53.0253 24.2813H49.9988L48.3774 19.6746H40.6486L39.0272 24.2813H36.0005ZM41.4592 17.4118H47.5666L44.513 8.81815L41.4592 17.4118Z" fill="#404040"/>
<path d="M53.3933 24.2808V10.919H55.9336L56.1496 13.2627C56.5639 12.4365 57.1674 11.79 57.9602 11.3231C58.7711 10.8382 59.6987 10.5957 60.7436 10.5957C62.365 10.5957 63.6353 11.0986 64.5542 12.1043C65.4907 13.11 65.9592 14.6097 65.9592 16.6031V24.2808H63.1217V16.8995C63.1217 14.3133 62.0587 13.0202 59.9331 13.0202C58.8701 13.0202 57.9873 13.3974 57.2848 14.1517C56.6 14.906 56.2579 15.9836 56.2579 17.3844V24.2808H53.3933Z" fill="#404040"/>
<path d="M67.1711 24.281V4.88477H70.0357V16.4417L75.1701 10.9191H78.6021L72.9003 16.9805L79.4401 24.281H75.8188L70.0357 17.4384V24.281H67.1711Z" fill="#404040"/>
<path d="M83.7471 24.6041C82.6122 24.6041 81.6753 24.4155 80.9366 24.0384C80.198 23.6612 79.6486 23.1673 79.2882 22.5567C78.928 21.9281 78.7478 21.2457 78.7478 20.5093C78.7478 19.2162 79.2524 18.1925 80.2612 17.4382C81.27 16.6839 82.7112 16.3068 84.585 16.3068H88.098V16.0644C88.098 15.0227 87.8098 14.2415 87.2333 13.7207C86.6749 13.1998 85.9449 12.9394 85.0445 12.9394C84.2517 12.9394 83.5582 13.137 82.9636 13.5321C82.3868 13.9092 82.0357 14.475 81.9097 15.2293H79.0451C79.135 14.2594 79.4594 13.4333 80.0178 12.7508C80.5946 12.0504 81.3152 11.5206 82.1799 11.1614C83.0626 10.7843 84.0263 10.5957 85.0712 10.5957C86.9451 10.5957 88.3953 11.0896 89.4221 12.0774C90.449 13.0472 90.9626 14.3762 90.9626 16.0644V24.2808H88.4762L88.2331 21.991C87.8549 22.7273 87.3052 23.3469 86.5846 23.8498C85.864 24.3527 84.9181 24.6041 83.7471 24.6041ZM84.3145 22.2873C85.0893 22.2873 85.738 22.1077 86.2603 21.7485C86.8009 21.3714 87.2152 20.8775 87.5035 20.2669C87.8098 19.6562 87.999 18.9828 88.0709 18.2464H84.8823C83.7471 18.2464 82.9365 18.444 82.45 18.8391C81.9816 19.2342 81.7475 19.7281 81.7475 20.3208C81.7475 20.9314 81.9725 21.4163 82.4229 21.7755C82.8914 22.1167 83.522 22.2873 84.3145 22.2873Z" fill="#404040"/>
<path d="M92.1406 24.2808V10.919H94.708L94.9511 13.4513C95.4195 12.5712 96.0679 11.8798 96.8968 11.3769C97.7435 10.8561 98.7613 10.5957 99.9503 10.5957V13.586H99.1666C98.3741 13.586 97.6625 13.7207 97.0319 13.99C96.4193 14.2415 95.9238 14.6815 95.5456 15.3101C95.1851 15.9207 95.0052 16.7737 95.0052 17.8693V24.2808H92.1406Z" fill="#404040"/>
<path d="M104.785 24.6041C103.65 24.6041 102.713 24.4155 101.974 24.0384C101.235 23.6612 100.686 23.1673 100.326 22.5567C99.9655 21.9281 99.7852 21.2457 99.7852 20.5093C99.7852 19.2162 100.289 18.1925 101.299 17.4382C102.307 16.6839 103.749 16.3068 105.622 16.3068H109.135V16.0644C109.135 15.0227 108.847 14.2415 108.271 13.7207C107.712 13.1998 106.982 12.9394 106.082 12.9394C105.289 12.9394 104.595 13.137 104.001 13.5321C103.424 13.9092 103.073 14.475 102.947 15.2293H100.083C100.172 14.2594 100.497 13.4333 101.055 12.7508C101.632 12.0504 102.353 11.5206 103.217 11.1614C104.1 10.7843 105.064 10.5957 106.109 10.5957C107.983 10.5957 109.433 11.0896 110.46 12.0774C111.486 13.0472 112 14.3762 112 16.0644V24.2808H109.514L109.271 21.991C108.892 22.7273 108.343 23.3469 107.622 23.8498C106.901 24.3527 105.956 24.6041 104.785 24.6041ZM105.352 22.2873C106.127 22.2873 106.775 22.1077 107.298 21.7485C107.838 21.3714 108.253 20.8775 108.541 20.2669C108.847 19.6562 109.036 18.9828 109.108 18.2464H105.92C104.785 18.2464 103.974 18.444 103.487 18.8391C103.019 19.2342 102.785 19.7281 102.785 20.3208C102.785 20.9314 103.01 21.4163 103.46 21.7755C103.929 22.1167 104.559 22.2873 105.352 22.2873Z" fill="#404040"/>
<path fill-rule="evenodd" clip-rule="evenodd" d="M20.7717 16.042H18.4319L11.792 28.0237L12.9619 30.0004H27.8352L29.1718 28.668V22.1056H26.4986V27.3356H15.2273L19.6018 19.4417L22.2553 24.23L24.5952 22.9414L20.7717 16.042Z" fill="#404040"/>
<path fill-rule="evenodd" clip-rule="evenodd" d="M0 1.33241L1.33659 0H27.8545L29.1911 1.33241V13.7104H26.5179V2.66482H2.67318V27.2878H8.8818V29.9526H1.33659L0 28.6202V1.33241Z" fill="#404040"/>
<path fill-rule="evenodd" clip-rule="evenodd" d="M26.5188 19.912V15.9248H29.192V19.912H26.5188Z" fill="#404040"/>
</svg>
