<svg width="36" height="36" viewBox="0 0 36 36" fill="none" xmlns="http://www.w3.org/2000/svg">
<g clip-path="url(#clip0_695_107)">
<path d="M33.7277 16.4625L18.0002 25.9005L2.27274 16.4625C1.93161 16.2579 1.52314 16.1971 1.13719 16.2936C0.751237 16.3901 0.419424 16.6359 0.214743 16.977C0.0100626 17.3182 -0.0507198 17.7267 0.0457677 18.1126C0.142255 18.4986 0.388109 18.8304 0.729244 19.035L17.2292 28.935C17.4625 29.0752 17.7296 29.1493 18.0017 29.1493C18.2739 29.1493 18.5409 29.0752 18.7742 28.935L35.2742 19.035C35.6154 18.8304 35.8612 18.4986 35.9577 18.1126C36.0542 17.7267 35.9934 17.3182 35.7887 16.977C35.5841 16.6359 35.2523 16.3901 34.8663 16.2936C34.4804 16.1971 34.0719 16.2579 33.7307 16.4625H33.7277Z" fill="white"/>
<path d="M33.7277 23.3145L18.0002 32.751L2.27274 23.3145C2.10383 23.2131 1.91661 23.146 1.72177 23.117C1.52693 23.0881 1.32829 23.0977 1.13718 23.1455C0.94608 23.1933 0.766258 23.2782 0.607985 23.3955C0.449712 23.5128 0.316087 23.6601 0.214739 23.829C0.113391 23.9979 0.0463059 24.1851 0.017313 24.3799C-0.0116799 24.5748 -0.00201252 24.7734 0.0457632 24.9645C0.142251 25.3505 0.388104 25.6823 0.729239 25.887L17.2292 35.787C17.4625 35.9271 17.7296 36.0012 18.0017 36.0012C18.2739 36.0012 18.5409 35.9271 18.7742 35.787L35.2742 25.887C35.6154 25.6823 35.8612 25.3505 35.9577 24.9645C36.0542 24.5786 35.9934 24.1701 35.7887 23.829C35.5841 23.4878 35.2522 23.242 34.8663 23.1455C34.4803 23.049 34.0719 23.1098 33.7307 23.3145H33.7277Z" fill="white"/>
<path d="M0.727025 12.5355L15.703 21.522C16.3964 21.9391 17.1903 22.1595 17.9995 22.1595C18.8087 22.1595 19.6026 21.9391 20.296 21.522L35.272 12.5355C35.4938 12.4021 35.6773 12.2136 35.8047 11.9884C35.9321 11.7631 35.9991 11.5087 35.9991 11.25C35.9991 10.9912 35.9321 10.7368 35.8047 10.5115C35.6773 10.2863 35.4938 10.0978 35.272 9.96446L20.296 0.977961C19.6025 0.561305 18.8086 0.341187 17.9995 0.341187C17.1904 0.341187 16.3966 0.561305 15.703 0.977961L0.727025 9.96446C0.505247 10.0978 0.321742 10.2863 0.194347 10.5115C0.0669514 10.7368 0 10.9912 0 11.25C0 11.5087 0.0669514 11.7631 0.194347 11.9884C0.321742 12.2136 0.505247 12.4021 0.727025 12.5355Z" fill="white"/>
</g>
<defs>
<clipPath id="clip0_695_107">
<rect width="36" height="36" fill="white"/>
</clipPath>
</defs>
</svg>
