<svg width="60" height="60" viewBox="0 0 60 60" fill="none" xmlns="http://www.w3.org/2000/svg">
<path d="M59.1302 42.6494H55.6739C53.4505 42.6494 51.3261 43.7688 50.1043 45.4479V23.0598C50.1043 22.724 49.7741 22.3882 49.4329 22.3882H41.7499C41.4196 22.3882 41.0784 22.724 41.0784 23.0598V28.321C39.6365 28.7688 38.5138 29.6643 37.6222 30.7837V6.26878C37.6222 5.93296 37.292 5.59717 36.9508 5.59717H29.2677C28.9375 5.59717 28.5963 5.93296 28.5963 6.26878V30.7837C27.7048 29.6643 26.4829 28.7688 25.1401 28.321V6.26878C25.1401 5.93296 24.8099 5.59717 24.4686 5.59717H16.7856C16.4554 5.59717 16.1142 5.93296 16.1142 6.26878V17.4628C14.4411 14.8882 11.5462 13.0972 8.32114 13.0972H3.6431C3.31289 13.0972 2.97168 13.433 2.97168 13.7688C2.97168 18.9181 7.08835 23.0598 12.2177 23.0598H16.2243V41.3061C15.0025 39.627 12.8781 38.5076 10.6547 38.5076H7.19842C6.86821 38.5076 6.52697 38.8435 6.52697 39.1793C6.52697 42.9852 9.64201 46.2315 13.4285 46.2315H16.2133V56.7539C16.2133 57.0897 16.5435 57.4255 16.8847 57.4255H24.5677C24.8979 57.4255 25.2391 57.0897 25.2391 56.7539V35.7091C25.8005 35.8211 26.0207 35.7091 28.6954 35.7091V56.7539C28.6954 57.0897 29.0256 57.4255 29.3668 57.4255H37.0498C37.38 57.4255 37.7213 57.0897 37.7213 56.7539V35.7091H41.1775V56.7539C41.1775 57.0897 41.5077 57.4255 41.849 57.4255H49.5319C49.8621 57.4255 50.2034 57.0897 50.2034 56.7539V50.4852H52.9882C56.7746 50.4852 59.9997 47.3509 59.9997 43.433C59.7796 42.8733 59.4384 42.6494 59.1082 42.6494H59.1302ZM11.9205 21.6046C7.80382 21.6046 4.45763 18.4703 4.12742 14.4404H8.13404C12.2507 14.4404 15.5969 17.5748 15.9271 21.6046H11.9205ZM13.1423 44.6643C10.3575 44.6643 7.91388 42.5375 7.57266 39.739H10.3575C13.1423 39.739 15.5859 41.8658 15.9271 44.6643H13.1423ZM17.369 6.94043H23.5991V13.9927H19.3723C19.0421 13.9927 18.7009 14.3285 18.7009 14.6643C18.7009 15.0001 19.0311 15.336 19.3723 15.336H23.5991V22.3882H17.369V6.94043ZM23.5991 55.8584H17.369V53.7315H20.1538C20.484 53.7315 20.8253 53.3957 20.8253 53.0599C20.8253 52.724 20.4951 52.3882 20.1538 52.3882H17.369V40.5225H23.5991V55.8584ZM23.5991 39.0673H17.369V23.7315H23.5991V27.9852C23.0377 27.8733 22.8176 27.9852 19.3723 27.9852C19.0421 27.9852 18.7009 28.321 18.7009 28.6569C18.7009 31.7912 20.7042 34.4778 23.5991 35.3733V39.0673ZM25.7125 34.2539C25.2722 34.2539 24.8209 34.2539 24.4907 34.142C22.2672 33.5823 20.4841 31.6793 20.2639 29.4404H23.0487C25.8335 29.4404 28.2771 31.5673 28.6183 34.3658L25.7234 34.2539H25.7125ZM29.8291 6.94043H36.0592V9.06729H32.6029C32.2727 9.06729 31.9315 9.40312 31.9315 9.73894C31.9315 10.0748 32.2617 10.4106 32.6029 10.4106H36.0592V22.2763H29.8291V6.94043ZM29.8291 23.7315H36.0592V39.1793H29.8291V23.7315ZM36.0592 55.8584H29.8291V40.5225H36.0592V55.8584ZM37.5121 34.2539C37.8423 31.4554 40.2969 29.3285 43.0817 29.3285H45.8666C45.5363 32.127 43.1918 34.2539 40.2969 34.2539H37.5121ZM47.1984 28.6569C47.1984 28.321 46.8682 27.9852 46.527 27.9852H42.3002V23.7315H48.5303V39.1793H42.3002V35.3733C45.1951 34.3658 47.1984 31.6792 47.1984 28.6569ZM48.6403 55.8584H45.1841V50.2614C45.1841 49.9255 44.8539 49.5897 44.5127 49.5897C44.1714 49.5897 43.8412 49.9255 43.8412 50.2614V55.8584H42.3883V40.5225H48.6293V55.8584H48.6403ZM52.757 48.9181H49.9722C50.3024 46.1196 52.6469 43.9927 55.5418 43.9927H58.3267C57.9964 46.7912 55.6519 48.9181 52.757 48.9181Z" fill="black"/>
<path d="M5.45965 51.7164C3.56642 51.7164 2.00342 53.2836 2.00342 55.1866C2.00342 57.0896 3.56642 58.6567 5.45965 58.6567C7.35288 58.6567 8.91591 57.0896 8.91591 55.1866C9.02598 53.2836 7.46295 51.7164 5.45965 51.7164ZM5.45965 57.3134C4.34792 57.3134 3.34629 56.4179 3.34629 55.1866C3.34629 53.9552 4.23785 53.0597 5.45965 53.0597C6.68144 53.0597 7.57303 53.9552 7.57303 55.1866C7.57303 56.4179 6.68144 57.3134 5.45965 57.3134Z" fill="black"/>
<path d="M54.2322 14.6642C56.9069 14.6642 59.1303 12.4254 59.1303 9.73885C59.1303 7.05228 56.9069 4.81348 54.2322 4.81348C51.5574 4.81348 49.334 7.05228 49.334 9.73885C49.334 12.4254 51.5574 14.6642 54.2322 14.6642ZM54.2322 6.26869C56.1254 6.26869 57.6884 7.83586 57.6884 9.73885C57.6884 11.6418 56.1254 13.209 54.2322 13.209C52.339 13.209 50.7759 11.6418 50.7759 9.73885C50.7759 7.83586 52.339 6.26869 54.2322 6.26869Z" fill="black"/>
<path d="M51.7775 0C52.3279 0 52.7792 0.447755 52.7792 1.00746C52.7792 1.56716 52.3279 2.01491 51.7775 2.01491C51.2272 2.01491 50.7759 1.56716 50.7759 1.00746C50.7759 0.447755 51.2272 0 51.7775 0Z" fill="black"/>
<path d="M42.7629 9.73877C43.3132 9.73877 43.7645 10.1865 43.7645 10.7462C43.7645 11.3059 43.3132 11.7537 42.7629 11.7537C42.2125 11.7537 41.7612 11.3059 41.7612 10.7462C41.7612 10.1865 42.2125 9.73877 42.7629 9.73877Z" fill="black"/>
<path d="M56.676 27.9851C57.2263 27.9851 57.6776 28.4329 57.6776 28.9926C57.6776 29.5523 57.2263 30 56.676 30C56.1256 30 55.6743 29.5523 55.6743 28.9926C55.6743 28.4329 56.1256 27.9851 56.676 27.9851Z" fill="black"/>
<path d="M53.8913 55.1865C54.4416 55.1865 54.8929 55.6343 54.8929 56.194C54.8929 56.7537 54.4416 57.2014 53.8913 57.2014C53.3409 57.2014 52.8896 56.7537 52.8896 56.194C52.8896 55.6343 53.3409 55.1865 53.8913 55.1865Z" fill="black"/>
<path d="M13.4728 57.9852C14.0232 57.9852 14.4745 58.433 14.4745 58.9927C14.4745 59.5524 14.0232 60.0001 13.4728 60.0001C12.9225 60.0001 12.4712 59.5524 12.4712 58.9927C12.4712 58.433 12.9225 57.9852 13.4728 57.9852Z" fill="black"/>
<path d="M1.00165 36.3807C1.55201 36.3807 2.00331 36.8285 2.00331 37.3882C2.00331 37.9479 1.55201 38.3956 1.00165 38.3956C0.451297 38.3956 0 37.9479 0 37.3882C0 36.8285 0.451297 36.3807 1.00165 36.3807Z" fill="black"/>
<path d="M10.0275 25.8584C10.5779 25.8584 11.0292 26.3062 11.0292 26.8659C11.0292 27.4256 10.5779 27.8733 10.0275 27.8733C9.47718 27.8733 9.02588 27.4256 9.02588 26.8659C9.02588 26.3062 9.47718 25.8584 10.0275 25.8584Z" fill="black"/>
<path d="M7.91425 5.59717C8.46461 5.59717 8.91591 6.04492 8.91591 6.60462C8.91591 7.16433 8.46461 7.61208 7.91425 7.61208C7.36389 7.61208 6.9126 7.16433 6.9126 6.60462C6.9126 6.04492 7.36389 5.59717 7.91425 5.59717Z" fill="black"/>
</svg>
