<svg width="60" height="58" viewBox="0 0 60 58" fill="none" xmlns="http://www.w3.org/2000/svg">
<path d="M55.8589 32.3695V29.0553C55.8589 26.6248 53.849 24.7467 51.5077 24.7467C52.4023 22.979 51.5077 20.659 49.6082 19.9962C50.5028 17.7867 49.1665 15.3562 46.8142 15.1352C47.1455 12.8152 45.1356 10.8267 42.7943 11.1581C42.6839 10.0533 42.0102 9.05902 41.0053 8.50663C40.0003 7.95425 38.8849 7.84376 37.8799 8.28567C37.4382 7.29138 36.6541 6.51809 35.5387 6.18666C34.4233 5.85523 33.3078 6.18663 32.4133 6.84949C30.9666 4.97139 28.1726 4.97139 26.7148 6.84949C25.8203 6.18663 24.7049 5.96571 23.5895 6.18666C22.4741 6.51809 21.5795 7.29138 21.2482 8.28567C20.2432 7.84376 19.0174 7.95425 18.1229 8.50663C17.1179 9.05902 16.4442 10.0533 16.3338 11.1581C13.9926 10.8267 11.9716 12.8152 12.3139 15.1352C11.1985 15.2457 10.1935 15.9086 9.63032 16.9029C9.0671 17.8972 8.95666 19.0019 9.40945 19.9962C7.50995 20.7695 6.61541 22.979 7.50995 24.7467H7.17864C4.71591 24.7467 2.81641 26.7353 2.81641 29.0553V32.3695C2.81641 40.5448 6.05219 47.5048 11.8611 52.0343V54.7962C11.8611 56.5638 13.3189 58 15.0969 58H43.468C45.257 58 46.7038 56.5638 46.7038 54.7962V52.1448C52.6231 47.2838 55.8589 40.1029 55.8589 32.3695ZM8.49283 22.7581C8.7137 21.8743 9.4978 21.2114 10.3923 21.2114C10.6132 21.2114 10.8341 20.9905 10.9556 20.7695C11.066 20.5486 10.9556 20.2171 10.8451 20.1066C10.2819 19.4438 10.1715 18.4495 10.6242 17.6761C11.066 16.9028 11.9605 16.4609 12.8551 16.6819C13.4183 16.7924 13.86 16.24 13.6392 15.6876C13.1974 14.9143 13.4183 13.92 14.0809 13.2571C14.7546 12.5942 15.7595 12.4838 16.5436 12.8152C16.7645 12.9257 17.1069 12.9257 17.3277 12.7047C17.5486 12.4838 17.659 12.2628 17.5486 12.0419C17.3277 11.1581 17.7695 10.2743 18.5536 9.83236C19.3377 9.39046 20.3426 9.50095 21.0163 10.0533C21.2372 10.2743 21.458 10.2743 21.69 10.1638C21.9108 10.0533 22.1317 9.83235 22.1317 9.6114C22.2421 8.72759 22.8054 7.95424 23.6999 7.73329C24.5944 7.51233 25.489 7.84382 26.0411 8.61715C26.1516 8.8381 26.4829 8.94857 26.7148 8.94857C26.9467 8.94857 27.1566 8.72759 27.278 8.50663C27.6093 7.62282 28.3934 7.07046 29.288 7.07046C30.1825 7.07046 30.9666 7.62282 31.2979 8.50663C31.4083 8.72759 31.6292 8.94857 31.8611 8.94857C32.093 8.94857 32.4244 8.8381 32.5348 8.61715C33.098 7.84382 33.9926 7.51233 34.876 7.73329C35.7706 7.95424 36.4442 8.72759 36.4442 9.6114C36.4442 10.1638 37.1179 10.4952 37.5596 10.0533C38.2333 9.50095 39.2383 9.39046 40.0224 9.83236C40.8065 10.2743 41.2482 11.1581 41.0273 12.0419C41.0273 12.2628 41.0273 12.5942 41.2482 12.7047C41.4691 12.8152 41.69 12.9257 42.0323 12.8152C42.8164 12.3733 43.8214 12.5942 44.495 13.2571C45.1687 13.92 45.2791 14.9143 44.9368 15.6876C44.8263 15.9085 44.8263 16.24 45.0472 16.4609C45.1577 16.6819 45.489 16.7924 45.7209 16.6819C46.6154 16.4609 47.5099 16.9028 47.9517 17.6761C48.3934 18.4495 48.283 19.4438 47.7308 20.1066C47.5099 20.3276 47.5099 20.5486 47.6204 20.7695C47.7308 20.9905 47.9517 21.2114 48.1836 21.2114C49.0781 21.3219 49.8622 21.8743 50.0831 22.7581C50.304 23.5314 50.0831 24.3047 49.5199 24.8571H9.05605C8.49283 24.3047 8.27196 23.5314 8.49283 22.7581ZM4.1306 29.1657C4.1306 27.5086 5.46688 26.1828 7.14551 26.1828H51.4967C53.1753 26.1828 54.5116 27.5086 54.5116 29.1657V30.3809H4.25208V29.1657H4.14164H4.1306ZM4.1306 32.3695V31.7066H10.3923C10.2819 38.3352 11.7286 45.7371 15.9804 51.04H12.7446C7.15655 46.7314 4.14164 40.1029 4.14164 32.3695H4.1306ZM45.0141 54.7962C45.0141 55.7905 44.23 56.5638 43.225 56.5638H14.9644C13.9594 56.5638 13.1753 55.7905 13.1753 54.7962V52.4762H45.1245V54.7962H45.0141ZM45.5773 51.04H42.452C44.7932 48.1676 46.4719 44.4115 47.3664 40.1029C47.4768 39.7715 47.2559 39.3295 46.8032 39.3295C46.4718 39.2191 46.0191 39.44 46.0191 39.8819C45.0141 44.301 43.225 48.1676 40.6519 51.04H17.7474C13.1643 45.9581 11.6071 38.4457 11.7176 31.7066H54.3901V32.3695C54.3901 39.9924 51.2648 46.6209 45.5663 51.04H45.5773Z" fill="black"/>
<path d="M38.7634 36.7886C35.0749 35.9048 31.2759 37.6724 29.4868 40.9867C27.8082 37.6724 24.0092 35.9048 20.2102 36.7886C19.9893 36.8991 19.7684 37.0096 19.6469 37.341C18.1892 43.1962 23.4459 48.4991 29.4758 47.2839C35.3951 48.6096 40.7623 43.3067 39.3046 37.341C39.1942 37.0096 38.9733 36.8991 38.7414 36.7886H38.7634ZM20.8838 38.0038C24.462 37.341 27.8082 39.5505 28.7027 42.9753C28.5923 43.5276 28.4818 44.08 28.4818 44.6324L24.9037 41.0971C24.6828 40.8762 24.23 40.8762 23.8987 41.0971C23.6779 41.3181 23.6779 41.76 23.8987 42.0915L27.9186 46.0686C23.5564 46.1791 20.0997 42.3124 20.8838 38.0038ZM30.9335 45.9581L34.5117 42.4229C34.7325 42.2019 34.7325 41.76 34.5117 41.4286C34.2908 41.2076 33.838 41.2076 33.5067 41.4286L29.9285 44.9638C29.7077 40.6552 33.6171 37.2305 37.9683 38.0038C38.7524 42.3124 35.2847 46.1791 30.9335 45.9581Z" fill="black"/>
<path d="M54.0697 50.3774C52.2806 50.3774 50.9443 51.8136 50.9443 53.4708C50.9443 55.1279 52.3911 56.5641 54.0697 56.5641C55.7483 56.5641 57.195 55.1279 57.195 53.4708C57.195 51.8136 55.7373 50.3774 54.0697 50.3774ZM54.0697 55.2384C53.0647 55.2384 52.2806 54.465 52.2806 53.4708C52.2806 52.4765 53.0647 51.7032 54.0697 51.7032C55.0747 51.7032 55.8587 52.4765 55.8587 53.4708C55.8587 54.465 54.9642 55.2384 54.0697 55.2384Z" fill="black"/>
<path d="M4.47274 49.7144C5.02492 49.7144 5.47771 50.1561 5.47771 50.7083C5.47771 51.2605 5.02492 51.7023 4.47274 51.7023C3.92056 51.7023 3.46777 51.2605 3.46777 50.7083C3.46777 50.1561 3.92056 49.7144 4.47274 49.7144Z" fill="black"/>
<path d="M58.211 44.8534C58.7632 44.8534 59.216 45.2951 59.216 45.8473C59.216 46.3995 58.7632 46.8412 58.211 46.8412C57.6588 46.8412 57.2061 46.3995 57.2061 45.8473C57.2061 45.2951 57.6588 44.8534 58.211 44.8534Z" fill="black"/>
<path d="M57.5372 19.3334C58.0894 19.3334 58.5422 19.7751 58.5422 20.3273C58.5422 20.8795 58.0894 21.3213 57.5372 21.3213C56.985 21.3213 56.5322 20.8795 56.5322 20.3273C56.5322 19.7751 56.985 19.3334 57.5372 19.3334Z" fill="black"/>
<path d="M41.6676 19.9962C42.2197 19.9962 42.6725 20.4379 42.6725 20.9901C42.6725 21.5423 42.2197 21.9841 41.6676 21.9841C41.1154 21.9841 40.6626 21.5423 40.6626 20.9901C40.6626 20.4379 41.1154 19.9962 41.6676 19.9962Z" fill="black"/>
<path d="M27.7081 11.7104C28.2603 11.7104 28.7131 12.1522 28.7131 12.7043C28.7131 13.2565 28.2603 13.6983 27.7081 13.6983C27.1559 13.6983 26.7031 13.2565 26.7031 12.7043C26.7031 12.1522 27.1559 11.7104 27.7081 11.7104Z" fill="black"/>
<path d="M22.794 19.9962C23.3462 19.9962 23.799 20.4379 23.799 20.9901C23.799 21.5423 23.3462 21.9841 22.794 21.9841C22.2419 21.9841 21.7891 21.5423 21.7891 20.9901C21.7891 20.4379 22.2419 19.9962 22.794 19.9962Z" fill="black"/>
<path d="M43.5675 2.76196C44.1197 2.76196 44.5724 3.20373 44.5724 3.75592C44.5724 4.3081 44.1197 4.74987 43.5675 4.74987C43.0153 4.74987 42.5625 4.3081 42.5625 3.75592C42.5625 3.20373 43.0153 2.76196 43.5675 2.76196Z" fill="black"/>
<path d="M17.7691 0C18.3213 0 18.7741 0.441772 18.7741 0.993953C18.7741 1.54613 18.3213 1.98791 17.7691 1.98791C17.2169 1.98791 16.7642 1.54613 16.7642 0.993953C16.7642 0.441772 17.2169 0 17.7691 0Z" fill="black"/>
<path d="M1.00497 19.3334C1.55715 19.3334 2.00994 19.7751 2.00994 20.3273C2.00994 20.8795 1.55715 21.3213 1.00497 21.3213C0.452788 21.3213 0 20.8795 0 20.3273C0 19.7751 0.452788 19.3334 1.00497 19.3334Z" fill="black"/>
<path d="M22.231 16.1297C22.1206 15.4668 22.4519 14.9144 23.0151 14.6935C23.3464 14.4725 23.4569 14.141 23.3464 13.8096C23.1256 13.4782 22.7832 13.3677 22.4519 13.4782C21.6678 13.8096 21.1156 14.583 20.9941 15.3563C19.2051 15.1354 17.6479 16.461 17.7583 18.2287C16.9743 18.3391 16.1902 18.7811 15.7484 19.4439C15.0747 20.4382 15.0747 21.6535 15.7484 22.5373C15.9693 22.8687 16.4221 22.9792 16.7534 22.7582C17.0847 22.5373 17.1951 22.0953 16.9743 21.7639C16.6429 21.322 16.6429 20.6592 16.9743 20.2173C17.3056 19.6649 17.9792 19.444 18.5424 19.6649C18.7633 19.7754 19.1057 19.6649 19.2161 19.4439C19.437 19.223 19.437 19.002 19.3265 18.781C19.1057 18.2287 19.2161 17.5658 19.6579 17.1239C20.0996 16.682 20.7733 16.682 21.3365 16.903C21.5574 17.0135 21.8997 17.0135 22.1206 16.903C22.1206 16.682 22.231 16.3506 22.231 16.1297Z" fill="black"/>
<path d="M37.3161 14.4725C36.9848 12.7048 35.1957 11.7105 33.5171 12.2629C33.1858 11.4896 32.5121 10.9372 31.6176 10.7162C31.2863 10.6058 30.8335 10.8267 30.7231 11.1582C30.6126 11.4896 30.8335 11.9315 31.1648 12.042C31.728 12.1524 32.1698 12.7048 32.2802 13.3677C32.2802 13.5886 32.5011 13.8096 32.722 13.9201C32.9428 14.0306 33.2852 13.92 33.3956 13.8096C33.8374 13.3677 34.511 13.3677 35.0742 13.6991C35.6375 14.0305 35.8583 14.5829 35.7479 15.2458C35.7479 15.4668 35.7479 15.7982 35.9688 15.9086C36.1897 16.0191 36.4105 16.1296 36.7529 16.0191C37.3161 15.7981 37.9787 15.9087 38.4315 16.3506C38.8733 16.7925 38.9947 17.4553 38.7628 18.0077C38.5419 18.4496 38.8733 19.002 39.4365 19.002C39.6574 19.002 39.9997 18.8915 40.1101 18.5601C40.6734 17.4553 40.4415 16.1296 39.5469 15.3563C38.9837 14.6934 38.1002 14.362 37.3161 14.4725Z" fill="black"/>
<path d="M32.4022 18.3394C31.6181 17.8975 30.7236 17.8974 30.061 18.1184C29.7297 17.3451 29.056 16.7927 28.1615 16.5717C27.8301 16.4612 27.3774 16.6822 27.3774 17.0136C27.2669 17.3451 27.4878 17.787 27.8191 17.8974C28.3823 18.0079 28.8241 18.5603 28.9345 19.2232C28.9345 19.4441 29.1554 19.6651 29.3763 19.7755C29.5971 19.886 29.9395 19.7756 30.0499 19.6651C30.4917 19.2232 31.1653 19.2231 31.7285 19.5546C32.2918 19.886 32.5126 20.4384 32.4022 21.1013C32.2918 21.4327 32.6231 21.8746 32.9654 21.8746C33.2967 21.9851 33.7495 21.6537 33.7495 21.3222C34.0808 20.107 33.5287 18.8917 32.4132 18.3394H32.4022Z" fill="black"/>
<path d="M54.4118 13.8096C57.5371 13.8096 59.9999 11.3791 59.9999 8.28577C59.9999 5.19244 57.5371 2.76196 54.4118 2.76196C51.2865 2.76196 48.8237 5.19244 48.8237 8.28577C48.8237 11.3791 51.2865 13.8096 54.4118 13.8096ZM54.4118 4.08769C56.753 4.08769 58.6525 5.96577 58.6525 8.28577C58.6525 10.6058 56.753 12.4839 54.4118 12.4839C52.0706 12.4839 50.171 10.6058 50.171 8.28577C50.171 5.96577 52.0706 4.08769 54.4118 4.08769Z" fill="black"/>
<path d="M9.71881 8.28573C9.71881 5.96573 7.8193 4.08765 5.47806 4.08765C3.13681 4.08765 1.2373 5.96573 1.2373 8.28573C1.2373 10.6057 3.13681 12.4839 5.47806 12.4839C7.8193 12.4839 9.71881 10.4953 9.71881 8.28573ZM2.68402 8.28573C2.68402 6.73906 3.90986 5.52382 5.47806 5.52382C7.04625 5.52382 8.27209 6.73906 8.27209 8.28573C8.27209 9.8324 7.04625 11.0476 5.47806 11.0476C3.90986 11.0476 2.68402 9.72192 2.68402 8.28573Z" fill="black"/>
</svg>
