<svg width="80" height="80" viewBox="0 0 80 80" fill="none" xmlns="http://www.w3.org/2000/svg">
<path d="M17.1425 46.6665C14.7242 42.6938 13.333 38.0392 13.333 33.0627C13.333 18.4845 25.2721 6.6665 39.9997 6.6665C54.7273 6.6665 66.6663 18.4845 66.6663 33.0627C66.6663 38.0392 65.2753 42.6938 62.8567 46.6665" stroke="black" stroke-width="1.5" stroke-linejoin="round"/>
<path d="M56.6673 53.3335H23.333C23.333 56.4398 23.333 57.9928 23.8405 59.2182C24.5171 60.8515 25.8149 62.1495 27.4484 62.8262C28.6736 63.3335 30.2267 63.3335 33.333 63.3335H46.6673C49.7737 63.3335 51.3267 63.3335 52.552 62.8262C54.1853 62.1495 55.4833 60.8515 56.16 59.2182C56.6673 57.9928 56.6673 56.4398 56.6673 53.3335Z" stroke="black" stroke-width="1.5"/>
<path d="M50 63.3335L46.6667 73.3335H33.3333L30 63.3335" stroke="black" stroke-width="1.5" stroke-linejoin="round"/>
<path d="M40 53.3335V33.3335" stroke="black" stroke-width="1.5" stroke-linejoin="round"/>
</svg>
