<svg width="103" height="30" viewBox="0 0 103 30" fill="none" xmlns="http://www.w3.org/2000/svg">
<path d="M15.4531 1.07478C15.5697 0.126376 14.3793 -0.386777 13.774 0.351113L0.21867 16.8755C-0.29231 17.4984 0.149302 18.4369 0.953357 18.4369H13.0863C13.658 18.4369 14.1007 18.9393 14.0306 19.5086L12.8719 28.9252C12.7553 29.8736 13.9458 30.3868 14.551 29.6489L28.1064 13.1245C28.6174 12.5016 28.1757 11.5631 27.3717 11.5631H15.2387C14.667 11.5631 14.2244 11.0607 14.2944 10.4914L15.4531 1.07478Z" fill="#404040"/>
<path fill-rule="evenodd" clip-rule="evenodd" d="M33.4761 24.4472L34.5947 20.604H41.2456L42.3818 24.4472H45.8162L40.4191 6H35.4388L30.0417 24.4472H33.4761ZM40.2839 17.3502H35.5416L37.8946 9.2653L40.2839 17.3502ZM54.2663 23.9732C53.4118 24.5625 52.3343 24.8571 51.0341 24.8571C49.9954 24.8571 49.1492 24.6735 48.495 24.3063C47.8407 23.9391 47.3317 23.4736 46.9678 22.9099C46.6037 22.3463 46.3443 21.7591 46.1887 21.1485C46.0335 20.5378 45.9394 19.9806 45.9067 19.4767C45.874 18.9728 45.8576 18.6056 45.8576 18.375V10.6118H49.243V17.1452C49.243 17.4612 49.2593 17.8647 49.2921 18.3558C49.3248 18.8469 49.4272 19.3401 49.5988 19.8354C49.7707 20.3307 50.0508 20.745 50.439 21.078C50.8275 21.4111 51.3776 21.5776 52.0889 21.5776C52.375 21.5776 52.6818 21.5307 53.0089 21.4367C53.336 21.3428 53.6428 21.1613 53.9288 20.8923C54.2152 20.6233 54.4502 20.2261 54.6341 19.7009C54.8181 19.1757 54.9102 18.486 54.9102 17.632V10.6118H58.2712V24.4472H55.3271V23.0224L55.3124 23.0399C55.0093 23.3901 54.6605 23.7012 54.2663 23.9732ZM63.2882 24.4472V17.3758C63.2882 16.8463 63.3576 16.3701 63.4968 15.9474C63.6356 15.5246 63.8403 15.1574 64.11 14.8457C64.38 14.534 64.7111 14.2842 65.1037 14.0963C65.4962 13.8998 65.9355 13.7824 66.4222 13.744C66.9088 13.7055 67.3361 13.7461 67.7039 13.8657V10.6118C67.3034 10.5606 66.9025 10.5499 66.5019 10.5798C66.1014 10.6097 65.7129 10.6823 65.3367 10.7975C64.9605 10.9128 64.613 11.073 64.2939 11.2779C63.877 11.5342 63.5251 11.8587 63.2391 12.2515C63.1089 12.4301 62.9907 12.6175 62.8843 12.8137L62.8709 12.8392L62.8712 10.6118H59.9272V24.4472H63.2882ZM77.9325 23.9028C76.9228 24.5219 75.7551 24.8315 74.4306 24.8315C73.0974 24.8315 71.9281 24.5198 70.9224 23.8964C69.9164 23.2729 69.1336 22.4125 68.5732 21.315C68.013 20.2176 67.733 18.9557 67.733 17.5295C67.733 16.0862 68.0194 14.8158 68.5919 13.7184C69.164 12.6209 69.9534 11.7648 70.9591 11.1498C71.9649 10.5349 73.1221 10.2275 74.4306 10.2275C75.7635 10.2275 76.9348 10.5392 77.9448 11.1627C78.9549 11.7861 79.742 12.6465 80.3061 13.744C80.8702 14.8414 81.1526 16.1033 81.1526 17.5295C81.1526 18.9643 80.8682 20.2304 80.3001 21.3278C79.7316 22.4253 78.9426 23.2836 77.9325 23.9028ZM74.4303 21.5776C73.3918 21.5776 72.6048 21.2125 72.069 20.4823C71.5336 19.7521 71.2656 18.7679 71.2656 17.5295C71.2656 16.7267 71.3781 16.0221 71.603 15.4158C71.828 14.8094 72.1735 14.3354 72.6395 13.9938C73.1058 13.6522 73.7026 13.4814 74.4303 13.4814C75.4854 13.4814 76.2805 13.8486 76.8163 14.5831C77.352 15.3176 77.6197 16.2997 77.6197 17.5295C77.6197 18.7166 77.356 19.6881 76.8286 20.4439C76.3012 21.1997 75.5018 21.5776 74.4303 21.5776ZM85.5908 17.3758V24.4472H82.2298V10.6118H85.1735V12.8387L85.1869 12.8137C85.2934 12.6175 85.4115 12.4301 85.5417 12.2515C85.8278 11.8587 86.1796 11.5342 86.5965 11.2779C86.9156 11.073 87.2631 10.9128 87.6393 10.7975C88.0155 10.6823 88.4037 10.6097 88.8046 10.5798C89.2051 10.5499 89.606 10.5606 90.0066 10.6118V13.8657C89.6387 13.7461 89.2115 13.7055 88.7248 13.744C88.2381 13.7824 87.7985 13.8998 87.406 14.0963C87.0138 14.2842 86.6823 14.534 86.4126 14.8457C86.1425 15.1574 85.9383 15.5246 85.7991 15.9474C85.6602 16.3701 85.5908 16.8463 85.5908 17.3758ZM95.5666 24.8315C96.7116 24.8315 97.6582 24.6244 98.4062 24.2102C98.9673 23.8996 99.5001 23.4436 100.004 22.8423L100.081 22.7488V24.4472H103V15.9922C103 15.3603 102.976 14.788 102.927 14.2756C102.877 13.7632 102.722 13.2508 102.461 12.7384C101.994 11.816 101.307 11.1669 100.4 10.7912C99.4918 10.4154 98.4533 10.2275 97.284 10.2275C95.6895 10.2275 94.4301 10.5862 93.5058 11.3036C92.5818 12.021 91.9523 12.9519 91.6168 14.0963L94.6343 15.0955C94.847 14.4635 95.2191 14.0237 95.7505 13.776C96.2823 13.5283 96.7933 13.4045 97.284 13.4045C98.1672 13.4045 98.7968 13.5967 99.173 13.981C99.4624 14.2766 99.6403 14.7011 99.707 15.2545L99.711 15.2884L99.5675 15.3106C99.1286 15.3792 98.708 15.4445 98.3054 15.5066L98.1058 15.5375C97.2473 15.6698 96.4786 15.8086 95.7996 15.9538C95.121 16.099 94.5362 16.2655 94.0455 16.4534C93.3342 16.7267 92.7677 17.0662 92.3468 17.4719C91.9256 17.8775 91.6208 18.3451 91.4329 18.8746C91.2446 19.4041 91.1508 19.9891 91.1508 20.6297C91.1508 21.3983 91.3204 22.1007 91.6599 22.737C91.999 23.3733 92.498 23.8814 93.1563 24.2615C93.8145 24.6415 94.618 24.8315 95.5666 24.8315ZM95.2846 21.9107C95.5626 22.0303 95.8938 22.0901 96.278 22.0901C96.8915 22.0901 97.4085 21.9769 97.8298 21.7506C98.251 21.5243 98.5862 21.2659 98.8355 20.9756C99.0852 20.6852 99.2548 20.4418 99.3445 20.2454C99.5164 19.8696 99.6166 19.4319 99.6453 18.9323L99.652 18.8091C99.6653 18.5663 99.6747 18.3442 99.6807 18.143L99.6813 18.1121L99.5725 18.1311C99.0688 18.2203 98.6332 18.2994 98.2654 18.3686C97.6519 18.4839 97.1572 18.5885 96.781 18.6825C96.4048 18.7764 96.0737 18.8789 95.7876 18.9899C95.4605 19.1266 95.1964 19.2739 94.9962 19.4319C94.7959 19.5899 94.6487 19.7628 94.5546 19.9507C94.4608 20.1386 94.4137 20.3479 94.4137 20.5784C94.4137 20.8944 94.4891 21.1656 94.6407 21.3919C94.7919 21.6182 95.0065 21.7912 95.2846 21.9107Z" fill="#404040"/>
</svg>
