<svg width="99" height="90" viewBox="0 0 99 90" fill="none" xmlns="http://www.w3.org/2000/svg">
<path d="M90.7025 45.8303C92.5347 42.1836 96.346 41.1415 99 38.6197C98.9298 44.6121 95.8701 48.2904 90.644 50.3444C88.8782 51.0382 89.4542 52.7887 88.7494 54.3078C91.8364 51.828 95.2576 51.1315 98.7685 50.3115C96.6477 55.731 93.1446 59.1596 87.3373 59.6616C86.8028 59.7076 86.5584 60.0269 86.3178 60.4001C85.7404 61.2924 85.1735 62.1913 84.6131 63.0941C84.5675 63.1663 84.6066 63.2925 84.6066 63.5015C88.1656 62.1729 91.8832 62.0309 95.6204 61.5197C92.9651 67.1928 88.1864 69.9367 82.3453 67.7658C81.6249 67.4977 81.1489 67.5372 80.5781 68.072C79.9956 68.6187 79.2765 69.0155 78.6341 69.6332C82.3856 69.3165 85.5662 71.0367 88.9198 72.2036C85.8523 74.8345 79.9331 75.4903 76.0672 73.3995C74.789 72.7083 73.9945 72.7832 73.001 73.6623C72.5615 74.0513 71.9556 74.2497 71.4146 74.6532C75.8618 74.1617 79.3675 76.7623 83.6313 78.1041C77.9865 80.1988 72.7852 81.4525 67.9388 77.2105C67.5006 76.8268 67.2106 76.9069 66.7698 77.1264C66.329 77.3458 65.8258 77.4352 65.3485 77.5797C64.8752 77.723 64.3993 77.8636 63.8414 78.179C68.3887 78.472 71.4822 81.7521 75.6043 83.6471C69.7411 84.9152 64.4513 85.1793 60.3994 80.1475C59.9976 79.6482 59.6557 79.6521 59.1147 79.7901C58.2279 80.0161 57.3137 80.1278 56.3866 80.4064C60.9274 81.2002 63.4773 85.1675 67.4122 87.0954C64.4552 88.3293 59.5854 87.4213 57.1031 85.2832C56.081 84.4027 55.1175 83.4526 54.3607 82.3369C53.5857 81.1936 52.8081 80.823 51.7197 81.919C51.4986 82.1424 51.167 82.2554 50.7925 82.4735C52.6611 84.3409 54.44 86.1952 55.9939 88.2479C56.3164 88.6736 57.0108 89.0692 56.1057 89.7026C55.3333 90.2427 54.9809 90.0114 54.5505 89.2978C53.3854 87.3621 51.8549 85.73 50.262 84.1464C49.6287 83.517 49.2672 83.5472 48.647 84.1885C47.1633 85.726 45.7953 87.3516 44.6133 89.1323C44.1712 89.7985 43.8045 90.29 42.9385 89.6579C41.9749 88.9535 42.9242 88.6395 43.1778 88.2281C44.3064 86.3962 45.8435 84.9139 47.3193 83.379C47.6652 83.0202 48.5 82.5787 47.6275 82.1437C46.95 81.806 46.2075 80.5562 45.2388 81.7705C44.8552 82.2515 44.521 82.7745 44.1361 83.2542C40.9074 87.2859 36.5837 88.0888 31.2771 87.4502C35.4941 85.4264 37.9062 81.3013 42.5458 80.4734C41.577 80.2093 40.6031 79.9583 39.6395 79.6771C39.1168 79.5233 38.9725 79.9399 38.7293 80.2238C35.4446 84.0571 31.2614 85.065 26.484 84.1964C25.6804 84.0505 24.8755 83.9007 23.5673 83.6602C27.6621 81.6207 30.7244 78.4392 35.5916 78.4431C34.2587 77.6192 32.9064 77.6665 31.8739 76.9476C31.5969 76.7545 31.385 77.0383 31.1717 77.2236C27.6686 80.2698 23.6948 80.6627 19.4206 79.3354C18.3634 79.0069 17.3127 78.6613 15.7887 78.1724C19.825 76.6007 23.1785 74.3404 27.2967 74.6124C25.6349 72.9593 24.5933 72.8016 22.4543 73.728C19.5454 74.9883 16.6001 74.9029 13.6718 73.7609C12.6497 73.3627 11.6406 72.9264 10.3403 72.3902C13.6939 71.0367 16.6534 69.557 20.2853 69.6043C18.9498 68.1351 17.8511 67.4097 15.9487 68.0891C12.6822 69.2547 9.69663 68.323 7.11936 66.0482C5.72669 64.8195 4.70723 63.261 3.20404 61.4711C7.2832 61.9508 10.984 62.2136 14.8317 63.4121C13.5677 61.3621 12.6224 59.7207 10.0555 59.3107C5.17535 58.5327 2.54346 54.865 0.508433 50.3969C4.06356 51.058 7.40543 51.8425 10.3507 54.0187C10.114 51.9752 9.43786 50.5402 7.34431 49.7215C2.43944 47.8028 0.286075 43.8276 0 38.5185C2.74762 40.88 6.18181 42.1573 8.49251 45.3756C8.57574 43.252 8.42099 41.8617 6.41327 40.8813C2.3003 38.872 1.33805 34.9822 1.23532 30.2999C3.63965 32.7639 6.32355 34.3843 8.24415 37.3253C8.23505 35.4474 8.54973 34.1293 6.69805 32.9768C3.95043 31.2671 3.27555 28.267 3.58633 25.0973C3.66696 24.2694 3.86461 23.452 4.09737 22.1313C5.81121 25.0605 8.09461 27.1434 8.95543 30.2198C9.86567 27.9227 9.88128 27.6139 8.54583 25.7307C6.18181 22.3954 6.26503 18.9577 8.00619 15.2452C9.32343 17.9484 10.9853 20.3454 11.0932 23.6097C12.361 21.7936 12.2245 20.4019 11.3429 18.7868C9.77205 15.9102 10.3442 13.0533 12.1049 10.0663C13.3987 12.5316 14.357 14.8431 14.2686 17.4977C15.1624 16.5024 15.3878 15.3263 14.9448 13.9692C13.8018 10.4697 14.5326 7.36704 17.08 5.22632C17.513 7.74419 18.115 10.174 17.8901 12.9153C18.9043 12.1978 18.8692 11.3094 18.903 10.4539C19.063 6.46555 20.1761 4.71118 23.9678 2.66113C23.7572 3.91613 23.5387 5.05022 23.384 6.1922C23.2319 7.31973 22.7936 8.34738 22.3138 9.53404C23.9704 9.18843 25.4775 8.56947 27.1095 8.67986C25.8988 11.5066 24.1252 12.7931 21.3165 12.2109C19.5948 11.8535 18.9628 12.6893 18.0045 13.9443C19.2216 13.6735 20.2398 13.5842 21.2644 13.6276C22.3073 13.6722 23.3671 13.5408 24.4009 13.8838C23.0654 16.4385 20.5571 17.7592 17.7522 17.022C16.0852 16.5844 15.4961 17.3715 14.7211 18.7225C17.2555 18.2126 19.5311 18.5148 21.9744 19.0418C19.9121 21.2561 17.5221 22.5439 14.7549 22.1129C12.9384 21.8304 12.4507 22.5768 12.0151 23.9159C14.4169 23.7122 16.803 23.6031 19.4115 24.0526C17.3166 26.6966 14.6899 27.6375 11.7967 27.8557C10.378 27.9621 9.91899 28.4838 10.2883 29.9399C12.5275 28.9687 14.8772 29.0962 17.4206 29.1146C15.9448 31.7494 13.7589 33.283 11.1738 33.6917C9.2025 34.0032 9.02565 34.8994 9.16089 36.4198C9.18559 36.6971 9.16479 36.9783 9.16479 37.4357C11.0763 34.7693 13.9032 35.1083 16.6378 34.4355C15.4415 37.7589 13.2296 39.8024 10.469 41.1152C9.24411 41.6974 9.08677 42.3124 9.25581 43.4005C9.40015 44.3243 9.49898 45.2561 9.66802 46.5702C10.6186 42.934 13.3753 41.7578 16.1021 40.3307C15.924 44.4899 14.6509 47.8804 10.8916 49.8621C10.4638 50.0881 10.326 50.2471 10.4404 50.7373C10.811 52.3103 10.9619 53.9424 11.889 55.8913C12.1595 52.0251 14.0281 49.6019 16.7822 47.5992C18.0708 51.9148 16.7562 55.4458 14.0047 58.5235C13.5222 59.0636 13.4169 59.3488 13.7004 59.8942C14.3427 61.1281 14.9539 62.3844 16.2477 63.7459C15.0943 59.5223 17.3179 56.7534 19.1969 53.5903C21.2527 57.8717 21.0694 61.8364 18.8861 65.6974C18.6052 66.1941 18.3855 66.4083 18.8341 66.8551C19.7404 67.7566 20.6117 68.6949 22.0863 69.4545C20.7833 65.5292 22.0108 62.0507 22.7273 58.3093C25.3137 61.6367 26.6752 65.1073 25.9665 69.2113C25.947 69.3217 25.9197 69.4361 25.9262 69.5465C25.9808 70.4493 24.6297 71.2509 25.2188 71.8804C26.1615 72.8896 27.4489 73.6347 29.1133 74.2326C27.1914 70.3809 28.2382 66.5581 27.9157 62.6854C31.9831 65.629 33.866 70.8212 32.5267 75.2524C32.3459 75.8503 32.4461 76.054 32.935 76.2551C33.9505 76.6743 34.9609 77.1067 36.3549 77.6954C35.104 75.669 34.6774 73.8056 34.6618 71.8462C34.6462 69.8921 34.6579 67.938 34.6579 65.7946C38.4341 68.6266 40.2533 72.2273 39.7228 76.7742C39.5368 78.3695 39.8216 79.0397 41.3703 79.1987C41.9684 79.2605 42.5458 79.5194 43.6173 79.8269C40.7201 76.464 41.4964 72.703 41.3261 69.0563C44.7525 70.5689 46.9956 74.5375 46.7277 78.5154C46.5989 80.4222 48.6444 81.7968 50.3894 81.0674C51.8003 80.4774 52.5909 79.8992 52.4492 77.9911C52.1865 74.4574 54.7716 70.72 57.9262 69.26C57.9262 75.8635 57.8521 76.2814 56.0875 79.4313C56.1369 79.4563 56.1954 79.5115 56.2371 79.501C57.3098 79.2329 58.6115 79.2487 59.3904 78.61C60.3032 77.8623 59.3436 76.5705 59.3748 75.4968C59.4788 71.8304 61.2044 68.4071 64.4409 66.2191C63.9754 70.0458 65.3979 73.866 63.1068 77.4628C64.4331 77.3708 65.4097 76.5587 66.5422 76.2249C67.1313 76.0514 66.8504 75.6664 66.7412 75.2853C65.3641 70.4558 66.8777 65.9852 71.109 62.914C70.7865 66.7789 72.0037 70.5202 70.1559 74.2878C71.6396 73.7976 72.6772 72.8804 73.8215 72.155C74.2728 71.8698 74.1453 71.6175 73.9633 71.1917C72.2442 67.1469 73.161 62.3634 76.3962 58.7351C77.1673 62.2859 78.5951 65.6356 77.4924 69.3191C78.1257 69.26 78.3467 68.7317 78.7199 68.4294C79.413 67.867 80.1958 67.3282 80.6691 66.6002C81.2998 65.6277 80.0528 65.1507 79.755 64.399C78.3363 60.814 78.5171 57.2869 79.7953 53.4549C82.1086 56.4669 84.1501 59.3291 83.3361 63.6999C84.5792 62.1676 85.0266 60.6905 85.7392 59.3724C86.0616 58.7758 85.4765 58.4828 85.1696 58.1122C82.435 54.8085 81.4714 51.0238 82.4649 47.2181C84.7457 49.5546 87.5115 51.4548 87.6519 55.2001C87.7976 54.8032 87.9406 54.4064 88.0876 54.0095C88.8821 51.8688 89.3723 50.1012 86.7443 48.4901C83.9902 46.8028 83.5052 43.5805 83.2685 40.3635C85.8939 41.6356 88.5297 42.7356 89.5868 46.0314C89.7104 45.649 89.7611 45.5215 89.7923 45.3901C90.3436 43.0431 89.9977 41.3846 87.4088 40.2545C85.0812 39.2387 83.3192 37.2241 82.2529 34.5301C85.115 34.7141 87.7625 34.9782 89.9054 37.0099C90.1161 35.2214 89.9002 34.011 87.6663 33.6746C85.3777 33.329 83.4596 31.9505 82.0371 30.0174C81.8524 29.7651 81.4818 29.5391 81.6795 29.1632C81.8706 28.8005 82.2711 28.9148 82.5897 28.9359C84.7262 29.0765 86.9277 28.8846 88.8535 30.3512C89.0914 28.4667 88.5518 27.8333 86.73 27.7768C83.9408 27.6901 81.4675 26.5573 79.3636 23.8843C82.1229 23.7608 84.5064 23.4665 86.8965 24.2852C86.73 22.105 86.5961 22.0406 84.7119 22.1458C81.6925 22.314 79.0463 21.4966 76.9359 18.8328C79.517 18.5818 81.8667 18.2704 84.4687 18.8525C83.6794 17.4517 83.0084 16.7394 81.4051 17.0272C78.3207 17.5831 76.7889 16.8117 74.4522 13.9508C76.6706 13.4028 78.7563 13.5697 81.0787 14.0244C80.2322 12.7786 79.6236 11.952 78.0086 12.3384C75.4392 12.9521 73.6889 11.793 71.9803 8.69694C72.8463 8.45777 73.6304 8.80733 74.4002 8.89932C75.2155 8.99657 76.0113 9.2607 77.0256 9.5025C75.7994 7.38938 75.5211 5.16981 75.3767 2.87665C78.3805 3.74135 80.3857 6.823 80.4572 10.5735C80.4736 11.4356 80.8109 12.1991 81.4688 12.864C81.2374 10.224 81.66 7.81122 82.1827 5.41162C84.7327 7.20672 85.8003 11.0926 84.3582 14.2137C83.6573 15.7315 83.9512 16.8209 85.0461 18.1968C85.206 15.2387 86.0239 12.705 87.3113 10.1556C89.2188 13.1716 89.5049 16.1441 88.0629 19.2481C86.9511 21.6424 86.9485 21.8015 88.4282 24.3338C88.3476 20.921 90.1538 18.2967 91.2825 15.3188C93.4007 18.4241 93.2902 22.109 91.0874 25.3798C90.0532 26.9147 89.7221 28.677 90.094 30.6666C91.0601 27.606 93.2447 25.3338 94.8987 22.6819C96.7686 26.3799 96.0118 30.5049 92.5802 32.9637C90.7494 34.2752 90.3163 35.5946 90.9925 37.6932C91.6791 36.4711 92.3137 35.2923 93.3357 34.4132C94.7271 33.2173 96.1133 32.0123 97.5579 30.7638C98.4175 34.3672 96.8557 38.4147 93.3864 40.5107C91.302 41.7697 90.3059 43.2139 90.6986 45.8343L90.7025 45.8303Z" fill="#068075"/>
<path d="M47.6828 50.7795C46.7114 50.0988 45.8311 49.9674 44.8168 49.6862C45.6465 48.6388 46.6438 47.8359 47.0976 46.6348C47.3148 46.0592 47.5163 45.5335 46.8181 45.2103C45.2095 44.4638 45.8493 43.837 46.8896 43.1996C47.1223 43.0564 47.3343 42.879 47.6477 42.6503C43.4775 39.0352 40.9912 34.416 39.2137 29.329C38.0213 25.9175 37.8912 22.3917 37.9172 18.8357C37.9237 17.9749 38.085 17.0734 37.046 16.553C36.5571 16.3086 36.5389 15.666 36.6949 15.1758C36.8718 14.6226 37.4426 14.7605 37.8522 14.7592C45.6569 14.7198 53.4602 14.7053 61.2648 14.6712C62.6315 14.6646 62.5509 15.6003 61.9605 16.1627C60.7889 17.2797 61.0646 18.6031 61.0542 19.9041C60.9827 28.5313 58.1622 35.989 51.8556 41.9433C51.1573 42.603 51.2678 42.833 52.0272 43.2102C52.97 43.678 53.6123 44.2641 52.2652 45.0788C51.5305 45.523 51.5864 46.1591 51.8985 46.8385C52.6774 48.535 53.7827 49.9608 55.6526 50.3893C56.6603 50.6205 56.6577 51.1238 56.659 51.9255C56.6603 52.9833 55.9946 52.9229 55.3171 52.9216C51.3602 52.9176 47.4019 52.8664 43.4463 52.9282C42.2903 52.9466 42.2526 52.3696 42.1941 51.4931C42.116 50.3235 42.8598 50.5627 43.4996 50.5864C44.809 50.635 46.1172 50.706 47.6828 50.7795ZM40.3398 19.9776C40.2397 23.3628 40.2449 26.522 41.8872 29.417C41.4828 27.0385 41.6505 24.6441 41.5751 22.2577C41.5478 21.4166 41.8105 20.9501 43.0029 20.8436C41.9158 20.4901 41.2383 20.2707 40.3398 19.9776Z" fill="#068075"/>
<path d="M42.4652 55.9133C41.7435 55.9133 41.0192 55.8897 40.2988 55.9199C39.5876 55.9501 39.0934 55.7793 39.0947 54.9317C39.096 54.1471 39.4536 53.8804 40.2338 53.8843C46.1959 53.9159 52.1592 53.9106 58.1213 53.9172C58.2331 53.9172 58.3437 53.929 58.4555 53.9382C59.9275 54.0512 59.1083 56.0382 59.9301 56.1288C61.3136 56.2813 61.8481 56.7386 61.7076 58.0987C61.6101 59.0409 61.7453 59.6625 63.0015 59.6481C64.5034 59.6297 63.7024 61.02 63.9182 61.7415C64.1653 62.5654 63.3253 62.3591 62.9104 62.3605C53.994 62.3775 45.0776 62.3683 36.1612 62.3723C35.4447 62.3723 34.775 62.3723 34.9545 61.3328C35.0741 60.6442 34.6073 59.5403 35.9245 59.6481C37.1533 59.7493 37.1468 58.9437 37.1182 58.1605C37.0662 56.7097 37.5369 55.9948 39.1272 56.2064C40.2208 56.3522 41.3495 56.234 42.4626 56.234C42.4626 56.1262 42.4639 56.0198 42.4652 55.912V55.9133Z" fill="#068075"/>
<path d="M32.9382 15.5896C35.2762 15.608 37.0707 17.1915 37.2358 19.4295C37.2904 20.1733 37.2501 20.9118 36.2619 21.0932C35.7079 21.1957 35.2957 21.3034 35.31 20.4716C35.3308 19.1496 34.5402 18.3887 33.3517 18.0957C32.0748 17.7803 31.0683 18.3204 30.3089 19.3585C28.7901 21.4349 29.0632 23.6137 30.1347 25.7216C31.5078 28.4234 33.7561 30.229 36.4361 31.5221C37.6857 32.1253 39.0316 32.5695 40.0537 33.5695C41.7389 35.2188 41.3267 37.8641 39.2904 38.5264C38.5193 38.7774 37.7963 38.65 37.4218 37.8812C37.0538 37.1256 37.3854 36.7892 38.1994 36.4396C39.2513 35.9875 38.6259 35.1872 38.0225 34.8061C37.3281 34.3685 36.4829 34.1859 35.7235 33.8442C30.9253 31.6811 27.3584 28.4221 26.8227 22.8213C26.4261 18.666 29.1841 15.562 32.9395 15.5909L32.9382 15.5896Z" fill="#068075"/>
<path d="M66.3516 15.6263C69.8612 15.604 72.8676 19.3059 72.2525 23.1221C71.4203 28.2919 68.2878 31.6521 63.6248 33.6654C62.7081 34.0609 61.7354 34.3185 60.807 34.6917C60.3896 34.8586 60.0333 35.1609 60.0723 35.7049C60.1087 36.2161 60.3375 36.5683 60.8863 36.5814C61.5039 36.5959 61.8316 36.8522 61.7445 37.5145C61.6691 38.0953 61.2868 38.3923 60.7771 38.5526C59.3818 38.9889 57.7941 37.7313 57.8513 36.1636C57.9124 34.5262 58.6068 33.262 60.1802 32.5812C62.1749 31.7179 64.197 30.9136 65.8965 29.4799C67.8405 27.8385 69.2306 25.8647 69.6727 23.3008C70.0576 21.0655 69.0524 19.0128 67.2319 18.2612C65.5285 17.5568 64.0955 18.3203 63.7691 20.1377C63.6716 20.6791 63.812 21.377 62.9382 21.2574C62.1827 21.1536 61.7991 20.7028 61.7796 19.8762C61.7198 17.3426 63.5208 15.646 66.3516 15.6276V15.6263Z" fill="#068075"/>
<path d="M47.1429 2.1473C48.4823 1.9331 49.057 1.18535 49.3717 0C50.0856 0.850242 50.1285 2.22089 51.8774 1.7294C50.9217 2.77413 50.4133 3.62833 51.0712 4.92537C49.9724 4.50091 49.135 3.74003 48.2911 5.03839C47.9634 3.89641 48.6266 2.68347 47.1416 2.14599L47.1429 2.1473Z" fill="#068075"/>
<path d="M61.6567 49.9475C63.9908 51.9029 65.9934 54.1659 67.6526 56.739C65.0701 55.0135 63.1521 52.6796 61.6567 49.9475Z" fill="#068075"/>
<path d="M41.888 1.3374C42.3613 1.84071 42.5278 2.47676 43.3054 2.50961C44.1064 2.54378 43.9127 2.97875 43.767 3.65553C43.5317 4.74626 43.1116 5.07085 42.0454 5.01565C40.931 4.95783 41.2691 3.68575 40.4381 3.32174C40.0194 3.13907 40.7268 2.84208 40.9661 2.60028C41.3081 2.25598 41.5499 1.8118 41.8867 1.3374H41.888Z" fill="#068075"/>
<path d="M36.9038 50.0896C35.5424 52.6338 33.4462 54.5156 31.5191 56.542C31.3501 56.7194 31.1095 56.7273 30.921 56.563C30.6115 56.2923 30.8495 56.0374 31.0185 55.8508C32.865 53.8125 34.5515 51.6114 36.9051 50.0896H36.9038Z" fill="#068075"/>
<path d="M57.0271 1.36141C58.6473 2.41665 58.9191 4.10795 57.4666 4.90563C56.3223 5.53378 54.9491 4.29718 55.2911 2.66371C55.364 2.31678 56.7228 2.09865 57.0258 1.36011L57.0271 1.36141Z" fill="#068075"/>
<path d="M35.7364 3.08057C36.7702 4.13056 38.3332 4.84413 37.3163 6.77459C36.951 5.3619 35.5713 8.04403 34.7508 5.78636C34.0811 3.94263 36.3216 4.2554 35.7364 3.08057Z" fill="#068075"/>
<path d="M33.3987 47.4851C31.8279 49.635 29.5861 50.9137 27.6252 52.5366C27.4106 52.714 27.1493 52.8612 26.9035 52.555C26.7306 52.3395 26.793 52.1227 26.9633 51.9637C28.8956 50.1541 31.0477 48.6678 33.3987 47.4851Z" fill="#068075"/>
<path d="M65.0754 47.556C67.4043 48.6888 69.2989 50.3853 71.2845 51.9504C71.49 52.1121 71.7474 52.2935 71.4978 52.6259C71.3365 52.8401 71.0778 52.894 70.9126 52.7718C68.8113 51.2132 66.6033 49.7756 65.0754 47.5547V47.556Z" fill="#068075"/>
<path d="M63.271 3.21826C63.284 4.20649 64.5961 4.40493 64.137 5.87413C63.4882 7.94783 62.1215 5.62313 61.6846 6.81111C60.7562 4.93584 62.1293 4.21043 63.271 3.21826Z" fill="#068075"/>
<path d="M69.4383 40.9756C70.4526 40.4592 71.4239 40.7299 72.4135 40.9507C73.7567 41.2503 75.1156 41.4803 76.464 41.7628C76.7176 41.8154 77.0193 41.9258 76.9894 42.2885C76.9673 42.5592 76.7202 42.6893 76.5148 42.6512C74.1351 42.2044 71.7126 41.9323 69.4383 40.9756Z" fill="#068075"/>
<path d="M27.9956 38.281C25.8696 38.281 23.7422 38.2849 21.6161 38.2757C21.3288 38.2757 21.0791 38.1548 21.0375 37.8118C20.9972 37.4846 21.1376 37.2257 21.464 37.2454C23.6616 37.3821 25.9008 37.118 28.0606 37.6502C28.0385 37.8604 28.0177 38.0707 27.9956 38.281Z" fill="#068075"/>
<path d="M29.142 40.8313C26.9093 41.9352 24.4802 42.2019 22.0798 42.5804C21.8353 42.6185 21.6702 42.4043 21.6533 42.1638C21.6364 41.9102 21.8119 41.7591 22.0512 41.7262C24.4087 41.4108 26.6882 40.4804 29.142 40.8313Z" fill="#068075"/>
<path d="M70.8429 37.7575C72.9975 37.2331 75.2081 37.2686 77.4187 37.3186C77.6761 37.3238 77.7932 37.5209 77.7438 37.7811C77.6631 38.2135 77.3173 38.2477 76.9844 38.249C74.9467 38.2569 72.9104 38.2529 70.8728 38.2529C70.8624 38.0873 70.8533 37.9218 70.8429 37.7575Z" fill="#068075"/>
</svg>
