<?xml version="1.0" encoding="UTF-8"?>
<svg id="Layer_2" data-name="Layer 2" xmlns="http://www.w3.org/2000/svg" viewBox="0 0 260 243.09">
  <g id="Layer_2-2" data-name="Layer 2">
    <g>
      <path d="M178.5,5.59c-.26.18-2.76-.74-3.31-.87-3.43-.81-6.93-.83-10.39-.19-.86.16-1.69.57-2.58.51-.15-.43.38-.73.38-1.03,0-.71-1.59-1.41-.01-2.26,3.73-2.01,11.31-2.34,15.23-.79.66.26,1.7.73,1.94,1.45.16.48-1.12,2.51-1.25,3.17Z"/>
      <path d="M159.97,5.43c.07.4-.36.58-.65.75-1.24.74-2.85,1.29-4.16,2.02-3.94,2.19-7.33,4.86-10.37,8.18-.82.89-1.39,2.04-2.43,2.72-.02-.35.29-.64.49-.92,3.29-4.8,7.86-9.94,12.83-13.02.82-.51,1.68-.94,2.52-1.42.45.86.68,1.55,1.78,1.69Z"/>
      <path d="M186.12,6.13c.07.15.08.44.12.71.04.35.3,1.1.01,1.35-.13.05-.27.02-.4.06-.15.06-.31.25-.43.34-.18.17-.39-.02-.53-.17-.15-.18-.28-.31-.2-.48.06-.15.27-.34.47-.58.22-.27.4-.66.55-.94.15-.28.29-.46.37-.36l.04.06Z"/>
      <path d="M181.7,6.92l-.54-.4v-.24s1.38-1.98,1.38-1.98c.38.28.28.33.13.69-.28.69-.96,1.17-.98,1.93Z"/>
      <path d="M180.57,5.99c-.52.12-.41-.27-.38-.66.06-.59.16-1.04.19-1.69.02-.38.13-.38.47-.28.7.21-.36,2.1-.28,2.62Z"/>
      <path d="M183.57,7.67l-.56-.28c.71-.58.59-1.78,1.31-2.34.22,1.04-.53,1.69-.75,2.62Z"/>
      <path d="M188.07,11.04c.12-.89.34-2.29,1.12-2.81-.17.93-.33,2.18-1.12,2.81Z"/>
      <path d="M160.34,2.8l-.19,1.12-.94-.19c-.14-.68.53-.96,1.12-.93Z"/>
      <path d="M187.88,7.49c-.31.67-.51,1.41-.84,2.07-.14.27.01.46-.47.37-.14-.15.68-1.76.85-2.06.14-.26-.03-.47.46-.37Z"/>
      <path d="M190.09,11.61c-.06,0-.17-.23-.31-.31-.39-.15-.57-.05-.19-.67.22-.29.42-.64.69-.89.38.05-.17,1.62-.15,1.85l-.04.02Z"/>
      <path d="M196.13,41.67c-3.07-36.58-44.33-35.03-54.04-2.71-12.79,29.03,8.04,71.97,40.74,46.91,10.9-9.99,14.41-30.02,13.3-44.2ZM191.06,51.78c-.82,11.82-4.33,25.39-13.48,33.54-11.93,10.63-26.21,6.28-29.97-9.2-.44-.65.44-1,.5-.13,1.22,3.26,2.51,6.55,4.82,9.23,8.36,9.7,19.41,3.46,26.22-5.32,10.3-14.63,14.93-38.92,3.47-53.59,8.22,5.8,9.01,16.01,8.43,25.47Z"/>
      <path d="M218.79,61.24l3-1.4c7.85-2.82,18.23-4.41,24.72,2.06-1.3.57-.77,1.27-1.07,2.1-.14.38-.86,1.57-1.26,1.57-.67-.38-1.06-1.14-1.69-1.69-4.97-4.34-14.2-4.93-20.36-3.51-1.14.26-2.19.78-3.33.88Z"/>
      <path d="M257.57,80.73c-.2,0-.41,0-.61.04-.46.11-1.66.7-1.92.33l-3.61-7.44c-.03-1.25-.38-2.65.83-3.42.59-.13,2.13,2.47,2.42,2.98.45.8,3.46,7.11,2.9,7.5Z"/>
      <path d="M258.67,83.74l.39,2.04c-.11.09-1.66-.22-1.5.56l1.68-.19c.03.51.36,1.1.02,1.58-.19.26-1.81.06-2.24.09l-.96-3.91,2.61-.17Z"/>
      <path d="M257.75,80.91c.01.58.77,1.14.48,1.69-.21.39-1.95,1.18-2.33.91l-.58-1.84,2.43-.76Z"/>
      <path d="M259.6,89.88l-2.23.21-.19-1.69,2.45.08c.38.25.11,1.04-.03,1.39Z"/>
      <path d="M260,91.03l-.19.93c-.58-.07-1.12.06-1.68.11-.52.05-.37-.73-.38-1.05h2.25Z"/>
      <path d="M248.01,64.8c-.54.31-1.68-.89-1.68-1.22,0-.16.39-.34.64-.27s.7,1.22,1.05,1.48Z"/>
      <path d="M249.32,70.24c-.55.06-.97-.27-1.31-.66.8-1.12,1.41-.56,1.31.66Z"/>
      <path d="M259.81,94.21v.56s-1.69.19-1.69.19c-.14-1.08.99-.7,1.69-.75Z"/>
      <path d="M247.64,65.55c-.06-.61.55-.56.98-.61.22-.02.24-.25.51.14l-.49.64-1-.17Z"/>
      <path d="M250.45,66.87c-.4,1.27-1.42.78-1.31-.38l1.31.38Z"/>
      <path d="M226.24,70.48c-15.4,1.38-28.68,19.54-33.2,33.11-5.27,15.8-2.85,37.21,16.54,40.78,23.76,4.38,40.12-24.35,41.07-44.61.73-15.39-6.89-30.84-24.4-29.27ZM224.72,137.33c-1.78,1-3.93,2.06-5.93,2.4-.04-.26.3-.25.5-.34,3.59-1.65,6.6-2.37,9.06-5.55,10.9-14.08,15.63-25.24,16.67-40.47l-1.03-5.52c1.03,1.85,1.54,4.18,1.76,6.29,1.62,15.65-7.06,35.34-21.02,43.19Z"/>
      <path d="M27.68,76.1c15.19-1.35,27.99,11.93,33.92,24.61,4.7,10.05,7.21,23.75,2.36,34.16-5.98,12.82-19.43,17.25-32.31,11.52-14.46-6.43-23.97-24.51-25.65-39.73-1.57-14.2,6.33-29.19,21.67-30.56Z"/>
      <path d="M20.6,64.62c-.11-.52.94-.82,1.23-.58.51.43.2,1.46.28,2.08-.8.22-.96-.67-1.68-.56-.17.41-.09,1.1-.38,1.4-11.14,4.76-18.21,13.43-20.04,25.57,1.9-11.29,4.45-24.2,16.81-28.05,1.42-.5,2.57-1.06,3.79.14Z"/>
      <path d="M28.1,63.87l.21-.92,1.29-.02c-.31.8-.77,1.57-.37,2.43-.25,0-1.03.5-.91-.06.06-.29.38-.92-.13-1.06-.47-.13-.37.05-.52.23-1.08,1.33-2.02,1.2-3.61,1.57-2.73-2.3,3.15-4.57,4.04-2.18Z"/>
      <path d="M31.47,63.12l-.84,1.49c-.7-1.07-.7-2.11.84-1.49Z"/>
      <path d="M108.95,85.72c-10.52,10.75-26.91,8.83-36.55-1.99-14.6-16.39-18.06-52.6,2.55-65.65,6.87-4.35,16.61-4.78,23.82-1,8.6,4.52,13.81,14.19,16.54,23.18,4.35,14.33,4.81,34.05-6.35,45.45Z"/>
      <path d="M123.82,64.24c-.32.04-.18-.43-.19-.65-.01-.56-.03-1.14,0-1.69.67-13.1-2.28-25.95-9.02-37.24-1.04-1.74-2.61-4.1-3.9-5.65-.39-.46-.91-.86-1.31-1.31-.19-.21-.45-.31-.37-.66.71.6,1.38,1.33,2.06,1.97,5.81,5.51,10.15,14.46,12.07,21.83,1.97,7.56,1.72,15.66.67,23.4Z"/>
      <path d="M92.72.74v3.37c-.27.05-5.7-.15-5.72.18-1.9.23-2.13-2.75-1.27-3.94,2.26-.64,4.69-.12,7,.39Z"/>
      <polygon points="98.53 1.86 98.25 5.42 97.58 5.13 97.78 1.86 98.53 1.86"/>
      <path d="M95.72,1.11l-.19,3.56c-.71.14-.21-.63-.18-1.03.02-.22.06-1.41-.1-1.41-.58.48.15,2.73-.65,2.44l.38-3.55h.74Z"/>
      <path d="M96.84,5.05c-.25.05-.46-.07-.54-.31-.2-.64.39-2.62.35-3.44.25-.05.46.07.53.31.24.75-.39,2.56-.35,3.44Z"/>
      <path d="M93.47,4.49c-.12-.56.16-1.08.19-1.59.04-.67-.08-1.42,0-2.06.03-.24.74-.22.77.56.01.43-.29,2.09-.39,2.62-.06.33-.19.52-.56.47Z"/>
      <polygon points="101.34 2.61 100.96 5.8 100.22 5.8 100.61 2.73 100.87 2.43 101.34 2.61"/>
      <path d="M100.21,2.24c-.31.91.1,2.8-.84,3.18-.6-.79.34-2.16.09-3.18h.75Z"/>
      <path d="M104.52,4.13l-.74,2.79c-.86.04.25-1.98.19-2.62-.81.23-.37,2.51-1.03,2.43-.55-.37.19-2.51.37-2.99.41-.53.72.4,1.21.39Z"/>
      <path d="M109.21,9.17c-.73.14-.28-.85-.18-1.21-.71-.21-.47-1.21.08-1.6.9.78.13,1.83.09,2.81Z"/>
      <path d="M107.33,8.61c-.03-.8-.02-1.57.18-2.35.06-.23.09-.77.47-.65s.2.46.15.71c-.13.69-.25,1.85-.81,2.29Z"/>
      <path d="M105.37,4.49c.23-.05.41.12.39.38-.06.8-.3,1.96-.77,2.61l-.07-1.38c.19-.33.07-1.53.45-1.61Z"/>
      <polygon points="102.84 3.18 101.81 6.36 101.74 5.17 102.28 2.99 102.84 3.18"/>
      <path d="M60.69,17.79l-.38,1.12-1.49-.37c.08-.99,1.14-.74,1.87-.75Z"/>
      <path d="M106.77,4.86l-.02,1.2-.45,1.98-.08-2.32c.17-.31-.03-1,.54-.86Z"/>
      <path d="M59.75,19.1c.13.48-.39.44-.52.6-.02.03.07.55-.04.71l-1.31-.38c.44-.45,1.26-.91,1.87-.93Z"/>
      <path d="M58.07,18.72c-.3.67-1.22.71-1.87.75-.16-.15.42-1,.65-1.1.34.38.73.4,1.22.35Z"/>
      <path d="M57.24,20.6l1.39.46c-.03.67-2.44.32-1.39-.46Z"/>
      <path d="M83.61.39c-.47-.15-1.96.11-2.55.21-10.11,1.65-17.96,8.38-23.48,16.61-.2.3-1.11.86-.36.94.44.05.85.17,1.29.21l.76-1.86c.65.24,1.51.26,1.6,1.1.63-.08.69-.67.93-.94-.05.05-.93-.23-1.12-.29-.2-.06-.74,0-.57-.36.32-.66.91-.33,1.47-.25l.22.91c.41-.45.88-.79,1.31-1.22l-1.41-.65c-.3-.42.51-.89.85-.76-.14.66.13.9.75,1.04,2.61-2.44,5.37-4.89,8.44-6.74,3.69-2.22,7.88-3.59,12.16-4.14,1.11-.35.26-3.63-.31-3.81ZM62.75,13.39c.48-.72,1.39-.62,1.5.28-.64.21-1.05.36-1.5-.28Z"/>
      <path d="M214.14,187.86c-3.92-17.92-21.07-24.71-32.21-37.43-8.69-9.94-11.74-23.13-19.85-33.41-11.93-15.84-35.3-20.84-52.13-9.33-10.01,6.64-15.6,17.33-21.55,27.44-4.84,8.52-10.72,16.67-18.28,22.96-4.72,4.13-9.58,7.74-14.1,12.15-25.42,22.45-9.27,68.63,23.87,69.08,11.08.31,19.7-5.99,29.48-10.41,27.49-13.29,41.92,6,70.01,4.53,4.03-.47,7.64-1.7,10.99-3.38,14.43-7.25,21.51-23.24,20.91-38.71.01-.12.03-.22.05-.29.02-.08.05-.12.08-.13.03,0,.07.03.1.11.03.06.07.16.11.28,2.25,8.35.5,19.57-4.11,27.22-7.29,12.94-21.6,21.89-36.77,20.92-5.31-.36-10.74-1.77-15.93-2.84-16.18-3.44-28.45-5.92-43.7-1.61-4.91,1.36-10.95,3.83-16.28,6.57-1.52.78-2.22,1.19-1.71,1.06.8-.24,3.69-1.33,5.15-1.88,38.16-15.22,65.41,14.71,98.03-4.1,15.52-10.25,22.33-30.77,17.88-48.63l-.04-.16ZM54.98,210.55c.21,1.13.19,1.56-.12,1.11-5.07-9.65-5.04-22.96,1.65-32,.24-.17.28.09.15.74-3.06,9.6-3.95,20.29-1.7,30.02l.02.12ZM172.57,143.74c3.71,7.5,8.29,14.82,13.66,21.37.55.84,2.03,2.3,1.78,3.12-.91.17-2.39-1.19-3.26-1.82-6.45-5.37-10.23-14.52-12.2-22.67h.01ZM106.06,117.87c18.86-20.89,58.42-9.13,62.07,19.05,1.4,8.27-1.53,16.29,1.76,24.29,3.73,10.21,15.45,12.31,21.36,20.61,8.91,12.07,2.45,28.88-10.56,37.23,6.94-4.46,16.51-21.4,9.3-35.19-2.05-3.94-6.09-7.05-9.82-9.36-8.7-4.93-13.21-12.04-13.44-22.1-.31-6.12.71-12.35-.88-18.39-5.96-23.94-38.53-32.08-57.82-17.22-.19.13-.37.26-.53.38-1.36.98-1.95,1.31-1.48.73l.04-.04ZM157.28,134.99c2.31,14.92-4.27,29.66,8.43,41.92,3.48,3.59,8.2,6.12,12.06,9.01,3.57,2.92,3.94,3.67-.07.69-1.66-1.19-3.5-2.21-5.36-3.3-19.85-10.26-17.89-29.29-15.84-48.31h.79ZM127.66,127.69c-5.65-4.02-10.65-5.36-17.06-2.79-.91.36-1.88,1.14-2.65,1.57-.37.2-.51.24-.4.1,11.25-11.2,30.89-1.2,31.24,15.01.1,1.87.02,3.01-.07,2.74-2.84-8.45-4.61-10.59-9.68-15.73l-1.39-.89ZM97.83,162.35c1.02-4,3.56-7.08,6.47-9.93,1.86-1.92,3.6-4.14,5.44-6.09,6.98-7.28,16.83-3.44,20.15,5.41,3.45,9.48,2.85,24.36-4.14,31.02-.82.8-2.46,2.2-2.17,3.11,1.11,1.97,5.56,1.19,7.47.13,13.75-7.86,12.89-32.47,1.59-41.87-.66-.63-2.74-1.81-2.74-2.11.17,0,.97.35,2.08.94,14.01,7.17,15.77,32.04,3.3,42.2-4.57,3.81-10.66,4.37-15.64.59-7.58-5.49-2.96-12.57-3.98-20.04-.58-7.3-6.96-13.29-12.4-5.89-6.6,10.99-1.9,32.07,9.06,39.49,12.48,8.81,28.07-3.11,40.1,5.02,4.96,2.92,7.92,9.98,11.01,14.12-4.92-5.2-6.75-12.39-14.23-14.42-4.95-1.75-10.02-1.38-15.08-.13-26.13,6.89-43.37-16.74-36.35-41.37l.05-.16ZM132.28,215.18c-17.02.06-22.4,7.76-37.73,11.7-1.73.44-1.22.3.17-.31,12.23-5.05,23.96-14.36,37.6-11.39h-.04ZM139.44,205.59c-.7-.02-.94-.05-.66-.09,5.92-.52,12.63.82,17.44,4.49.13.14,0,.08-.43-.04-7.1-2.08-10.65-4.5-16.24-4.35h-.12ZM206.03,209.18c-8.1,24.19-38.55,27.12-58.03,14.83-2.31-1.43-1.73-1.44.58-.57,21.4,9.09,46.32,7.36,57.26-15.28.96-1.53.55.06.23.89l-.04.13Z"/>
      <path d="M109.62,151.41c1.44-5.04,4.34-7.24,9.85-6.6,9.42,3.32,13.14,22.18,6.3,34.31-2.9,5.34-6.5,5.87-7.48-.2-.54-3.28,1.13-4.38,1.51-8.6-.05-6.73-.97-11.16-6.3-14.32-2.88-.39-4.66-1.77-3.87-4.58Z"/>
    </g>
  </g>
</svg>