<?xml version="1.0" encoding="UTF-8"?>
<svg id="Layer_1" data-name="Layer 1" xmlns="http://www.w3.org/2000/svg" viewBox="0 0 491.52 491.52">
  <defs>
    <style>
      .cls-1 {
        font-family: Century, Century;
        font-size: 18px;
      }
    </style>
  </defs>
  <g>
    <path d="M192.95,376.37c-1.04,0-1.98-.25-2.81-.75s-1.49-1.24-1.98-2.21-.73-2.16-.73-3.54c0-2.82.93-5.21,2.79-7.17.42-.45.63-.69.63-.74-.02-.02-.17-.13-.44-.32-.75-.5-1.39-1.23-1.91-2.17s-.78-2.11-.78-3.51c0-.93.08-1.71.23-2.36.5-2.04,1.38-4.02,2.64-5.93s2.66-3.55,4.23-4.91,3.04-2.27,4.44-2.74c.41-.14.75-.22,1.01-.25s.81-.04,1.63-.04c.38,0,.64.01.8.04s.33.08.5.16c1.02.47,1.78,1.22,2.28,2.27s.75,2.23.75,3.55-.17,1.93-.51,1.93c-.02,0-.13-.01-.32-.04-.02-1.63-.11-2.82-.26-3.59s-.5-1.32-1.05-1.67c-.27-.16-.52-.25-.74-.25s-.45.08-.69.25c-.49.36-1.25,1.17-2.28,2.43s-2.07,2.64-3.15,4.16-1.91,2.82-2.5,3.91c-.91,1.63-1.57,2.92-1.97,3.88s-.6,1.72-.6,2.29c0,.22.04.53.13.93s.21.6.38.6c.11,0,.35-.11.74-.32,1.59-.96,3.17-1.44,4.73-1.44,1.03,0,1.89.13,2.58.4s1.04.61,1.04,1.05-.38.88-1.13,1.33-1.75.79-2.98,1.03c-.54.08-.89.18-1.05.31s-.41.42-.76.89c-1.03,1.24-1.83,2.6-2.4,4.07s-.86,2.93-.87,4.39c0,.5.01.84.04,1.01s.08.33.16.48c.11.21.25.36.43.45s.45.13.8.13c2,0,4.34-1.04,7-3.13.45-.35,1.36-1.22,2.74-2.59s2.26-2.29,2.62-2.75c.34-.41.57-.62.69-.62.11,0,.2.03.29.1s.13.14.13.22c0,.14-.57.88-1.72,2.22s-2.12,2.41-2.92,3.19c-1.63,1.62-3.34,2.92-5.12,3.9s-3.37,1.48-4.74,1.48ZM197.8,361.79c.25,0,.72-.11,1.42-.34s1.17-.47,1.43-.71c.16-.16.25-.28.25-.35,0-.09-.15-.14-.46-.14-.27,0-.67.13-1.2.38s-.95.52-1.27.8c-.19.16-.28.28-.28.33,0,.02.04.04.11.04Z"/>
    <path d="M211.82,371.22c-.11,0-.29-.03-.54-.09-.27-.07-.66-.37-1.17-.9s-.91-1.04-1.19-1.55c-.2-.35-.35-.59-.45-.71s-.26-.24-.48-.36c-.75-.42-1.12-1.01-1.12-1.78,0-.27.06-.58.19-.92s.19-.58.19-.69c0-.08-.01-.17-.04-.26-.19-.8-.36-1.96-.53-3.5s-.25-3.28-.25-5.22.06-3.39.18-4.34c.25-2.14.62-3.98,1.13-5.5s1.14-2.69,1.89-3.49,1.59-1.2,2.53-1.2c.6,0,1.1.16,1.51.48s.62.74.62,1.24c0,.25-.19,1.11-.58,2.6-.89,3.59-1.48,6.41-1.78,8.47s-.44,4.13-.44,6.21c1.2-1.02,2.46-1.99,3.78-2.9.54-.36.95-.6,1.24-.72s.62-.18.99-.18c.6,0,1.06.14,1.4.41s.5.58.5.92c0,.41-.43,1.02-1.29,1.83s-2.45,2.09-4.75,3.83c-.29.22-.62.46-.98.72s-.56.41-.6.46-.06.11-.06.19c0,.62.11,1.52.33,2.71,1.65-.08,3.27-.26,4.85-.53s3.42-.71,5.52-1.32c.54-.15.91-.23,1.11-.23.21,0,.32.08.32.25,0,.12-.05.22-.15.3s-.35.19-.75.33-1.08.34-2.04.61c-2.11.61-3.71,1.02-4.82,1.24s-2.37.4-3.81.55c.09.71.15,1.22.18,1.51.02.32.06.56.11.72s.07.25.07.26c0,.15-.09.28-.27.39s-.37.16-.55.16Z"/>
    <path d="M235.18,371.92c-1,0-1.97-.47-2.91-1.42s-1.72-2.31-2.33-4.08l-.37-1.18c-.71,1.91-1.37,3.28-1.95,4.11s-1.29,1.25-2.11,1.25c-.76,0-1.48-.32-2.16-.97s-1.17-1.58-1.48-2.79c-.09-.34-.15-.65-.17-.94s-.03-.86-.03-1.71c0-1.03.05-1.82.15-2.36s.29-1.13.57-1.77c.56-1.23,1.24-2.17,2.04-2.83s1.68-.98,2.64-.98c.45,0,.87.08,1.28.25s.76.39,1.05.69c.16.16.28.25.35.25.01,0,.02,0,.04-.02.11-.28.29-.65.54-1.1s.47-.76.63-.92c.29-.29.63-.52,1.02-.69s.77-.25,1.14-.25.74.09,1.06.28.48.53.48,1.04c0,.34-.11,1.08-.33,2.21s-.39,2.19-.53,3.16-.2,2.04-.2,3.21c0,1.23.07,2.24.21,3.02s.39,1.52.74,2.2c.13.27.32.53.57.79s.44.39.55.39c.25,0,.52-.15.81-.44s.54-.67.76-1.14c.14-.33.33-.93.55-1.79s.41-1.5.55-1.91.3-.61.47-.61l.09.02c.11.04.16.14.16.32,0,.4-.13,1.14-.4,2.22s-.56,1.92-.86,2.5c-.69,1.34-1.58,2-2.65,2ZM226.16,368.61c.07,0,.24-.2.52-.61s.59-.96.96-1.67.76-1.63,1.18-2.75c.16-.46.26-.78.29-.98s.04-.61.04-1.24c0-.69.04-1.34.12-1.93.05-.28.07-.46.07-.54,0-.12-.05-.22-.16-.3s-.21-.12-.3-.12c-.27,0-.64.53-1.1,1.58s-.87,2.29-1.22,3.72-.53,2.65-.53,3.68c0,.77.04,1.16.12,1.16Z"/>
    <path d="M244.77,371.92c-.23,0-.45-.02-.65-.05-1.11-.18-2.21-.87-3.29-2.09s-2.02-2.84-2.82-4.86-1.37-4.28-1.71-6.78c-.12-.86-.18-2.21-.18-4.06,0-1.23.03-2.22.09-2.96s.13-1.29.2-1.63.11-.53.11-.56c0-.07-.15-.11-.46-.11-1.15,0-2.31.06-3.47.17s-2.09.34-2.79.69c-.3.15-.55.36-.75.62s-.35.49-.47.67-.26.27-.41.27c-.26,0-.52-.13-.77-.39s-.39-.57-.39-.93c0-.59.27-1.11.81-1.57s1.36-.83,2.46-1.11,2.47-.41,4.11-.41c.22,0,1.08.01,2.58.04.46-1.24.83-2.14,1.12-2.71s.67-.99,1.13-1.29,1.11-.45,1.93-.45c.61,0,1.1.16,1.47.49s.55.76.55,1.28c0,.35-.18,1.39-.53,3.11v.02c.16.06,1.16.18,2.98.36s3.31.27,4.46.27c1.71,0,3.04-.11,3.97-.34s1.41-.53,1.41-.91c0-.11-.03-.25-.08-.45s-.08-.32-.08-.38c0-.15.08-.23.23-.23.18,0,.36.13.55.39s.29.58.29.97c0,.48-.31.9-.93,1.26s-1.48.63-2.58.81-2.35.27-3.74.27c-.39,0-1.5-.03-3.34-.1s-3.02-.1-3.55-.1c-.33,1.88-.55,3.4-.68,4.57s-.18,2.74-.18,4.71c0,1.57.08,3.02.23,4.36s.36,2.53.63,3.57.59,1.92.97,2.65.78,1.27,1.21,1.66c.14.12.24.19.31.23s.16.05.27.05c.08,0,.24-.01.47-.04s.38-.04.45-.04c.29,0,.44.1.44.3,0,.22-.14.4-.41.54s-.67.2-1.17.2Z"/>
    <path d="M251.84,371.92c-.96,0-1.93-.26-2.9-.78s-1.8-1.37-2.47-2.55-1.01-2.69-1.01-4.54c0-.71.01-1.23.04-1.54s.08-.64.16-.98c.75-2.87,2.26-4.77,4.52-5.7.22-.09.42-.16.61-.19s.42-.05.73-.05c.87,0,1.52.17,1.97.5s.67.89.67,1.66c0,.71-.26,1.47-.77,2.27s-1.17,1.45-1.97,1.97c-.32.19-.52.35-.6.5s-.19.53-.33,1.15c-.19.81-.28,1.64-.28,2.5,0,1.41.21,2.49.63,3.24s1.11,1.13,2.06,1.13c.77,0,1.55-.36,2.33-1.07s1.52-1.55,2.22-2.51c.6-.83.96-1.33,1.1-1.49s.25-.24.36-.24.19.04.26.12c.04.04.05.08.05.12,0,.19-.36.81-1.09,1.87s-1.32,1.84-1.78,2.35c-1.36,1.5-2.86,2.25-4.5,2.25ZM251.33,360.77c.52-.57.89-1.04,1.12-1.39s.34-.73.34-1.14c0-.13-.02-.19-.05-.19-.07,0-.25.27-.54.8s-.53,1.05-.73,1.56l-.14.37Z"/>
    <path d="M262.53,371.92c-.39,0-.68-.04-.88-.11-1.03-.41-1.9-1.46-2.62-3.14s-1.07-3.73-1.07-6.14c0-1.1.13-2.1.39-2.99s.6-1.53,1.04-1.92c.28-.25.6-.44.97-.57s.73-.2,1.11-.2c.46,0,.87.09,1.25.28.81.4,1.21,1.05,1.21,1.95,0,.32-.07,1.03-.2,2.14s-.23,1.97-.3,2.58-.1,1.25-.1,1.91c0,.2.01.3.04.3s.13-.55.33-1.65.39-2.14.59-3.13.42-1.85.67-2.6c.95-2.79,2.05-4.18,3.3-4.18.67,0,1.22.24,1.64.71s.64,1.28.64,2.42c0,.39-.03.97-.08,1.76s-.08,1.35-.08,1.69c0,1.58.3,2.37.9,2.37.12,0,.3-.04.55-.12s.41-.12.48-.12c.08,0,.17.03.25.09s.13.12.13.19c0,.15-.23.32-.68.49s-.86.26-1.24.26c-.63,0-1.2-.27-1.69-.81-.42-.47-.73-1.05-.92-1.74s-.36-1.79-.5-3.3c-.13-1.37-.21-2.09-.23-2.14h-.02c-.08,0-.26.18-.54.55s-.5.71-.65,1.03c-.45.94-.81,2.08-1.09,3.43s-.59,3.37-.91,6.06c-.19,1.45-.35,2.5-.48,3.13s-.28,1.04-.43,1.21c-.13.21-.39.32-.77.32Z"/>
    <path d="M279.33,371.92c-.38,0-.75-.05-1.12-.16-1.51-.42-2.63-1.39-3.36-2.92-.48-1.01-.83-2-1.05-2.96s-.33-2.32-.33-4.07.3-2.96.89-3.77,1.37-1.22,2.33-1.22c.55,0,1.01.13,1.39.39s.63.63.76,1.11c.04.13.05.33.05.6,0,.19-.05,1.02-.14,2.5s-.14,2.77-.14,3.88c0,1.29.05,2.19.16,2.69.18.94.38,1.59.62,1.95s.52.54.84.54c.3,0,.65-.21,1.03-.63s.67-.94.85-1.55c.12-.4.22-.97.32-1.71s.17-1.24.24-1.51.18-.4.34-.4c.15,0,.25.04.3.12s.07.32.07.7c0,1.89-.34,3.43-1.01,4.62s-1.68,1.79-3.03,1.79ZM276.5,355.22c-.2,0-.38-.03-.54-.09-.52-.14-.86-.42-1.04-.83-.35-.71-.53-1.69-.53-2.94,0-.59.24-1.05.73-1.39s1.04-.51,1.66-.51c.54,0,1.03.12,1.48.36s.67.73.67,1.47c0,1.15-.18,2.09-.55,2.82s-.99,1.1-1.87,1.1Z"/>
    <path d="M296.89,371.92s-.26-.03-.65-.09c-.91-.15-1.78-.62-2.59-1.39s-1.48-1.89-2-3.36-.77-3.25-.77-5.34c0-.96.05-1.95.16-2.97,0-.02,0-.04-.02-.04-.06,0-.21.29-.46.86s-.56,1.48-.95,2.72-.81,2.8-1.28,4.68c-.35,1.43-.62,2.44-.82,3.04s-.39,1-.6,1.2-.5.31-.87.31c-.63,0-1.21-.24-1.73-.73s-.93-1.22-1.24-2.2-.46-2.18-.46-3.61c0-1.73.23-3.09.68-4.08s1.26-1.48,2.43-1.48c.64,0,1.15.19,1.5.58s.54.94.54,1.65c0,.29-.1,1.29-.31,3s-.31,2.63-.31,2.77c0,.06,0,.09.02.09.05,0,.34-.94.88-2.81.59-1.95,1.1-3.47,1.53-4.58s.86-2.12,1.28-3.04.66-1.45.7-1.59c.14-.46.38-.79.71-1.01s.72-.33,1.15-.33c.86,0,1.5.36,1.93,1.09s.65,1.88.65,3.45c0,.6-.04,1.6-.11,3s-.11,2.48-.11,3.23c0,1.16.08,2.15.25,2.96s.39,1.43.67,1.85.6.62.95.62.67-.14,1-.42.71-.75,1.14-1.42.97-1.6,1.62-2.82c.27-.52.46-.83.57-.96s.22-.18.33-.18c.19,0,.33.07.42.21v.02c0,.13-.27.78-.82,1.95s-.97,2.02-1.27,2.53c-.66,1.03-1.35,1.77-2.09,2.21-.71.28-1.27.42-1.67.42Z"/>
    <path d="M314.89,371.92c-1,0-1.97-.47-2.91-1.42s-1.72-2.31-2.33-4.08l-.37-1.18c-.71,1.91-1.37,3.28-1.95,4.11s-1.29,1.25-2.11,1.25c-.76,0-1.48-.32-2.16-.97s-1.17-1.58-1.48-2.79c-.09-.34-.15-.65-.17-.94s-.03-.86-.03-1.71c0-1.03.05-1.82.15-2.36s.29-1.13.57-1.77c.56-1.23,1.24-2.17,2.04-2.83s1.68-.98,2.64-.98c.45,0,.87.08,1.28.25s.76.39,1.05.69c.16.16.28.25.35.25.01,0,.02,0,.04-.02.11-.28.29-.65.54-1.1s.47-.76.63-.92c.29-.29.63-.52,1.02-.69s.77-.25,1.14-.25.74.09,1.06.28.48.53.48,1.04c0,.34-.11,1.08-.33,2.21s-.39,2.19-.53,3.16-.2,2.04-.2,3.21c0,1.23.07,2.24.21,3.02s.39,1.52.74,2.2c.13.27.32.53.57.79s.44.39.55.39c.25,0,.52-.15.81-.44s.54-.67.76-1.14c.14-.33.33-.93.55-1.79s.41-1.5.55-1.91.3-.61.47-.61l.09.02c.11.04.16.14.16.32,0,.4-.13,1.14-.4,2.22s-.56,1.92-.86,2.5c-.69,1.34-1.58,2-2.65,2ZM305.88,368.61c.07,0,.24-.2.52-.61s.59-.96.96-1.67.76-1.63,1.18-2.75c.16-.46.26-.78.29-.98s.04-.61.04-1.24c0-.69.04-1.34.12-1.93.05-.28.07-.46.07-.54,0-.12-.05-.22-.16-.3s-.21-.12-.3-.12c-.27,0-.64.53-1.1,1.58s-.87,2.29-1.22,3.72-.53,2.65-.53,3.68c0,.77.04,1.16.12,1.16Z"/>
  </g>
  <g>
    <path d="M160.21,408.81c-1.52,0-2.77-.25-3.76-.74s-1.72-1.13-2.17-1.91-.69-1.62-.69-2.52c0-1.53.54-3.14,1.61-4.84s2.55-3.25,4.43-4.67c1.88-1.42,3.95-2.49,6.2-3.23.78-.27,1.17-.43,1.17-.47-.22-.12-.61-.21-1.18-.27-.57-.05-1.5-.08-2.8-.08-.78,0-1.91.01-3.38.04s-2.41.04-2.81.04c-.51,0-.87-.01-1.09-.04s-.48-.09-.78-.18c-1.35-.42-2.31-1.1-2.88-2.02-.57-.92-.85-2.03-.85-3.31,0-3.75,2.04-7.73,6.11-11.96,1.39-1.48,2.83-2.71,4.32-3.71s2.9-1.74,4.25-2.24c1.35-.49,2.55-.74,3.6-.74,1.87,0,3.24.68,4.1,2.04s1.29,3.41,1.29,6.14c0,1.3,0,2.28-.03,2.94-.02.66-.06,1.14-.11,1.44-.05.29-.13.48-.22.54s-.23.1-.42.1c-.22,0-.36-.04-.43-.12-.03-.03-.06-.66-.09-1.91s-.11-2.42-.22-3.54c-.12-1.11-.32-1.99-.61-2.63-.25-.55-.55-.97-.92-1.28-.37-.31-.69-.46-.96-.46-.38,0-1.1.41-2.15,1.22-1.05.81-2.23,1.87-3.53,3.17s-2.49,2.62-3.57,3.98c-1.34,1.68-2.57,3.53-3.68,5.56s-1.67,3.39-1.67,4.1c0,.38.28.65.83.79.55.14,1.43.22,2.64.22.42,0,1.11-.02,2.06-.05.95-.03,1.67-.05,2.16-.05,1.74,0,3.2.11,4.4.32,1.2.21,2.25.55,3.17,1.01.23.14.73.22,1.5.25s1.43.07,1.99.12c1.16.12,1.96.24,2.41.35.44.11.67.24.67.39,0,.08-.03.15-.09.22-.06.06-.15.09-.28.09.05,0-.49-.06-1.63-.2-1.14-.13-2.07-.19-2.78-.19-.14,0-.21,0-.21.02l.49.51c1.35,1.41,2.03,3.03,2.03,4.86,0,1.64-.53,3.34-1.6,5.09s-2.53,3.3-4.4,4.66c-1.87,1.35-3.92,2.29-6.16,2.81-.93.23-2.02.35-3.26.35ZM158.8,405.86c1.15,0,2.43-.44,3.86-1.32,1.42-.88,2.74-2.08,3.96-3.6s2.12-3.17,2.71-4.96c.23-.72.35-1.4.35-2.03,0-.67-.09-1.19-.28-1.55-.19-.36-.52-.81-1.02-1.34-1.98.55-3.67,1.18-5.07,1.89s-2.71,1.65-3.94,2.83c-1.2,1.16-2.12,2.35-2.74,3.56-.62,1.21-.93,2.34-.93,3.39,0,.97.28,1.74.83,2.3s1.31.84,2.27.84Z"/>
    <path d="M195.16,405.29c-.26,0-.52-.02-.78-.06-1.45-.22-2.73-1.12-3.86-2.7-1.12-1.58-1.9-3.69-2.34-6.33-.11-.7-.16-1.72-.16-3.08v-1c0-1.72-.03-2.66-.1-2.81-.74,1.07-1.74,3.76-3.01,8.08-.42,1.48-.75,2.51-.96,3.11-.22.6-.43.99-.65,1.18-.21.19-.51.29-.89.29-.67,0-1.28-.3-1.84-.91-.55-.61-1.06-1.62-1.53-3.05-.42-1.29-.72-2.65-.88-4.08s-.25-3.42-.25-5.95c0-1.63.01-2.79.04-3.49s.1-1.47.21-2.32c.31-2.71.7-4.94,1.16-6.69.46-1.75,1.08-3.13,1.87-4.13.79-1.01,1.89-1.02,2.98-.25.52.3.78.75.78,1.33,0,.29-.14,1-.41,2.15-1.87,8.01-2.58,12.34-1.24,21.28.2,1.33.04,2.01.12,2.01.01,0,.19-.58.54-1.75.35-1.17.75-2.41,1.22-3.72s.96-2.51,1.5-3.59c.44-.88.81-1.53,1.12-1.97.31-.44.63-.74.96-.91.33-.17.76-.26,1.28-.26.59,0,1.12.15,1.6.45s.85.71,1.13,1.23c.33.6.55,1.67.66,3.21.11,1.54.19,3.4.24,5.58.05,2.18.11,3.46.17,3.83.23,1.3.54,2.25.91,2.86.38.61.8.91,1.26.91.68,0,1.33-.72,1.93-2.17.27-.68.5-1.39.67-2.12.17-.73.31-1.28.43-1.63s.28-.53.48-.53c.15,0,.26.03.33.08s.1.19.1.41c0,.33-.12,1.03-.35,2.09s-.44,1.85-.62,2.34c-.74,2.05-2.01,3.08-3.81,3.08Z"/>
    <path d="M216.55,406.61c-.42,0-.8-.06-1.13-.18-1.12-.4-2.24-1.28-3.34-2.65s-1.9-2.84-2.38-4.43c-.19-.67-.35-1.31-.46-1.92-.12-.61-.21-1.15-.28-1.64-.07-.48-.11-.73-.12-.73l-.31,1.46c-.41,2.16-.96,3.69-1.64,4.58s-1.57,1.34-2.67,1.34-2.16-.45-3.12-1.36c-.96-.91-1.72-2.07-2.28-3.49-.56-1.41-.84-2.83-.84-4.23,0-1.65.33-3.01.97-4.07.65-1.06,1.6-1.59,2.86-1.59.59,0,1.17.17,1.74.51s.86.89.86,1.64c0,.23-.05.76-.15,1.59-.1.83-.18,1.56-.24,2.21s-.08,1.32-.08,2.03c0,1,.07,1.84.21,2.52s.29,1.2.46,1.54c.17.34.29.51.36.51.04,0,.2-.15.47-.45.41-.45.75-1.09,1.02-1.93.27-.83.66-2.37,1.17-4.59.51-2.23.93-3.98,1.26-5.25.21-.79.41-1.38.62-1.77.21-.39.46-.65.74-.78s.66-.2,1.14-.2c.62,0,1.2.18,1.74.55s.96.87,1.23,1.5c.38.81.6,2.23.65,4.28.05,2.04.09,4.15.11,6.31s.21,3.73.53,4.7c.18.56.41,1.07.71,1.52s.53.68.71.68c.23,0,.49-.25.78-.74s.51-1.06.66-1.7c.1-.42.22-1.22.37-2.4s.23-1.93.23-2.28c0-.27.04-.46.11-.57.07-.11.21-.16.42-.16s.34.05.4.15c.06.1.09.37.09.79,0,.55-.03,1.39-.1,2.53-.07,1.14-.13,1.97-.18,2.47-.33,2.47-1.43,3.71-3.3,3.71Z"/>
    <path d="M248.21,405.29c-.51,0-.9-.04-1.19-.12-1.11-.31-2.21-.96-3.29-1.94-1.09-.98-1.91-2.07-2.47-3.27-.53-1.19-.94-2.68-1.21-4.47.15,1.15.16,1.19.03.13-.13-1.06-.22-1.59-.26-1.59-.05,0-.34.52-.86,1.56s-.95,1.88-1.3,2.52c-.35.64-.68,1.13-1,1.46-.48.49-1.07.74-1.78.74-.62,0-1.24-.19-1.87-.56s-1.18-.9-1.66-1.57c-.62-.86-1.09-1.85-1.43-2.96-.33-1.11-.59-2.54-.77-4.28-.08-.81-.14-1.21-.16-1.21-.08,0-.29.33-.62,1s-.76,1.78-1.3,3.34c-.54,1.56-1.15,3.59-1.84,6.09-.4,1.42-.72,2.45-.97,3.1s-.47,1.04-.66,1.19c-.18.15-.43.23-.73.23-.51,0-1.06-.31-1.65-.92-.59-.62-1.1-1.48-1.52-2.58s-.62-2.34-.62-3.71c0-1.63.31-2.89.92-3.8.62-.91,1.49-1.36,2.62-1.36,1.52,0,2.28.68,2.28,2.05,0,.53-.2,2.04-.59,4.53.05,0,.36-.82.9-2.46.77-2.34,1.56-4.42,2.39-6.25.83-1.83,1.3-2.91,1.42-3.22.14-.4.42-.72.86-.97s.94-.39,1.5-.4c1.61,0,2.69.83,3.22,2.48.3.75.52,2.56.66,5.41.16,3.25.38,4.88.64,4.88.07,0,.2-.11.39-.33.4-.44.86-1.16,1.38-2.17s1.01-2.02,1.45-3.02c.44-1.01.66-1.55.66-1.63,0-.4.24-.76.73-1.09s1.02-.49,1.61-.49c.52,0,1.02.12,1.5.36.48.24.86.57,1.15,1,.4.59.67,1.3.82,2.12.15.83.27,1.92.36,3.27.09,1.35.19,2.44.3,3.26s.33,1.58.66,2.28c.3.63.66,1.11,1.08,1.45.42.34.88.5,1.38.5.74,0,1.48-.35,2.24-1.05.56-.51,1.12-1.26,1.67-2.28.55-1.01,1.03-1.9,1.42-2.68.39-.77.67-1.16.85-1.16.07,0,.15.03.25.1s.14.14.14.21c0,.23-.35,1.08-1.05,2.54s-1.16,2.39-1.39,2.77c-.62.94-1.34,1.68-2.16,2.21-.83.53-1.86.79-3.11.79Z"/>
    <path d="M257.93,405.29c-.44,0-.78-.03-1.03-.1-1.67-.48-2.5-1.42-2.5-2.81,0-1.07.6-2.15,1.82-3.24,1.21-1.09,2.82-1.97,4.83-2.62.62-.19.98-.32,1.11-.39v-.02c0-.15-.19-.32-.56-.52-.38-.2-.91-.37-1.61-.5-1.97-.37-3.35-.92-4.15-1.66-.8-.74-1.2-1.78-1.2-3.14,0-1.03.25-2.13.76-3.31.51-1.18,1.2-2.18,2.07-2.99.88-.81,1.84-1.22,2.89-1.22.49,0,.87.05,1.14.15.27.1.5.28.69.54.22.3.42.98.62,2.05s.29,2.04.29,2.91c0,.46-.02.81-.07,1.03s-.11.36-.19.41-.2.08-.35.08c-.11,0-.2-.24-.27-.73s-.15-1.08-.25-1.79c-.1-.7-.23-1.27-.39-1.69-.45,1.15-.87,2.44-1.25,3.87-.38,1.43-.57,2.35-.57,2.76,0,.21.25.33.74.39.49.05,1.14.13,1.94.23.8.1,1.51.29,2.14.57.33.16.68.4,1.06.72.38.31.65.6.81.86.05.08.1.14.14.16s.11.04.21.04c.07,0,.35-.03.84-.09.49-.06.83-.09,1.03-.09.21,0,.38.06.53.18.12.1.18.18.18.25,0,.12-.17.22-.5.29-.34.07-.95.15-1.84.25.15.51.23,1.02.23,1.54,0,.89-.28,1.83-.85,2.83-.57,1-1.3,1.83-2.18,2.5-.86.67-1.86,1.22-3,1.66-1.14.44-2.23.66-3.27.66ZM257.22,403.3c.56,0,1.21-.19,1.95-.57,1.6-.78,2.6-2.02,2.99-3.73.15-.55.23-1.01.23-1.39,0-.23-.03-.35-.1-.35-.12,0-.55.16-1.27.48s-1.28.59-1.66.81c-.92.52-1.65,1.12-2.21,1.79-.56.68-.84,1.28-.84,1.82,0,.3.1.57.29.8s.4.35.64.35Z"/>
    <path d="M274.16,403.63c-.12,0-.33-.03-.64-.1-.31-.08-.77-.43-1.36-1.05-.6-.62-1.06-1.22-1.38-1.8-.23-.41-.41-.69-.52-.83-.12-.14-.3-.28-.56-.42-.88-.49-1.31-1.18-1.31-2.07,0-.31.08-.67.23-1.08s.23-.67.23-.81c0-.1-.01-.2-.04-.31-.22-.93-.42-2.29-.62-4.08s-.29-3.82-.29-6.09.18-5.86.78-7.63c.59-1.78,1.33-3.13,2.2-4.07.88-.94,1.26-1.04,2.35-1.04.7,0,1.76.45,2.05.98.41.75.81,1.96.36,3.7-1.04,4.18-.98,3.63-1.32,6.03s-.51,4.82-.51,7.24c1.39-1.19,2.86-2.32,4.41-3.38.63-.42,1.11-.7,1.45-.84s.72-.21,1.16-.21c.7,0,1.24.16,1.63.48.39.32.58.68.58,1.08,0,.48-.5,1.19-1.51,2.13-1.01.94-2.85,2.43-5.55,4.47-.34.26-.72.54-1.14.84-.42.3-.65.48-.7.53-.05.05-.07.13-.07.23,0,.72.13,1.78.39,3.16,1.93-.1,3.81-.3,5.66-.62s3.99-.83,6.44-1.54c.63-.18,1.06-.27,1.29-.27.25,0,.37.1.37.29,0,.14-.06.25-.17.35-.12.1-.41.22-.87.38-.46.16-1.26.39-2.38.71-2.46.71-4.33,1.19-5.62,1.45s-2.77.47-4.45.65c.11.83.18,1.42.21,1.76.03.37.07.65.12.84s.08.29.08.31c0,.18-.11.33-.32.45s-.43.18-.65.18Z"/>
    <path d="M301.64,405.29c-1.16,0-2.29-.55-3.39-1.66s-2.01-2.69-2.72-4.76l-.43-1.37c-.83,2.23-1.59,3.83-2.28,4.8s-1.5,1.46-2.46,1.46c-.89,0-1.73-.38-2.52-1.13s-1.37-1.84-1.72-3.26c-.11-.4-.17-.76-.19-1.1-.02-.33-.03-1-.03-2,0-1.2.06-2.12.17-2.76.12-.64.34-1.32.67-2.06.66-1.44,1.45-2.54,2.38-3.3s1.96-1.15,3.08-1.15c.52,0,1.02.1,1.5.29s.89.46,1.23.8c.19.19.33.29.41.29.01,0,.03,0,.04-.02.12-.33.33-.75.64-1.28s.55-.89.74-1.08c.34-.34.74-.61,1.19-.8s.9-.29,1.33-.29.86.11,1.24.33.56.62.56,1.21c0,.4-.13,1.26-.38,2.58-.25,1.33-.46,2.55-.62,3.68-.16,1.13-.24,2.38-.24,3.74,0,1.44.08,2.61.25,3.53s.45,1.77.86,2.56c.15.31.37.62.67.92s.51.45.65.45c.29,0,.6-.17.94-.51s.64-.79.88-1.33c.16-.38.38-1.08.65-2.09.27-1.01.48-1.75.65-2.23.16-.47.35-.71.55-.71l.1.02c.12.04.18.16.18.37,0,.46-.16,1.33-.47,2.59s-.65,2.24-1,2.92c-.81,1.56-1.84,2.34-3.1,2.34ZM291.11,401.44c.08,0,.28-.24.6-.71.32-.47.69-1.12,1.12-1.95.42-.83.88-1.9,1.37-3.21.19-.53.3-.91.34-1.14.03-.22.05-.71.05-1.45,0-.81.05-1.56.14-2.26.05-.33.08-.54.08-.64,0-.14-.06-.25-.18-.35s-.24-.14-.35-.14c-.31,0-.74.62-1.28,1.85-.54,1.23-1.02,2.68-1.43,4.34-.41,1.66-.62,3.09-.62,4.3,0,.9.05,1.35.14,1.35Z"/>
    <path d="M312.5,417.7c-1.52,0-2.74-.64-3.67-1.93s-1.39-3.01-1.39-5.17c0-2.57.83-4.85,2.5-6.85s3.82-3.53,6.46-4.59l1.07-.43v-2.89c0-1.75-.09-3.38-.27-4.88s-.33-2.26-.45-2.26c-.15,0-.43.35-.84,1.05s-.95,1.87-1.62,3.51c-.7,1.72-1.32,3.06-1.87,4.01-.55.95-1.11,1.63-1.68,2.04s-1.23.62-1.97.62c-1.11,0-2.15-.5-3.14-1.5-.53-.53-.95-1.15-1.26-1.85-.31-.7-.53-1.46-.66-2.28s-.2-1.72-.2-2.69c0-1.18.13-2.2.38-3.09.25-.88.61-1.53,1.08-1.94.34-.29.73-.51,1.18-.67s.9-.24,1.36-.24c.78,0,1.44.21,1.98.64.54.42.81.95.81,1.58,0,.26-.11,1.01-.33,2.26s-.4,2.33-.53,3.27-.21,1.82-.21,2.66c0,1.33.15,1.99.45,1.99.4,0,.97-.54,1.71-1.61s1.57-2.65,2.47-4.73c.55-1.29,1.04-2.28,1.48-2.99s.86-1.22,1.28-1.52c.42-.3.87-.45,1.36-.45.78,0,1.59.34,2.42,1.03.89.75,1.67,1.93,2.35,3.55.68,1.61,1.08,3.25,1.2,4.9.04.62.08.98.12,1.09.03.03.21.04.55.04s.81-.01,1.46-.04,1.11-.04,1.42-.04c.37,0,.62.02.75.06s.2.12.2.25c0,.21-.6.36-1.8.46-1.2.1-1.97.17-2.3.21-.1.01-.16.08-.2.21s-.06.44-.09.96c-.21,2.95-.89,5.84-2.04,8.67s-2.59,5.13-4.31,6.91-3.46,2.67-5.22,2.67ZM311.87,415.71c.41,0,.92-.27,1.53-.81.61-.54,1.19-1.41,1.73-2.61.68-1.49,1.2-3.16,1.56-5.01.36-1.85.61-4.16.76-6.92l.04-.68c-.75.18-1.75.64-2.98,1.39-1.24.75-2.31,1.61-3.21,2.58-.79.85-1.41,1.84-1.83,2.96-.43,1.13-.65,2.27-.65,3.44s.21,2.23.65,3.28c.43,1.05,1,1.76,1.71,2.11.36.18.59.27.7.27Z"/>
    <path d="M342.79,405.29c-1.16,0-2.29-.55-3.39-1.66s-2.01-2.69-2.72-4.76l-.43-1.37c-.83,2.23-1.59,3.83-2.28,4.8s-1.5,1.46-2.46,1.46c-.89,0-1.73-.38-2.52-1.13s-1.37-1.84-1.72-3.26c-.11-.4-.17-.76-.19-1.1-.02-.33-.03-1-.03-2,0-1.2.06-2.12.17-2.76.12-.64.34-1.32.67-2.06.66-1.44,1.45-2.54,2.38-3.3s1.96-1.15,3.08-1.15c.52,0,1.02.1,1.5.29s.89.46,1.23.8c.19.19.33.29.41.29.01,0,.03,0,.04-.02.12-.33.33-.75.64-1.28s.55-.89.74-1.08c.34-.34.74-.61,1.19-.8s.9-.29,1.33-.29.86.11,1.24.33.56.62.56,1.21c0,.4-.13,1.26-.38,2.58-.25,1.33-.46,2.55-.62,3.68-.16,1.13-.24,2.38-.24,3.74,0,1.44.08,2.61.25,3.53s.45,1.77.86,2.56c.15.31.37.62.67.92s.51.45.65.45c.29,0,.6-.17.94-.51s.64-.79.88-1.33c.16-.38.38-1.08.65-2.09.27-1.01.48-1.75.65-2.23.16-.47.35-.71.55-.71l.1.02c.12.04.18.16.18.37,0,.46-.16,1.33-.47,2.59s-.65,2.24-1,2.92c-.81,1.56-1.84,2.34-3.1,2.34ZM332.27,401.44c.08,0,.28-.24.6-.71.32-.47.69-1.12,1.12-1.95.42-.83.88-1.9,1.37-3.21.19-.53.3-.91.34-1.14.03-.22.05-.71.05-1.45,0-.81.05-1.56.14-2.26.05-.33.08-.54.08-.64,0-.14-.06-.25-.18-.35s-.24-.14-.35-.14c-.31,0-.74.62-1.28,1.85-.54,1.23-1.02,2.68-1.43,4.34-.41,1.66-.62,3.09-.62,4.3,0,.9.05,1.35.14,1.35Z"/>
  </g>
  <path d="M309.53,38.45c-.33.24-3.54-.95-4.24-1.11-4.4-1.04-8.88-1.06-13.31-.24-1.1.2-2.16.73-3.3.65-.19-.55.48-.93.49-1.32,0-.9-2.04-1.8-.02-2.89,4.78-2.57,14.5-3,19.51-1.01.85.33,2.18.94,2.48,1.86.2.62-1.44,3.21-1.61,4.06Z"/>
  <path d="M285.79,38.23c.09.51-.46.74-.83.96-1.59.94-3.65,1.66-5.33,2.59-5.05,2.81-9.39,6.23-13.28,10.48-1.05,1.14-1.79,2.61-3.11,3.49-.03-.45.38-.82.62-1.18,4.22-6.16,10.07-12.73,16.43-16.69,1.05-.65,2.15-1.2,3.22-1.82.58,1.1.87,1.99,2.28,2.16Z"/>
  <path d="M319.29,39.14c.09.19.11.57.16.91.05.45.39,1.4.02,1.73-.16.06-.35.02-.52.08-.2.08-.4.31-.55.44-.23.22-.5-.03-.68-.21-.19-.22-.36-.4-.26-.62.08-.19.35-.44.6-.75.28-.35.51-.84.71-1.21.2-.36.37-.58.47-.46l.05.08Z"/>
  <path d="M313.63,40.15l-.69-.51-.02-.31,1.79-2.54c.48.36.36.42.17.89-.35.88-1.23,1.5-1.25,2.47Z"/>
  <path d="M312.19,38.95c-.66.15-.53-.34-.48-.84.07-.75.21-1.33.24-2.16.02-.49.17-.49.6-.35.9.27-.46,2.69-.36,3.36Z"/>
  <path d="M316.03,41.11l-.71-.36c.91-.74.76-2.28,1.68-3,.28,1.34-.67,2.16-.96,3.36Z"/>
  <path d="M321.79,45.43c.15-1.14.43-2.94,1.44-3.6-.21,1.19-.43,2.79-1.44,3.6Z"/>
  <path d="M286.27,34.87l-.24,1.44-1.2-.24c-.18-.87.68-1.23,1.44-1.2Z"/>
  <path d="M321.55,40.87c-.39.86-.65,1.8-1.08,2.65-.18.35.02.59-.6.47-.18-.2.87-2.25,1.09-2.64.18-.33-.04-.6.59-.47Z"/>
  <path d="M324.38,46.15c-.08,0-.21-.3-.4-.4-.5-.19-.74-.07-.24-.86.28-.37.53-.82.88-1.14.49.07-.22,2.08-.19,2.37l-.05.03Z"/>
  <path d="M332.12,84.67c-3.93-46.87-56.8-44.88-69.24-3.47-16.39,37.19,10.3,92.21,52.2,60.1,13.97-12.79,18.46-38.46,17.04-56.63ZM325.63,97.63c-1.05,15.15-5.55,32.53-17.27,42.97-15.29,13.62-33.58,8.05-38.39-11.78-.56-.84.56-1.28.64-.16,1.57,4.18,3.22,8.39,6.18,11.83,10.72,12.43,24.87,4.43,33.6-6.82,13.2-18.74,19.13-49.86,4.45-68.67,10.53,7.43,11.55,20.52,10.8,32.64Z"/>
  <path d="M361.15,109.75l3.84-1.8c10.05-3.62,23.36-5.65,31.68,2.64-1.66.72-.99,1.63-1.38,2.69-.18.48-1.1,2.01-1.62,2.01-.86-.49-1.35-1.46-2.16-2.17-6.37-5.56-18.19-6.31-26.09-4.49-1.46.34-2.8,1-4.27,1.13Z"/>
  <path d="M410.83,134.71c-.26-.01-.52,0-.78.06-.58.14-2.12.89-2.47.43l-4.63-9.53c-.04-1.6-.49-3.39,1.06-4.38.75-.17,2.73,3.16,3.1,3.82.58,1.03,4.43,9.11,3.72,9.61Z"/>
  <path d="M412.25,138.57l.5,2.62c-.14.12-2.13-.28-1.92.72l2.16-.24c.04.66.46,1.41.02,2.02-.24.33-2.31.07-2.87.11l-1.23-5.01,3.34-.22Z"/>
  <path d="M411.07,134.95c.01.75.98,1.47.61,2.16-.26.5-2.49,1.51-2.98,1.17l-.74-2.36,3.11-.97Z"/>
  <path d="M413.44,146.44l-2.85.27-.24-2.16,3.13.11c.48.32.15,1.33-.04,1.79Z"/>
  <path d="M413.95,147.91l-.25,1.19c-.74-.09-1.43.07-2.15.15-.67.07-.48-.93-.49-1.34h2.88Z"/>
  <path d="M398.59,114.31c-.69.4-2.15-1.13-2.16-1.56,0-.2.51-.43.82-.34s.89,1.56,1.34,1.9Z"/>
  <path d="M400.27,121.27c-.7.07-1.24-.34-1.68-.84,1.03-1.43,1.81-.71,1.68.84Z"/>
  <path d="M413.71,151.99v.72s-2.16.24-2.16.24c-.18-1.38,1.26-.9,2.16-.96Z"/>
  <path d="M398.11,115.27c-.07-.78.71-.72,1.26-.78.28-.03.31-.32.65.18l-.63.82-1.29-.22Z"/>
  <path d="M401.71,116.95c-.51,1.62-1.82,1-1.68-.48l1.68.48Z"/>
  <path d="M370.7,121.58c-19.74,1.77-36.74,25.03-42.54,42.42-6.75,20.25-3.65,47.67,21.19,52.25,30.44,5.61,51.4-31.2,52.62-57.16.93-19.72-8.83-39.52-31.26-37.5ZM368.76,207.23c-2.28,1.28-5.03,2.64-7.6,3.07-.05-.33.38-.32.64-.44,4.6-2.12,8.45-3.03,11.61-7.11,13.96-18.04,20.02-32.34,21.36-51.85l-1.32-7.08c1.32,2.38,1.98,5.36,2.26,8.06,2.08,20.05-9.04,45.28-26.93,55.34Z"/>
  <path d="M116.3,128.78c19.46-1.73,35.86,15.29,43.46,31.53,6.03,12.88,9.24,30.43,3.03,43.76-7.66,16.43-24.89,22.1-41.39,14.76-18.53-8.24-30.71-31.41-32.86-50.9-2.01-18.19,8.11-37.4,27.76-39.15Z"/>
  <path d="M107.23,114.07c-.15-.67,1.21-1.05,1.57-.74.65.55.26,1.87.35,2.66-1.03.28-1.23-.85-2.16-.72-.22.52-.12,1.41-.48,1.8-14.27,6.1-23.33,17.2-25.68,32.76,2.43-14.46,5.7-31.01,21.54-35.94,1.82-.64,3.3-1.36,4.86.18Z"/>
  <path d="M116.83,113.11l.27-1.17,1.65-.03c-.39,1.02-.99,2.01-.48,3.12-.32-.01-1.32.64-1.16-.07.08-.37.48-1.18-.16-1.36-.6-.17-.47.06-.66.3-1.39,1.71-2.59,1.54-4.63,2.02-3.49-2.94,4.03-5.86,5.17-2.8Z"/>
  <path d="M121.15,112.15l-1.08,1.92c-.9-1.37-.9-2.7,1.08-1.92Z"/>
  <path d="M220.42,141.1c-13.47,13.77-34.48,11.32-46.83-2.55-18.71-21-23.14-67.4,3.26-84.11,8.8-5.57,21.28-6.13,30.52-1.28,11.02,5.79,17.69,18.18,21.19,29.69,5.57,18.36,6.16,43.63-8.13,58.24Z"/>
  <path d="M239.47,113.59c-.42.06-.23-.55-.24-.84-.01-.71-.04-1.46,0-2.16.86-16.78-2.92-33.24-11.56-47.71-1.33-2.23-3.35-5.26-5-7.24-.49-.59-1.16-1.1-1.68-1.68-.24-.27-.58-.4-.48-.84.91.77,1.77,1.7,2.64,2.52,7.44,7.06,13,18.53,15.46,27.98s2.2,20.06.86,29.98Z"/>
  <path d="M199.63,32.23v4.32c-.35.07-7.3-.19-7.33.23-2.43.3-2.73-3.53-1.63-5.05,2.9-.82,6.01-.16,8.97.5Z"/>
  <polygon points="207.07 33.67 206.71 38.23 205.86 37.86 206.11 33.67 207.07 33.67"/>
  <path d="M203.47,32.71l-.24,4.56c-.9.18-.27-.8-.23-1.31.02-.29.07-1.81-.12-1.81-.74.61.2,3.49-.84,3.12l.49-4.55h.95Z"/>
  <path d="M204.91,37.75c-.32.06-.59-.09-.69-.39-.26-.82.51-3.36.45-4.4.32-.06.59.09.68.39.3.96-.5,3.28-.44,4.4Z"/>
  <path d="M200.59,37.03c-.16-.72.2-1.39.24-2.04.05-.85-.1-1.82,0-2.64.04-.31.95-.28.98.72.02.55-.37,2.67-.5,3.36-.08.42-.25.67-.72.6Z"/>
  <polygon points="210.67 34.63 210.19 38.71 209.23 38.71 209.74 34.78 210.07 34.39 210.67 34.63"/>
  <path d="M209.23,34.15c-.39,1.17.13,3.58-1.08,4.08-.77-1.01.44-2.77.12-4.08h.96Z"/>
  <path d="M214.74,36.57l-.95,3.58c-1.1.05.32-2.53.24-3.36-1.04.29-.48,3.21-1.32,3.12-.71-.47.24-3.22.48-3.84.52-.68.92.51,1.55.5Z"/>
  <path d="M220.75,43.03c-.93.18-.36-1.09-.22-1.55-.91-.27-.61-1.55.11-2.05,1.15,1,.17,2.35.12,3.6Z"/>
  <path d="M218.35,42.31c-.04-1.02-.03-2.01.23-3.01.07-.29.11-.99.61-.83s.26.59.2.91c-.17.89-.31,2.37-1.03,2.93Z"/>
  <path d="M215.84,37.03c.3-.06.53.15.5.49-.08,1.02-.39,2.51-.98,3.35l-.09-1.77c.24-.42.08-1.97.58-2.07Z"/>
  <polygon points="212.59 35.35 211.27 39.43 211.18 37.9 211.87 35.11 212.59 35.35"/>
  <path d="M158.59,54.07l-.49,1.44-1.91-.48c.1-1.27,1.46-.95,2.4-.96Z"/>
  <path d="M217.63,37.51l-.02,1.54-.58,2.54-.1-2.98c.21-.39-.03-1.28.7-1.1Z"/>
  <path d="M157.39,55.75c.16.62-.5.56-.67.76-.03.04.08.71-.05.92l-1.68-.48c.56-.57,1.61-1.17,2.4-1.2Z"/>
  <path d="M155.23,55.27c-.38.86-1.57.9-2.4.96-.2-.2.54-1.29.84-1.41.43.49.94.51,1.56.45Z"/>
  <path d="M154.17,57.68l1.78.59c-.04.86-3.12.42-1.78-.59Z"/>
  <path d="M187.96,31.78c-.61-.2-2.51.15-3.26.27-12.95,2.11-23.01,10.74-30.08,21.28-.26.39-1.42,1.1-.46,1.2.56.06,1.09.22,1.65.27l.98-2.38c.83.31,1.93.33,2.05,1.4.81-.11.88-.86,1.2-1.2-.07.07-1.19-.29-1.43-.37-.25-.08-.95,0-.73-.47.41-.85,1.17-.42,1.88-.33l.28,1.16c.53-.58,1.12-1.01,1.68-1.56l-1.8-.83c-.38-.54.65-1.14,1.09-.97-.18.84.17,1.15.96,1.34,3.34-3.13,6.88-6.27,10.82-8.64,4.73-2.84,10.1-4.59,15.58-5.3,1.42-.45.33-4.65-.39-4.88ZM161.24,48.43c.61-.93,1.78-.8,1.92.36-.82.27-1.35.46-1.92-.36Z"/>
  <path d="M355.19,271.97c-5.02-22.96-26.99-31.66-41.26-47.95-11.14-12.73-15.04-29.64-25.43-42.81-15.28-20.29-45.23-26.71-66.79-11.95-12.82,8.5-19.98,22.2-27.61,35.16-6.2,10.92-13.74,21.35-23.42,29.42-6.04,5.29-12.27,9.92-18.07,15.57-32.57,28.76-11.88,87.93,30.59,88.5,14.2.4,25.24-7.68,37.77-13.34,35.22-17.03,53.71,7.69,89.69,5.8,5.16-.61,9.79-2.17,14.09-4.32,18.48-9.29,27.56-29.78,26.79-49.6.02-.16.04-.28.06-.37.03-.1.06-.16.1-.16.04,0,.08.04.13.14.04.08.09.2.14.35,2.89,10.7.65,25.07-5.26,34.88-9.34,16.58-27.68,28.04-47.12,26.8-6.81-.46-13.76-2.26-20.41-3.64-20.73-4.41-36.45-7.59-55.99-2.06-6.29,1.74-14.03,4.91-20.86,8.42-1.95,1-2.84,1.53-2.19,1.36,1.02-.31,4.72-1.71,6.59-2.41,48.89-19.5,83.8,18.85,125.6-5.26,19.88-13.14,28.61-39.43,22.91-62.31l-.05-.21ZM151.27,301.04c.26,1.45.24,2-.15,1.43-6.49-12.37-6.45-29.42,2.11-40.99.3-.22.36.12.19.94-3.92,12.3-5.06,25.99-2.17,38.46l.03.16ZM301.93,215.45c4.75,9.61,10.62,18.99,17.51,27.38.7,1.07,2.6,2.95,2.28,3.99-1.16.21-3.07-1.52-4.17-2.33-8.26-6.88-13.1-18.61-15.63-29.05h.02ZM216.72,182.3c24.16-26.76,74.85-11.7,79.53,24.41,1.79,10.59-1.96,20.88,2.26,31.12,4.78,13.09,19.8,15.77,27.37,26.41,11.42,15.46,3.14,37-13.52,47.71,8.89-5.71,21.15-27.41,11.92-45.09-2.63-5.04-7.8-9.04-12.59-11.99-11.15-6.32-16.92-15.43-17.22-28.31-.4-7.84.9-15.83-1.13-23.56-7.64-30.67-49.36-41.1-74.09-22.07-.24.17-.47.33-.68.49-1.75,1.25-2.49,1.68-1.9.94l.05-.06ZM282.34,204.24c2.96,19.12-5.48,38,10.8,53.71,4.46,4.6,10.51,7.84,15.46,11.54,4.57,3.74,5.05,4.71-.09.89-2.13-1.52-4.48-2.84-6.87-4.23-25.43-13.14-22.92-37.52-20.3-61.9h1.01ZM244.4,194.87c-7.24-5.15-13.64-6.87-21.86-3.58-1.16.47-2.41,1.46-3.39,2.01-.47.26-.65.31-.51.13,14.41-14.35,39.58-1.54,40.03,19.22.13,2.39.03,3.85-.09,3.51-3.64-10.83-5.91-13.56-12.4-20.15l-1.78-1.14ZM206.18,239.28c1.31-5.12,4.57-9.07,8.29-12.72,2.39-2.46,4.61-5.3,6.96-7.8,8.95-9.32,21.56-4.41,25.82,6.93,4.42,12.15,3.65,31.21-5.31,39.74-1.05,1.03-3.16,2.82-2.78,3.98,1.43,2.52,7.13,1.53,9.57.17,17.62-10.07,16.51-41.6,2.04-53.65-.85-.81-3.51-2.33-3.51-2.71.22.01,1.24.45,2.67,1.2,17.94,9.19,20.21,41.04,4.23,54.07-5.86,4.89-13.66,5.6-20.04.75-9.71-7.04-3.79-16.11-5.1-25.67-.74-9.35-8.91-17.03-15.89-7.55-8.45,14.09-2.44,41.09,11.6,50.59,15.99,11.28,35.96-3.98,51.38,6.44,6.36,3.74,10.15,12.78,14.11,18.09-6.3-6.66-8.65-15.88-18.23-18.48-6.34-2.24-12.84-1.77-19.32-.17-33.47,8.83-55.56-21.45-46.57-53l.06-.21ZM250.32,306.98c-21.8.08-28.7,9.94-48.35,14.98-2.21.57-1.56.38.22-.39,15.66-6.47,30.7-18.4,48.18-14.6h-.05ZM259.49,294.69c-.89-.03-1.21-.07-.84-.12,7.59-.67,16.19,1.05,22.35,5.75.17.18,0,.11-.55-.05-9.09-2.66-13.65-5.76-20.81-5.57h-.15ZM344.8,299.28c-10.37,30.99-49.39,34.75-74.35,19-2.96-1.83-2.22-1.85.74-.73,27.42,11.64,59.35,9.43,73.37-19.58,1.23-1.96.7.07.3,1.14l-.06.16Z"/>
  <rect x="141.12" y="411.99" width="210" height=".6"/>
  <text class="cls-1" transform="translate(167.58 434.84)"><tspan x="0" y="0">Sex &amp; Relationship</tspan></text>
  <path d="M221.29,225.27c1.84-6.46,5.57-9.28,12.62-8.46,12.07,4.26,16.84,28.41,8.08,43.95-3.71,6.84-8.32,7.52-9.59-.25-.69-4.2,1.45-5.61,1.93-11.02-.07-8.62-1.25-14.3-8.07-18.35-3.69-.5-5.97-2.27-4.96-5.87Z"/>
</svg>