<?xml version="1.0" encoding="UTF-8"?>
<svg id="Layer_2" data-name="Layer 2" xmlns="http://www.w3.org/2000/svg" viewBox="0 0 1010.03 272.06">
  <g id="Layer_2-2" data-name="Layer 2">
    <g>
      <path d="M178.5,5.59c-.26.18-2.76-.74-3.31-.87-3.43-.81-6.93-.83-10.39-.19-.86.16-1.69.57-2.58.51-.15-.43.38-.73.38-1.03,0-.71-1.59-1.41-.01-2.26,3.73-2.01,11.31-2.34,15.23-.79.66.26,1.7.73,1.94,1.45.16.48-1.12,2.51-1.25,3.17Z"/>
      <path d="M159.97,5.43c.07.4-.36.58-.65.75-1.24.74-2.85,1.29-4.16,2.02-3.94,2.19-7.33,4.86-10.37,8.18-.82.89-1.39,2.04-2.43,2.72-.02-.35.29-.64.49-.92,3.29-4.8,7.86-9.94,12.83-13.02.82-.51,1.68-.94,2.52-1.42.45.86.68,1.55,1.78,1.69Z"/>
      <path d="M186.12,6.13c.07.15.08.44.12.71.04.35.3,1.1.01,1.35-.13.05-.27.02-.4.06-.15.06-.31.25-.43.34-.18.17-.39-.02-.53-.17-.15-.18-.28-.31-.2-.48.06-.15.27-.34.47-.58.22-.27.4-.66.55-.94.15-.28.29-.46.37-.36l.04.06Z"/>
      <path d="M181.7,6.92l-.54-.4v-.24s1.38-1.98,1.38-1.98c.38.28.28.33.13.69-.28.69-.96,1.17-.98,1.93Z"/>
      <path d="M180.57,5.99c-.52.12-.41-.27-.38-.66.06-.59.16-1.04.19-1.69.02-.38.13-.38.47-.28.7.21-.36,2.1-.28,2.62Z"/>
      <path d="M183.57,7.67l-.56-.28c.71-.58.59-1.78,1.31-2.34.22,1.04-.53,1.69-.75,2.62Z"/>
      <path d="M188.07,11.04c.12-.89.34-2.29,1.12-2.81-.17.93-.33,2.18-1.12,2.81Z"/>
      <path d="M160.34,2.8l-.19,1.12-.94-.19c-.14-.68.53-.96,1.12-.93Z"/>
      <path d="M187.88,7.49c-.31.67-.51,1.41-.84,2.07-.14.27.01.46-.47.37-.14-.15.68-1.76.85-2.06.14-.26-.03-.47.46-.37Z"/>
      <path d="M190.09,11.61c-.06,0-.17-.23-.31-.31-.39-.15-.57-.05-.19-.67.22-.29.42-.64.69-.89.38.05-.17,1.62-.15,1.85l-.04.02Z"/>
      <path d="M196.13,41.67c-3.07-36.58-44.33-35.03-54.04-2.71-12.79,29.03,8.04,71.97,40.74,46.91,10.9-9.99,14.41-30.02,13.3-44.2ZM191.06,51.78c-.82,11.82-4.33,25.39-13.48,33.54-11.93,10.63-26.21,6.28-29.97-9.2-.44-.65.44-1,.5-.13,1.22,3.26,2.51,6.55,4.82,9.23,8.36,9.7,19.41,3.46,26.22-5.32,10.3-14.63,14.93-38.92,3.47-53.59,8.22,5.8,9.01,16.01,8.43,25.47Z"/>
      <path d="M218.79,61.24l3-1.4c7.85-2.82,18.23-4.41,24.72,2.06-1.3.57-.77,1.27-1.07,2.1-.14.38-.86,1.57-1.26,1.57-.67-.38-1.06-1.14-1.69-1.69-4.97-4.34-14.2-4.93-20.36-3.51-1.14.26-2.19.78-3.33.88Z"/>
      <path d="M257.57,80.73c-.2,0-.41,0-.61.04-.46.11-1.66.7-1.92.33l-3.61-7.44c-.03-1.25-.38-2.65.83-3.42.59-.13,2.13,2.47,2.42,2.98.45.8,3.46,7.11,2.9,7.5Z"/>
      <path d="M258.67,83.74l.39,2.04c-.11.09-1.66-.22-1.5.56l1.68-.19c.03.51.36,1.1.02,1.58-.19.26-1.81.06-2.24.09l-.96-3.91,2.61-.17Z"/>
      <path d="M257.75,80.91c.01.58.77,1.14.48,1.69-.21.39-1.95,1.18-2.33.91l-.58-1.84,2.43-.76Z"/>
      <path d="M259.6,89.88l-2.23.21-.19-1.69,2.45.08c.38.25.11,1.04-.03,1.39Z"/>
      <path d="M260,91.03l-.19.93c-.58-.07-1.12.06-1.68.11-.52.05-.37-.73-.38-1.05h2.25Z"/>
      <path d="M248.01,64.8c-.54.31-1.68-.89-1.68-1.22,0-.16.39-.34.64-.27s.7,1.22,1.05,1.48Z"/>
      <path d="M249.32,70.24c-.55.06-.97-.27-1.31-.66.8-1.12,1.41-.56,1.31.66Z"/>
      <path d="M259.81,94.21v.56s-1.69.19-1.69.19c-.14-1.08.99-.7,1.69-.75Z"/>
      <path d="M247.64,65.55c-.06-.61.55-.56.98-.61.22-.02.24-.25.51.14l-.49.64-1-.17Z"/>
      <path d="M250.45,66.87c-.4,1.27-1.42.78-1.31-.38l1.31.38Z"/>
      <path d="M226.24,70.48c-15.4,1.38-28.68,19.54-33.2,33.11-5.27,15.8-2.85,37.21,16.54,40.78,23.76,4.38,40.12-24.35,41.07-44.61.73-15.39-6.89-30.84-24.4-29.27ZM224.72,137.33c-1.78,1-3.93,2.06-5.93,2.4-.04-.26.3-.25.5-.34,3.59-1.65,6.6-2.37,9.06-5.55,10.9-14.08,15.63-25.24,16.67-40.47l-1.03-5.52c1.03,1.85,1.54,4.18,1.76,6.29,1.62,15.65-7.06,35.34-21.02,43.19Z"/>
      <path d="M27.68,76.1c15.19-1.35,27.99,11.93,33.92,24.61,4.7,10.05,7.21,23.75,2.36,34.16-5.98,12.82-19.43,17.25-32.31,11.52-14.46-6.43-23.97-24.51-25.65-39.73-1.57-14.2,6.33-29.19,21.67-30.56Z"/>
      <path d="M20.6,64.62c-.11-.52.94-.82,1.23-.58.51.43.2,1.46.28,2.08-.8.22-.96-.67-1.68-.56-.17.41-.09,1.1-.38,1.4-11.14,4.76-18.21,13.43-20.04,25.57,1.9-11.29,4.45-24.2,16.81-28.05,1.42-.5,2.57-1.06,3.79.14Z"/>
      <path d="M28.1,63.87l.21-.92,1.29-.02c-.31.8-.77,1.57-.37,2.43-.25,0-1.03.5-.91-.06.06-.29.38-.92-.13-1.06-.47-.13-.37.05-.52.23-1.08,1.33-2.02,1.2-3.61,1.57-2.73-2.3,3.15-4.57,4.04-2.18Z"/>
      <path d="M31.47,63.12l-.84,1.49c-.7-1.07-.7-2.11.84-1.49Z"/>
      <path d="M108.95,85.72c-10.52,10.75-26.91,8.83-36.55-1.99-14.6-16.39-18.06-52.6,2.55-65.65,6.87-4.35,16.61-4.78,23.82-1,8.6,4.52,13.81,14.19,16.54,23.18,4.35,14.33,4.81,34.05-6.35,45.45Z"/>
      <path d="M123.82,64.24c-.32.04-.18-.43-.19-.65-.01-.56-.03-1.14,0-1.69.67-13.1-2.28-25.95-9.02-37.24-1.04-1.74-2.61-4.1-3.9-5.65-.39-.46-.91-.86-1.31-1.31-.19-.21-.45-.31-.37-.66.71.6,1.38,1.33,2.06,1.97,5.81,5.51,10.15,14.46,12.07,21.83s1.72,15.66.67,23.4Z"/>
      <path d="M92.72.74v3.37c-.27.05-5.7-.15-5.72.18-1.9.23-2.13-2.75-1.27-3.94,2.26-.64,4.69-.12,7,.39Z"/>
      <polygon points="98.53 1.86 98.25 5.42 97.58 5.13 97.78 1.86 98.53 1.86"/>
      <path d="M95.72,1.11l-.19,3.56c-.71.14-.21-.63-.18-1.03.02-.22.06-1.41-.1-1.41-.58.48.15,2.73-.65,2.44l.38-3.55h.74Z"/>
      <path d="M96.84,5.05c-.25.05-.46-.07-.54-.31-.2-.64.39-2.62.35-3.44.25-.05.46.07.53.31.24.75-.39,2.56-.35,3.44Z"/>
      <path d="M93.47,4.49c-.12-.56.16-1.08.19-1.59.04-.67-.08-1.42,0-2.06.03-.24.74-.22.77.56.01.43-.29,2.09-.39,2.62-.06.33-.19.52-.56.47Z"/>
      <polygon points="101.34 2.61 100.96 5.8 100.22 5.8 100.61 2.73 100.87 2.43 101.34 2.61"/>
      <path d="M100.21,2.24c-.31.91.1,2.8-.84,3.18-.6-.79.34-2.16.09-3.18h.75Z"/>
      <path d="M104.52,4.13l-.74,2.79c-.86.04.25-1.98.19-2.62-.81.23-.37,2.51-1.03,2.43-.55-.37.19-2.51.37-2.99.41-.53.72.4,1.21.39Z"/>
      <path d="M109.21,9.17c-.73.14-.28-.85-.18-1.21-.71-.21-.47-1.21.08-1.6.9.78.13,1.83.09,2.81Z"/>
      <path d="M107.33,8.61c-.03-.8-.02-1.57.18-2.35.06-.23.09-.77.47-.65s.2.46.15.71c-.13.69-.25,1.85-.81,2.29Z"/>
      <path d="M105.37,4.49c.23-.05.41.12.39.38-.06.8-.3,1.96-.77,2.61l-.07-1.38c.19-.33.07-1.53.45-1.61Z"/>
      <polygon points="102.84 3.18 101.81 6.36 101.74 5.17 102.28 2.99 102.84 3.18"/>
      <path d="M60.69,17.79l-.38,1.12-1.49-.37c.08-.99,1.14-.74,1.87-.75Z"/>
      <path d="M106.77,4.86l-.02,1.2-.45,1.98-.08-2.32c.17-.31-.03-1,.54-.86Z"/>
      <path d="M59.75,19.1c.13.48-.39.44-.52.6-.02.03.07.55-.04.71l-1.31-.38c.44-.45,1.26-.91,1.87-.93Z"/>
      <path d="M58.07,18.72c-.3.67-1.22.71-1.87.75-.16-.15.42-1,.65-1.1.34.38.73.4,1.22.35Z"/>
      <path d="M57.24,20.6l1.39.46c-.03.67-2.44.32-1.39-.46Z"/>
      <path d="M83.61.39c-.47-.15-1.96.11-2.55.21-10.11,1.65-17.96,8.38-23.48,16.61-.2.3-1.11.86-.36.94.44.05.85.17,1.29.21l.76-1.86c.65.24,1.51.26,1.6,1.1.63-.08.69-.67.93-.94-.05.05-.93-.23-1.12-.29-.2-.06-.74,0-.57-.36.32-.66.91-.33,1.47-.25l.22.91c.41-.45.88-.79,1.31-1.22l-1.41-.65c-.3-.42.51-.89.85-.76-.14.66.13.9.75,1.04,2.61-2.44,5.37-4.89,8.44-6.74,3.69-2.22,7.88-3.59,12.16-4.14,1.11-.35.26-3.63-.31-3.81ZM62.75,13.39c.48-.72,1.39-.62,1.5.28-.64.21-1.05.36-1.5-.28Z"/>
      <path d="M214.14,187.86c-3.92-17.92-21.07-24.71-32.21-37.43-8.69-9.94-11.74-23.13-19.85-33.41-11.93-15.84-35.3-20.84-52.13-9.33-10.01,6.64-15.6,17.33-21.55,27.44-4.84,8.52-10.72,16.67-18.28,22.96-4.72,4.13-9.58,7.74-14.1,12.15-25.42,22.45-9.27,68.63,23.87,69.08,11.08.31,19.7-5.99,29.48-10.41,27.49-13.29,41.92,6,70.01,4.53,4.03-.47,7.64-1.7,10.99-3.38,14.43-7.25,21.51-23.24,20.91-38.71.01-.12.03-.22.05-.29.02-.08.05-.12.08-.13.03,0,.07.03.1.11.03.06.07.16.11.28,2.25,8.35.5,19.57-4.11,27.22-7.29,12.94-21.6,21.89-36.77,20.92-5.31-.36-10.74-1.77-15.93-2.84-16.18-3.44-28.45-5.92-43.7-1.61-4.91,1.36-10.95,3.83-16.28,6.57-1.52.78-2.22,1.19-1.71,1.06.8-.24,3.69-1.33,5.15-1.88,38.16-15.22,65.41,14.71,98.03-4.1,15.52-10.25,22.33-30.77,17.88-48.63l-.04-.16ZM54.98,210.55c.21,1.13.19,1.56-.12,1.11-5.07-9.65-5.04-22.96,1.65-32,.24-.17.28.09.15.74-3.06,9.6-3.95,20.29-1.7,30.02l.02.12ZM172.57,143.74c3.71,7.5,8.29,14.82,13.66,21.37.55.84,2.03,2.3,1.78,3.12-.91.17-2.39-1.19-3.26-1.82-6.45-5.37-10.23-14.52-12.2-22.67h.01ZM106.06,117.87c18.86-20.89,58.42-9.13,62.07,19.05,1.4,8.27-1.53,16.29,1.76,24.29,3.73,10.21,15.45,12.31,21.36,20.61,8.91,12.07,2.45,28.88-10.56,37.23,6.94-4.46,16.51-21.4,9.3-35.19-2.05-3.94-6.09-7.05-9.82-9.36-8.7-4.93-13.21-12.04-13.44-22.1-.31-6.12.71-12.35-.88-18.39-5.96-23.94-38.53-32.08-57.82-17.22-.19.13-.37.26-.53.38-1.36.98-1.95,1.31-1.48.73l.04-.04ZM157.28,134.99c2.31,14.92-4.27,29.66,8.43,41.92,3.48,3.59,8.2,6.12,12.06,9.01,3.57,2.92,3.94,3.67-.07.69-1.66-1.19-3.5-2.21-5.36-3.3-19.85-10.26-17.89-29.29-15.84-48.31h.79ZM127.66,127.69c-5.65-4.02-10.65-5.36-17.06-2.79-.91.36-1.88,1.14-2.65,1.57-.37.2-.51.24-.4.1,11.25-11.2,30.89-1.2,31.24,15.01.1,1.87.02,3.01-.07,2.74-2.84-8.45-4.61-10.59-9.68-15.73l-1.39-.89ZM97.83,162.35c1.02-4,3.56-7.08,6.47-9.93,1.86-1.92,3.6-4.14,5.44-6.09,6.98-7.28,16.83-3.44,20.15,5.41,3.45,9.48,2.85,24.36-4.14,31.02-.82.8-2.46,2.2-2.17,3.11,1.11,1.97,5.56,1.19,7.47.13,13.75-7.86,12.89-32.47,1.59-41.87-.66-.63-2.74-1.81-2.74-2.11.17,0,.97.35,2.08.94,14.01,7.17,15.77,32.04,3.3,42.2-4.57,3.81-10.66,4.37-15.64.59-7.58-5.49-2.96-12.57-3.98-20.04-.58-7.3-6.96-13.29-12.4-5.89-6.6,10.99-1.9,32.07,9.06,39.49,12.48,8.81,28.07-3.11,40.1,5.02,4.96,2.92,7.92,9.98,11.01,14.12-4.92-5.2-6.75-12.39-14.23-14.42-4.95-1.75-10.02-1.38-15.08-.13-26.13,6.89-43.37-16.74-36.35-41.37l.05-.16ZM132.28,215.18c-17.02.06-22.4,7.76-37.73,11.7-1.73.44-1.22.3.17-.31,12.23-5.05,23.96-14.36,37.6-11.39h-.04ZM139.44,205.59c-.7-.02-.94-.05-.66-.09,5.92-.52,12.63.82,17.44,4.49.13.14,0,.08-.43-.04-7.1-2.08-10.65-4.5-16.24-4.35h-.12ZM206.03,209.18c-8.1,24.19-38.55,27.12-58.03,14.83-2.31-1.43-1.73-1.44.58-.57,21.4,9.09,46.32,7.36,57.26-15.28.96-1.53.55.06.23.89l-.04.13Z"/>
      <path d="M109.62,151.41c1.44-5.04,4.34-7.24,9.85-6.6,9.42,3.32,13.14,22.18,6.3,34.31-2.9,5.34-6.5,5.87-7.48-.2-.54-3.28,1.13-4.38,1.51-8.6-.05-6.73-.97-11.16-6.3-14.32-2.88-.39-4.66-1.77-3.87-4.58Z"/>
    </g>
    <g>
      <g>
        <path d="M472.39,128.15c-3.63,0-6.9-.87-9.79-2.6-2.9-1.73-5.19-4.3-6.89-7.71-1.69-3.41-2.54-7.52-2.54-12.33,0-9.83,3.24-18.16,9.73-24.97,1.47-1.55,2.2-2.41,2.2-2.57-.08-.08-.59-.45-1.53-1.1-2.61-1.75-4.82-4.27-6.64-7.56-1.82-3.28-2.72-7.35-2.72-12.21,0-3.22.27-5.96.8-8.2,1.75-7.1,4.81-13.98,9.18-20.66,4.37-6.67,9.27-12.37,14.72-17.11,5.45-4.73,10.6-7.92,15.45-9.55,1.43-.49,2.6-.78,3.52-.86s2.81-.12,5.66-.12c1.31,0,2.23.04,2.78.12s1.13.27,1.74.55c3.55,1.63,6.19,4.26,7.93,7.9,1.73,3.63,2.6,7.75,2.6,12.36s-.59,6.73-1.77,6.73c-.08,0-.45-.04-1.1-.12-.08-5.67-.39-9.83-.92-12.49-.53-2.65-1.75-4.59-3.67-5.81-.94-.57-1.8-.86-2.57-.86s-1.57.29-2.39.86c-1.71,1.26-4.36,4.08-7.93,8.45s-7.22,9.19-10.96,14.47c-3.73,5.28-6.64,9.82-8.72,13.62-3.18,5.67-5.47,10.17-6.85,13.5s-2.08,5.99-2.08,7.99c0,.78.15,1.86.46,3.24.31,1.39.74,2.08,1.32,2.08.37,0,1.22-.37,2.57-1.1,5.55-3.35,11.04-5.02,16.46-5.02,3.59,0,6.59.46,9,1.38,2.41.92,3.61,2.13,3.61,3.64s-1.32,3.05-3.95,4.62-6.09,2.76-10.37,3.58c-1.88.29-3.09.64-3.64,1.07s-1.44,1.46-2.66,3.09c-3.59,4.32-6.38,9.05-8.35,14.17-1.98,5.12-2.99,10.21-3.03,15.27,0,1.75.04,2.93.12,3.52s.27,1.15.55,1.68c.37.73.87,1.25,1.5,1.56.63.31,1.56.46,2.78.46,6.98,0,15.1-3.63,24.36-10.89,1.55-1.22,4.73-4.23,9.55-9.03,4.81-4.79,7.85-7.99,9.12-9.58,1.18-1.43,1.98-2.14,2.39-2.14.37,0,.7.11,1.01.34s.46.48.46.77c0,.49-2,3.07-6,7.74-4,4.67-7.39,8.37-10.16,11.11-5.67,5.63-11.62,10.16-17.84,13.59-6.22,3.43-11.72,5.14-16.49,5.14ZM489.28,77.41c.86,0,2.5-.4,4.93-1.19,2.43-.8,4.09-1.62,4.99-2.48.57-.57.86-.98.86-1.22,0-.33-.53-.49-1.59-.49-.94,0-2.33.44-4.16,1.32-1.84.88-3.3,1.81-4.41,2.78-.65.57-.98.96-.98,1.16,0,.08.12.12.37.12Z"/>
        <path d="M538.07,110.21c-.37,0-1-.1-1.9-.31-.94-.24-2.3-1.29-4.07-3.12-1.77-1.84-3.15-3.63-4.13-5.39-.69-1.22-1.21-2.05-1.56-2.48s-.91-.85-1.68-1.25c-2.61-1.47-3.92-3.53-3.92-6.18,0-.94.22-2.01.67-3.21.45-1.2.67-2.01.67-2.42,0-.29-.04-.59-.12-.92-.65-2.77-1.26-6.83-1.84-12.18-.57-5.34-.86-11.4-.86-18.18s.2-11.81.61-15.12c.86-7.47,2.17-13.85,3.95-19.16,1.77-5.3,3.97-9.35,6.58-12.15s5.55-4.19,8.81-4.19c2.08,0,3.84.56,5.26,1.68s2.14,2.56,2.14,4.31c0,.86-.67,3.88-2.02,9.06-3.1,12.49-5.16,22.32-6.18,29.5-1.02,7.18-1.53,14.38-1.53,21.6,4.16-3.55,8.55-6.92,13.16-10.1,1.88-1.26,3.32-2.1,4.31-2.51,1-.41,2.15-.61,3.46-.61,2.08,0,3.7.48,4.87,1.44,1.16.96,1.74,2.03,1.74,3.21,0,1.43-1.5,3.55-4.5,6.37s-8.52,7.26-16.56,13.34c-1.02.78-2.15,1.61-3.4,2.51s-1.94,1.43-2.08,1.59-.21.39-.21.67c0,2.16.39,5.3,1.16,9.43,5.75-.29,11.38-.9,16.89-1.84,5.51-.94,11.91-2.47,19.22-4.59,1.88-.53,3.16-.8,3.86-.8.73,0,1.1.29,1.1.86,0,.41-.17.75-.52,1.04s-1.21.66-2.6,1.13-3.75,1.17-7.1,2.11c-7.34,2.12-12.93,3.56-16.77,4.31s-8.26,1.4-13.28,1.93c.33,2.49.53,4.24.61,5.26.08,1.1.2,1.94.37,2.51s.24.88.24.92c0,.53-.32.98-.95,1.35-.63.37-1.28.55-1.93.55Z"/>
        <path d="M619.41,112.66c-3.47,0-6.84-1.65-10.13-4.96-3.28-3.3-5.99-8.04-8.11-14.2l-1.29-4.1c-2.49,6.65-4.75,11.42-6.79,14.32s-4.49,4.35-7.34,4.35c-2.65,0-5.16-1.12-7.53-3.37-2.37-2.24-4.08-5.49-5.14-9.73-.33-1.18-.52-2.27-.58-3.27-.06-1-.09-2.99-.09-5.97,0-3.59.17-6.33.52-8.23.35-1.9,1.01-3.95,1.99-6.15,1.96-4.28,4.32-7.57,7.1-9.85s5.83-3.43,9.18-3.43c1.55,0,3.04.29,4.47.86s2.65,1.37,3.67,2.39c.57.57.98.86,1.22.86.04,0,.08-.02.12-.06.37-.98,1-2.25,1.9-3.83s1.63-2.64,2.2-3.21c1.02-1.02,2.2-1.82,3.55-2.39s2.67-.86,3.98-.86,2.58.33,3.7.98c1.12.65,1.68,1.86,1.68,3.61,0,1.18-.38,3.75-1.13,7.71-.75,3.96-1.37,7.62-1.84,10.99s-.7,7.09-.7,11.17c0,4.28.24,7.79.73,10.53.49,2.73,1.35,5.28,2.57,7.65.45.94,1.11,1.86,1.99,2.75.88.9,1.52,1.35,1.93,1.35.86,0,1.8-.51,2.82-1.53,1.02-1.02,1.9-2.35,2.63-3.98.49-1.14,1.13-3.22,1.93-6.24.8-3.02,1.44-5.23,1.93-6.64.49-1.41,1.04-2.11,1.65-2.11l.31.06c.37.12.55.49.55,1.1,0,1.39-.47,3.97-1.41,7.74-.94,3.77-1.94,6.68-3,8.72-2.41,4.65-5.49,6.98-9.24,6.98ZM588.01,101.16c.24,0,.85-.7,1.81-2.11.96-1.41,2.07-3.35,3.34-5.81,1.26-2.47,2.63-5.66,4.1-9.58.57-1.59.91-2.72,1.01-3.4s.15-2.11.15-4.31c0-2.41.14-4.65.43-6.73.16-.98.24-1.61.24-1.9,0-.41-.18-.75-.55-1.04s-.71-.43-1.04-.43c-.94,0-2.21,1.84-3.83,5.51-1.61,3.67-3.03,7.99-4.25,12.94-1.22,4.96-1.84,9.23-1.84,12.82,0,2.69.14,4.04.43,4.04Z"/>
        <path d="M652.82,112.66c-.82,0-1.57-.06-2.26-.18-3.88-.61-7.69-3.04-11.44-7.28-3.75-4.24-7.03-9.88-9.82-16.92-2.79-7.04-4.78-14.9-5.97-23.59-.41-2.98-.61-7.69-.61-14.14,0-4.28.1-7.72.31-10.31.2-2.59.44-4.48.7-5.66.27-1.18.4-1.84.4-1.96,0-.24-.53-.37-1.59-.37-4,0-8.03.19-12.09.58-4.06.39-7.29,1.19-9.7,2.42-1.06.53-1.93,1.25-2.6,2.17-.67.92-1.22,1.69-1.65,2.33s-.91.95-1.44.95c-.9,0-1.8-.45-2.69-1.35s-1.35-1.98-1.35-3.24c0-2.04.94-3.87,2.82-5.48,1.88-1.61,4.73-2.9,8.57-3.86,3.84-.96,8.61-1.44,14.32-1.44.78,0,3.77.04,9,.12,1.59-4.32,2.89-7.47,3.89-9.43,1-1.96,2.32-3.46,3.95-4.5,1.63-1.04,3.88-1.56,6.73-1.56,2.12,0,3.83.57,5.11,1.71s1.93,2.63,1.93,4.47c0,1.22-.61,4.83-1.84,10.83v.06c.57.2,4.03.62,10.37,1.25,6.34.63,11.52.95,15.51.95,5.96,0,10.57-.4,13.83-1.19,3.26-.8,4.9-1.85,4.9-3.15,0-.37-.09-.89-.28-1.56-.18-.67-.28-1.11-.28-1.32,0-.53.27-.8.8-.8.61,0,1.25.45,1.93,1.35s1.01,2.02,1.01,3.37c0,1.67-1.08,3.13-3.24,4.38-2.16,1.24-5.16,2.18-9,2.82-3.84.63-8.18.95-13.04.95-1.35,0-5.22-.11-11.63-.34-6.41-.22-10.53-.34-12.36-.34-1.14,6.53-1.93,11.83-2.36,15.91s-.64,9.55-.64,16.4c0,5.47.27,10.53.8,15.18.53,4.65,1.26,8.79,2.2,12.42.94,3.63,2.06,6.7,3.37,9.21,1.31,2.51,2.71,4.44,4.22,5.78.49.41.85.67,1.07.8s.54.18.95.18c.29,0,.83-.04,1.62-.12.8-.08,1.32-.12,1.56-.12,1.02,0,1.53.35,1.53,1.04,0,.78-.48,1.4-1.44,1.87-.96.47-2.32.7-4.07.7Z"/>
        <path d="M677.43,112.66c-3.35,0-6.71-.91-10.1-2.72-3.39-1.82-6.25-4.77-8.6-8.87-2.35-4.1-3.52-9.37-3.52-15.82,0-2.49.04-4.27.12-5.36.08-1.08.27-2.21.55-3.4,2.61-10,7.85-16.61,15.73-19.83.78-.33,1.48-.55,2.11-.67s1.48-.18,2.54-.18c3.02,0,5.3.58,6.85,1.74s2.33,3.09,2.33,5.78c0,2.49-.9,5.12-2.69,7.9-1.8,2.77-4.08,5.06-6.85,6.85-1.1.65-1.8,1.23-2.08,1.74s-.67,1.85-1.16,4.01c-.65,2.82-.98,5.71-.98,8.69,0,4.9.73,8.66,2.2,11.29,1.47,2.63,3.86,3.95,7.16,3.95,2.69,0,5.4-1.24,8.11-3.73,2.71-2.49,5.29-5.41,7.74-8.75,2.08-2.9,3.36-4.62,3.83-5.17s.89-.83,1.25-.83.67.14.92.43c.12.12.18.27.18.43,0,.65-1.26,2.83-3.79,6.52-2.53,3.69-4.59,6.42-6.18,8.17-4.73,5.22-9.96,7.83-15.67,7.83ZM675.65,73.86c1.8-2,3.09-3.61,3.89-4.83.8-1.22,1.19-2.55,1.19-3.98,0-.45-.06-.67-.18-.67-.24,0-.87.93-1.87,2.78s-1.85,3.66-2.54,5.42l-.49,1.29Z"/>
        <path d="M714.64,112.66c-1.35,0-2.37-.12-3.06-.37-3.59-1.43-6.63-5.07-9.12-10.92-2.49-5.86-3.73-12.99-3.73-21.39,0-3.84.45-7.3,1.35-10.4s2.1-5.32,3.61-6.67c.98-.86,2.1-1.52,3.37-1.99s2.55-.7,3.86-.7c1.59,0,3.04.33,4.35.98,2.82,1.39,4.22,3.65,4.22,6.79,0,1.1-.23,3.58-.7,7.44-.47,3.86-.82,6.85-1.04,9-.22,2.14-.34,4.36-.34,6.64,0,.69.04,1.04.12,1.04s.46-1.92,1.13-5.75c.67-3.84,1.36-7.47,2.05-10.89.69-3.43,1.47-6.45,2.33-9.06,3.3-9.71,7.14-14.57,11.51-14.57,2.33,0,4.23.83,5.72,2.48,1.49,1.65,2.23,4.46,2.23,8.42,0,1.35-.09,3.39-.28,6.12-.18,2.73-.28,4.69-.28,5.88,0,5.51,1.04,8.26,3.12,8.26.41,0,1.05-.14,1.93-.43s1.44-.43,1.68-.43c.29,0,.58.1.89.31s.46.43.46.67c0,.53-.79,1.1-2.36,1.71-1.57.61-3.01.92-4.31.92-2.2,0-4.16-.94-5.88-2.82-1.47-1.63-2.54-3.65-3.21-6.06s-1.25-6.24-1.74-11.51c-.45-4.77-.71-7.26-.8-7.47h-.06c-.29,0-.92.64-1.9,1.93-.98,1.29-1.73,2.48-2.26,3.58-1.55,3.26-2.82,7.24-3.79,11.93-.98,4.69-2.04,11.73-3.18,21.11-.65,5.06-1.21,8.69-1.68,10.89s-.97,3.61-1.5,4.22c-.45.73-1.35,1.1-2.69,1.1Z"/>
        <path d="M773.15,112.66c-1.31,0-2.61-.18-3.92-.55-5.26-1.47-9.16-4.86-11.69-10.16-1.67-3.51-2.89-6.95-3.64-10.31-.75-3.37-1.13-8.09-1.13-14.17s1.03-10.29,3.09-13.13c2.06-2.84,4.76-4.25,8.11-4.25,1.92,0,3.53.45,4.83,1.35s2.18,2.18,2.63,3.86c.12.45.18,1.14.18,2.08,0,.65-.16,3.55-.49,8.69-.33,5.14-.49,9.65-.49,13.53,0,4.49.18,7.61.55,9.36.61,3.26,1.33,5.53,2.14,6.79.82,1.26,1.8,1.9,2.94,1.9,1.06,0,2.25-.73,3.58-2.2s2.32-3.26,2.97-5.39c.41-1.39.78-3.37,1.1-5.94s.6-4.32.83-5.26c.22-.94.62-1.41,1.19-1.41.53,0,.88.14,1.04.43s.24,1.1.24,2.45c0,6.57-1.17,11.93-3.52,16.1-2.35,4.16-5.87,6.24-10.56,6.24ZM763.29,54.52c-.69,0-1.33-.1-1.9-.31-1.8-.49-3-1.45-3.61-2.88-1.22-2.49-1.84-5.9-1.84-10.22,0-2.04.85-3.65,2.54-4.83s3.62-1.77,5.78-1.77c1.88,0,3.59.42,5.14,1.25,1.55.84,2.33,2.54,2.33,5.11,0,4-.64,7.27-1.93,9.82-1.29,2.55-3.46,3.83-6.52,3.83Z"/>
        <path d="M834.29,112.66c-.16,0-.92-.1-2.26-.31-3.18-.53-6.19-2.14-9.03-4.83-2.84-2.69-5.15-6.59-6.95-11.69-1.8-5.1-2.69-11.3-2.69-18.61,0-3.35.18-6.79.55-10.34,0-.08-.02-.12-.06-.12-.2,0-.73,1-1.59,3s-1.96,5.15-3.3,9.46c-1.35,4.3-2.84,9.74-4.47,16.31-1.22,4.98-2.17,8.51-2.85,10.59-.67,2.08-1.37,3.48-2.08,4.19s-1.72,1.07-3.03,1.07c-2.2,0-4.21-.85-6.03-2.54-1.82-1.69-3.25-4.24-4.31-7.65-1.06-3.41-1.59-7.6-1.59-12.58,0-6.04.79-10.77,2.36-14.2s4.4-5.14,8.48-5.14c2.24,0,3.99.67,5.23,2.02,1.24,1.35,1.87,3.26,1.87,5.75,0,1.02-.36,4.5-1.07,10.43-.71,5.94-1.07,9.15-1.07,9.64,0,.2.02.31.06.31.16,0,1.18-3.26,3.06-9.79,2.04-6.77,3.81-12.09,5.32-15.94,1.51-3.86,3-7.39,4.47-10.59s2.28-5.05,2.45-5.54c.49-1.59,1.32-2.76,2.48-3.52,1.16-.75,2.5-1.13,4.01-1.13,2.98,0,5.22,1.26,6.73,3.79,1.51,2.53,2.26,6.53,2.26,12,0,2.08-.12,5.56-.37,10.43-.24,4.88-.37,8.62-.37,11.23,0,4.04.29,7.48.86,10.31s1.35,4.98,2.33,6.43c.98,1.45,2.08,2.17,3.3,2.17s2.35-.49,3.49-1.47c1.14-.98,2.47-2.62,3.98-4.93s3.39-5.58,5.63-9.82c.94-1.8,1.6-2.91,1.99-3.34s.77-.64,1.13-.64c.65,0,1.14.24,1.47.73v.06c0,.45-.95,2.71-2.85,6.79s-3.38,7.02-4.44,8.81c-2.28,3.59-4.71,6.16-7.28,7.71-2.49.98-4.43,1.47-5.81,1.47Z"/>
        <path d="M896.96,112.66c-3.47,0-6.84-1.65-10.13-4.96-3.28-3.3-5.99-8.04-8.11-14.2l-1.29-4.1c-2.49,6.65-4.75,11.42-6.79,14.32-2.04,2.9-4.49,4.35-7.34,4.35-2.65,0-5.16-1.12-7.53-3.37-2.37-2.24-4.08-5.49-5.14-9.73-.33-1.18-.52-2.27-.58-3.27-.06-1-.09-2.99-.09-5.97,0-3.59.17-6.33.52-8.23.35-1.9,1.01-3.95,1.99-6.15,1.96-4.28,4.32-7.57,7.1-9.85s5.83-3.43,9.18-3.43c1.55,0,3.04.29,4.47.86s2.65,1.37,3.67,2.39c.57.57.98.86,1.22.86.04,0,.08-.02.12-.06.37-.98,1-2.25,1.9-3.83s1.63-2.64,2.2-3.21c1.02-1.02,2.2-1.82,3.55-2.39s2.67-.86,3.98-.86,2.58.33,3.7.98c1.12.65,1.68,1.86,1.68,3.61,0,1.18-.38,3.75-1.13,7.71-.75,3.96-1.37,7.62-1.84,10.99-.47,3.37-.7,7.09-.7,11.17,0,4.28.24,7.79.73,10.53.49,2.73,1.35,5.28,2.57,7.65.45.94,1.11,1.86,1.99,2.75s1.52,1.35,1.93,1.35c.86,0,1.8-.51,2.82-1.53,1.02-1.02,1.9-2.35,2.63-3.98.49-1.14,1.13-3.22,1.93-6.24.8-3.02,1.44-5.23,1.93-6.64.49-1.41,1.04-2.11,1.65-2.11l.31.06c.37.12.55.49.55,1.1,0,1.39-.47,3.97-1.41,7.74-.94,3.77-1.94,6.68-3,8.72-2.41,4.65-5.49,6.98-9.24,6.98ZM865.56,101.16c.24,0,.85-.7,1.81-2.11s2.07-3.35,3.34-5.81c1.26-2.47,2.63-5.66,4.1-9.58.57-1.59.91-2.72,1.01-3.4s.15-2.11.15-4.31c0-2.41.14-4.65.43-6.73.16-.98.24-1.61.24-1.9,0-.41-.18-.75-.55-1.04s-.71-.43-1.04-.43c-.94,0-2.21,1.84-3.83,5.51-1.61,3.67-3.03,7.99-4.25,12.94-1.22,4.96-1.84,9.23-1.84,12.82,0,2.69.14,4.04.43,4.04Z"/>
      </g>
      <g>
        <path d="M358.41,241.12c-5.28,0-9.65-.86-13.1-2.57-3.45-1.71-5.97-3.93-7.57-6.64-1.59-2.71-2.39-5.64-2.39-8.78,0-5.33,1.87-10.95,5.61-16.85,3.74-5.9,8.88-11.32,15.42-16.24,6.55-4.93,13.75-8.68,21.6-11.25,2.71-.95,4.07-1.5,4.07-1.64-.76-.43-2.13-.74-4.1-.93-1.98-.19-5.23-.29-9.75-.29-2.71,0-6.64.05-11.78.14s-8.4.14-9.78.14c-1.76,0-3.02-.05-3.78-.14s-1.67-.31-2.71-.64c-4.71-1.48-8.06-3.82-10.03-7.03-1.98-3.21-2.96-7.06-2.96-11.53,0-13.04,7.09-26.92,21.28-41.63,4.86-5.14,9.87-9.45,15.03-12.92,5.16-3.47,10.09-6.07,14.78-7.78,4.69-1.71,8.86-2.57,12.53-2.57,6.52,0,11.28,2.37,14.28,7.11,3,4.74,4.5,11.86,4.5,21.38,0,4.52-.03,7.94-.11,10.24-.07,2.31-.2,3.98-.39,5-.19,1.03-.44,1.66-.75,1.89s-.8.36-1.46.36c-.76,0-1.26-.14-1.5-.43-.1-.1-.2-2.31-.32-6.64-.12-4.33-.38-8.44-.78-12.32-.41-3.88-1.11-6.94-2.11-9.17-.86-1.9-1.93-3.39-3.21-4.46-1.29-1.07-2.4-1.61-3.36-1.61-1.33,0-3.83,1.42-7.5,4.25-3.67,2.84-7.76,6.51-12.28,11.03-4.52,4.52-8.66,9.14-12.42,13.85-4.66,5.86-8.94,12.31-12.82,19.35-3.88,7.05-5.82,11.81-5.82,14.28,0,1.33.96,2.25,2.89,2.75,1.93.5,4.99.75,9.18.75,1.48,0,3.87-.06,7.18-.18,3.31-.12,5.82-.18,7.53-.18,6.05,0,11.15.37,15.32,1.11,4.16.74,7.84,1.91,11.03,3.53.81.48,2.55.76,5.21.86,2.67.1,4.97.24,6.93.43,4.05.43,6.84.83,8.39,1.21,1.54.38,2.32.83,2.32,1.36,0,.29-.11.53-.32.75-.22.21-.54.32-.97.32.19,0-1.7-.22-5.68-.68-3.97-.45-7.2-.68-9.67-.68-.48,0-.71.02-.71.07l1.71,1.79c4.71,4.9,7.07,10.54,7.07,16.92,0,5.71-1.86,11.61-5.57,17.71-3.71,6.09-8.82,11.5-15.31,16.21-6.5,4.71-13.65,7.97-21.46,9.78-3.24.81-7.02,1.21-11.35,1.21ZM353.48,230.83c4,0,8.47-1.53,13.42-4.61,4.95-3.07,9.54-7.25,13.78-12.53,4.24-5.28,7.38-11.04,9.43-17.28.81-2.52,1.21-4.88,1.21-7.07,0-2.33-.32-4.13-.96-5.39-.65-1.26-1.82-2.82-3.54-4.68-6.9,1.9-12.78,4.09-17.64,6.57s-9.43,5.76-13.71,9.85c-4.19,4.05-7.37,8.18-9.53,12.39-2.17,4.22-3.25,8.15-3.25,11.82,0,3.38.96,6.05,2.89,8s4.56,2.93,7.89,2.93Z"/>
        <path d="M480.08,228.86c-.9,0-1.81-.07-2.71-.21-5.05-.76-9.52-3.89-13.42-9.39-3.9-5.5-6.62-12.84-8.14-22.03-.38-2.43-.57-6-.57-10.71v-3.5c0-6-.12-9.26-.36-9.78-2.57,3.71-6.07,13.09-10.5,28.13-1.48,5.14-2.59,8.75-3.36,10.82-.76,2.07-1.51,3.44-2.25,4.11-.74.67-1.77,1-3.11,1-2.33,0-4.46-1.06-6.39-3.18-1.92-2.12-3.7-5.65-5.32-10.6-1.48-4.47-2.5-9.21-3.07-14.21s-.86-11.9-.86-20.71c0-5.66.05-9.71.14-12.14.1-2.43.33-5.12.71-8.07,1.09-9.43,2.44-17.18,4.04-23.28,1.59-6.09,3.76-10.89,6.49-14.39,2.74-3.5,6.57-3.57,10.36-.87,1.81,1.05,2.71,2.59,2.71,4.64,0,1-.48,3.5-1.43,7.5-6.52,27.89-8.98,42.95-4.33,74.09.69,4.61.14,7,.43,7,.05,0,.68-2.04,1.89-6.1,1.21-4.07,2.63-8.39,4.25-12.96,1.62-4.57,3.36-8.73,5.21-12.5,1.52-3.05,2.82-5.33,3.89-6.85,1.07-1.52,2.19-2.58,3.36-3.18,1.16-.59,2.65-.89,4.46-.89,2.05,0,3.9.52,5.57,1.57,1.67,1.05,2.98,2.48,3.93,4.28,1.14,2.09,1.9,5.82,2.28,11.17.38,5.36.65,11.83.82,19.42.17,7.6.37,12.03.61,13.32.81,4.52,1.87,7.84,3.18,9.96,1.31,2.12,2.77,3.18,4.39,3.18,2.38,0,4.62-2.52,6.71-7.57.95-2.38,1.72-4.84,2.32-7.39.59-2.55,1.09-4.44,1.5-5.68.4-1.24.97-1.86,1.68-1.86.52,0,.9.1,1.14.29s.36.67.36,1.43c0,1.14-.4,3.57-1.21,7.28-.81,3.71-1.52,6.43-2.14,8.14-2.57,7.14-7,10.71-13.28,10.71Z"/>
        <path d="M554.55,233.43c-1.48,0-2.78-.21-3.93-.64-3.9-1.38-7.78-4.45-11.64-9.21-3.86-4.76-6.62-9.9-8.28-15.42-.67-2.33-1.2-4.56-1.61-6.68-.4-2.11-.72-4.02-.96-5.71-.24-1.69-.38-2.53-.43-2.53l-1.07,5.07c-1.43,7.52-3.33,12.84-5.71,15.96-2.38,3.12-5.47,4.68-9.28,4.68s-7.52-1.58-10.85-4.75c-3.33-3.16-5.97-7.21-7.93-12.14-1.95-4.92-2.93-9.84-2.93-14.74,0-5.76,1.13-10.48,3.39-14.17,2.26-3.69,5.58-5.54,9.96-5.54,2.05,0,4.07.6,6.07,1.79,2,1.19,3,3.09,3,5.71,0,.81-.18,2.66-.54,5.53-.35,2.88-.63,5.44-.82,7.68-.19,2.24-.29,4.59-.29,7.07,0,3.47.24,6.4.71,8.78.48,2.38,1.01,4.17,1.61,5.36.59,1.19,1.01,1.79,1.25,1.79.14,0,.69-.52,1.64-1.57,1.43-1.57,2.6-3.81,3.54-6.71.92-2.9,2.28-8.24,4.07-15.99,1.79-7.76,3.25-13.85,4.39-18.28.71-2.76,1.44-4.82,2.18-6.17.74-1.36,1.59-2.26,2.57-2.71s2.3-.68,3.96-.68c2.14,0,4.17.64,6.07,1.93,1.9,1.29,3.33,3.02,4.28,5.21,1.33,2.81,2.08,7.77,2.25,14.89.17,7.12.3,14.44.39,21.96.1,7.52.71,12.97,1.86,16.35.62,1.95,1.44,3.71,2.46,5.28s1.85,2.36,2.47,2.36c.81,0,1.71-.86,2.71-2.57s1.76-3.69,2.28-5.93c.33-1.48.76-4.26,1.29-8.35.52-4.09.79-6.74.79-7.93,0-.95.13-1.62.39-2,.26-.38.75-.57,1.46-.57s1.18.18,1.39.53c.21.36.32,1.28.32,2.75,0,1.9-.12,4.85-.36,8.82-.24,3.98-.45,6.84-.64,8.61-1.14,8.62-4.97,12.92-11.5,12.92Z"/>
        <path d="M664.8,228.86c-1.76,0-3.14-.14-4.14-.43-3.86-1.09-7.68-3.34-11.46-6.75-3.79-3.4-6.65-7.2-8.61-11.39-1.86-4.14-3.26-9.33-4.21-15.57.52,4,.56,4.15.11.46-.46-3.69-.75-5.53-.89-5.53-.19,0-1.19,1.81-3,5.43-1.81,3.62-3.32,6.55-4.53,8.78-1.22,2.24-2.37,3.93-3.46,5.07-1.67,1.71-3.74,2.57-6.21,2.57-2.14,0-4.31-.65-6.5-1.96-2.19-1.31-4.12-3.13-5.78-5.46-2.14-3-3.8-6.44-4.96-10.32-1.17-3.88-2.06-8.84-2.68-14.89-.29-2.81-.48-4.21-.57-4.21-.29,0-1,1.17-2.14,3.5-1.14,2.33-2.66,6.21-4.53,11.64-1.88,5.43-4.01,12.5-6.39,21.21-1.38,4.95-2.51,8.54-3.39,10.78-.88,2.24-1.64,3.62-2.28,4.14-.64.52-1.49.79-2.53.79-1.76,0-3.68-1.07-5.75-3.21-2.07-2.14-3.83-5.14-5.28-9s-2.18-8.16-2.18-12.92c0-5.66,1.07-10.08,3.21-13.25,2.14-3.16,5.19-4.75,9.14-4.75,5.28,0,7.93,2.38,7.93,7.14,0,1.86-.69,7.12-2.07,15.78.19,0,1.24-2.86,3.14-8.57,2.67-8.14,5.44-15.4,8.32-21.78,2.88-6.38,4.53-10.12,4.96-11.21.48-1.38,1.48-2.51,3-3.39s3.26-1.35,5.21-1.39c5.62,0,9.35,2.88,11.21,8.64,1.05,2.62,1.81,8.9,2.28,18.85.57,11.33,1.31,16.99,2.21,16.99.24,0,.69-.38,1.36-1.14,1.38-1.52,2.99-4.05,4.82-7.57,1.83-3.52,3.51-7.03,5.04-10.53,1.52-3.5,2.28-5.39,2.28-5.68,0-1.38.84-2.64,2.53-3.78s3.56-1.71,5.61-1.71c1.81,0,3.55.42,5.21,1.25,1.67.84,3,1.99,4,3.46,1.38,2.05,2.33,4.51,2.86,7.39.52,2.88.94,6.68,1.25,11.39.31,4.71.65,8.5,1.03,11.35.38,2.86,1.14,5.5,2.28,7.93,1.05,2.19,2.3,3.87,3.75,5.03,1.45,1.17,3.06,1.75,4.82,1.75,2.57,0,5.16-1.21,7.78-3.64,1.95-1.76,3.89-4.4,5.82-7.93,1.93-3.52,3.57-6.63,4.93-9.32,1.35-2.69,2.34-4.03,2.96-4.03.24,0,.52.12.86.36s.5.48.5.71c0,.81-1.21,3.76-3.64,8.85-2.43,5.09-4.05,8.31-4.86,9.64-2.14,3.28-4.65,5.84-7.53,7.68-2.88,1.83-6.49,2.75-10.82,2.75Z"/>
        <path d="M698.64,228.86c-1.52,0-2.71-.12-3.57-.36-5.81-1.67-8.71-4.93-8.71-9.78,0-3.71,2.1-7.47,6.32-11.28,4.21-3.81,9.82-6.85,16.81-9.14,2.14-.67,3.43-1.12,3.86-1.36v-.07c0-.52-.66-1.13-1.96-1.82-1.31-.69-3.18-1.27-5.61-1.75-6.85-1.29-11.67-3.21-14.46-5.78-2.78-2.57-4.18-6.21-4.18-10.92,0-3.57.88-7.41,2.64-11.53,1.76-4.11,4.17-7.59,7.21-10.42,3.05-2.83,6.4-4.25,10.07-4.25,1.71,0,3.04.18,3.96.53.93.36,1.73.99,2.39,1.89.76,1.05,1.48,3.43,2.14,7.14s1,7.09,1,10.14c0,1.62-.09,2.81-.25,3.57-.17.76-.39,1.24-.68,1.43s-.69.29-1.21.29c-.38,0-.69-.84-.93-2.53s-.52-3.76-.86-6.22c-.33-2.45-.79-4.41-1.36-5.89-1.57,4-3.02,8.49-4.36,13.46-1.33,4.98-2,8.18-2,9.61,0,.71.86,1.17,2.57,1.36,1.71.19,3.96.45,6.75.79,2.78.33,5.27,1,7.46,2,1.14.57,2.37,1.4,3.68,2.5,1.31,1.09,2.25,2.09,2.82,3,.19.29.36.48.5.57s.38.14.71.14c.24,0,1.21-.11,2.93-.32,1.71-.22,2.9-.32,3.57-.32.71,0,1.33.21,1.86.64.43.33.64.62.64.86,0,.43-.58.76-1.75,1-1.17.24-3.3.52-6.39.86.52,1.76.79,3.55.79,5.36,0,3.09-.99,6.38-2.96,9.85-1.98,3.47-4.51,6.38-7.61,8.71-3,2.33-6.49,4.26-10.46,5.78-3.97,1.52-7.77,2.28-11.39,2.28ZM696.14,221.93c1.95,0,4.21-.67,6.78-2,5.57-2.71,9.04-7.05,10.42-13,.52-1.9.79-3.52.79-4.86,0-.81-.12-1.21-.36-1.21-.43,0-1.9.56-4.43,1.68s-4.45,2.06-5.78,2.82c-3.19,1.81-5.76,3.89-7.71,6.25-1.95,2.36-2.93,4.46-2.93,6.32,0,1.05.33,1.98,1,2.78s1.4,1.21,2.21,1.21Z"/>
        <path d="M755.12,223.07c-.43,0-1.17-.12-2.21-.36-1.09-.29-2.68-1.5-4.75-3.64-2.07-2.14-3.68-4.24-4.82-6.28-.81-1.43-1.42-2.39-1.82-2.89-.4-.5-1.06-.99-1.96-1.47-3.05-1.71-4.57-4.12-4.57-7.21,0-1.09.26-2.34.79-3.75.52-1.4.79-2.35.79-2.82,0-.33-.05-.69-.14-1.07-.76-3.24-1.48-7.97-2.14-14.21-.67-6.24-1-13.3-1-21.21s.63-20.39,2.7-26.58c2.07-6.19,4.63-10.91,7.67-14.18,3.05-3.26,4.37-3.62,8.18-3.62,2.43,0,6.11,1.56,7.13,3.42,1.43,2.63,2.83,6.83,1.26,12.88-3.62,14.57-3.4,12.63-4.59,21.01-1.19,8.38-1.79,16.78-1.79,25.21,4.86-4.14,9.97-8.07,15.35-11.78,2.19-1.48,3.87-2.45,5.03-2.93,1.17-.48,2.51-.71,4.04-.71,2.43,0,4.32.56,5.67,1.68,1.36,1.12,2.04,2.37,2.04,3.75,0,1.67-1.75,4.14-5.25,7.43-3.5,3.28-9.94,8.47-19.32,15.57-1.19.9-2.51,1.88-3.96,2.93-1.46,1.05-2.26,1.67-2.43,1.86-.17.19-.25.45-.25.79,0,2.52.45,6.19,1.36,11,6.71-.33,13.28-1.05,19.71-2.14,6.43-1.09,13.9-2.88,22.42-5.36,2.19-.62,3.69-.93,4.5-.93.86,0,1.29.33,1.29,1,0,.48-.2.88-.61,1.21-.41.33-1.42.78-3.04,1.32-1.62.55-4.38,1.37-8.28,2.47-8.57,2.48-15.09,4.15-19.56,5.04-4.47.88-9.64,1.63-15.49,2.25.38,2.9.62,4.95.71,6.14.1,1.29.24,2.26.43,2.93.19.67.29,1.02.29,1.07,0,.62-.37,1.14-1.11,1.57s-1.49.64-2.25.64Z"/>
        <path d="M850.8,228.86c-4.05,0-7.99-1.93-11.82-5.78-3.83-3.86-6.98-9.38-9.46-16.57l-1.5-4.78c-2.9,7.76-5.55,13.33-7.93,16.71-2.38,3.38-5.24,5.07-8.57,5.07-3.09,0-6.02-1.31-8.78-3.93-2.76-2.62-4.76-6.4-6-11.35-.38-1.38-.61-2.65-.68-3.82-.07-1.17-.11-3.49-.11-6.96,0-4.19.2-7.39.61-9.6.4-2.22,1.18-4.61,2.32-7.18,2.28-5,5.05-8.83,8.28-11.5,3.24-2.67,6.81-4,10.71-4,1.81,0,3.55.33,5.21,1,1.67.67,3.09,1.59,4.28,2.78.67.67,1.14,1,1.43,1,.05,0,.1-.02.14-.07.43-1.14,1.17-2.63,2.21-4.46,1.05-1.83,1.9-3.08,2.57-3.75,1.19-1.19,2.57-2.12,4.14-2.78,1.57-.67,3.12-1,4.64-1s3.01.38,4.32,1.14c1.31.76,1.97,2.17,1.97,4.21,0,1.38-.44,4.38-1.32,9-.88,4.62-1.6,8.89-2.14,12.82-.55,3.93-.82,8.27-.82,13.03,0,5,.29,9.09.86,12.28.57,3.19,1.57,6.16,3,8.93.52,1.09,1.3,2.17,2.32,3.21s1.77,1.57,2.25,1.57c1,0,2.09-.6,3.28-1.79,1.19-1.19,2.21-2.74,3.07-4.64.57-1.33,1.32-3.76,2.25-7.28.93-3.52,1.68-6.1,2.25-7.75.57-1.64,1.21-2.46,1.93-2.46l.36.07c.43.14.64.57.64,1.29,0,1.62-.55,4.63-1.64,9.03-1.09,4.4-2.26,7.79-3.5,10.17-2.81,5.43-6.4,8.14-10.78,8.14ZM814.17,215.44c.29,0,.99-.82,2.1-2.46,1.12-1.65,2.42-3.9,3.89-6.79,1.48-2.88,3.07-6.6,4.78-11.17.67-1.86,1.06-3.18,1.18-3.96.12-.78.18-2.46.18-5.03,0-2.81.17-5.43.5-7.85.19-1.14.29-1.88.29-2.21,0-.48-.21-.88-.64-1.21s-.83-.5-1.21-.5c-1.09,0-2.58,2.14-4.46,6.43-1.88,4.28-3.54,9.32-4.96,15.1-1.43,5.79-2.14,10.77-2.14,14.96,0,3.14.17,4.71.5,4.71Z"/>
        <path d="M888.64,272.06c-5.28,0-9.54-2.24-12.78-6.71-3.24-4.47-4.86-10.47-4.86-17.99,0-8.95,2.9-16.9,8.71-23.85,5.81-6.95,13.3-12.28,22.49-15.99l3.71-1.5v-10.07c0-6.09-.31-11.76-.93-16.99-.62-5.24-1.14-7.85-1.57-7.85-.52,0-1.5,1.21-2.93,3.64-1.43,2.43-3.31,6.5-5.64,12.21-2.43,6-4.59,10.65-6.5,13.96-1.9,3.31-3.86,5.68-5.86,7.11-2,1.43-4.28,2.14-6.85,2.14-3.86,0-7.5-1.74-10.92-5.21-1.86-1.86-3.32-4-4.39-6.43-1.07-2.43-1.83-5.07-2.28-7.93-.45-2.86-.68-5.97-.68-9.35,0-4.09.44-7.67,1.32-10.75.88-3.07,2.13-5.32,3.75-6.75,1.19-1,2.56-1.77,4.1-2.32s3.13-.82,4.75-.82c2.71,0,5.01.74,6.89,2.21,1.88,1.48,2.82,3.31,2.82,5.5,0,.9-.38,3.52-1.14,7.85-.76,4.33-1.38,8.13-1.86,11.39-.48,3.26-.71,6.34-.71,9.24,0,4.62.52,6.93,1.57,6.93,1.38,0,3.37-1.87,5.96-5.6,2.59-3.74,5.46-9.22,8.61-16.46,1.9-4.47,3.62-7.95,5.14-10.42,1.52-2.48,3.01-4.24,4.46-5.28,1.45-1.05,3.03-1.57,4.75-1.57,2.71,0,5.52,1.19,8.43,3.57,3.09,2.62,5.82,6.74,8.17,12.35,2.36,5.62,3.75,11.31,4.18,17.07.14,2.14.29,3.4.43,3.78.1.1.74.14,1.93.14s2.83-.05,5.07-.14c2.24-.1,3.88-.14,4.93-.14,1.29,0,2.15.07,2.6.21s.68.43.68.86c0,.71-2.09,1.25-6.28,1.61-4.19.35-6.85.61-8,.75-.33.05-.56.29-.68.71s-.22,1.55-.32,3.36c-.71,10.28-3.08,20.35-7.11,30.2-4.02,9.85-9.02,17.87-14.99,24.06-5.97,6.19-12.03,9.28-18.17,9.28ZM886.43,265.13c1.43,0,3.2-.94,5.32-2.82,2.11-1.88,4.13-4.91,6.03-9.1,2.38-5.19,4.19-11.01,5.43-17.46,1.24-6.45,2.12-14.48,2.64-24.1l.14-2.36c-2.62.62-6.08,2.24-10.39,4.86-4.31,2.62-8.03,5.62-11.18,9-2.76,2.95-4.89,6.39-6.39,10.32-1.5,3.93-2.25,7.92-2.25,11.96s.75,7.76,2.25,11.42c1.5,3.67,3.49,6.12,5.96,7.35,1.24.62,2.05.93,2.43.93Z"/>
        <path d="M994.1,228.86c-4.05,0-7.99-1.93-11.82-5.78-3.83-3.86-6.98-9.38-9.46-16.57l-1.5-4.78c-2.9,7.76-5.55,13.33-7.93,16.71-2.38,3.38-5.24,5.07-8.57,5.07-3.09,0-6.02-1.31-8.78-3.93-2.76-2.62-4.76-6.4-6-11.35-.38-1.38-.61-2.65-.68-3.82-.07-1.17-.11-3.49-.11-6.96,0-4.19.2-7.39.61-9.6.4-2.22,1.18-4.61,2.32-7.18,2.28-5,5.05-8.83,8.28-11.5,3.24-2.67,6.81-4,10.71-4,1.81,0,3.55.33,5.21,1,1.67.67,3.09,1.59,4.28,2.78.67.67,1.14,1,1.43,1,.05,0,.1-.02.14-.07.43-1.14,1.17-2.63,2.21-4.46s1.9-3.08,2.57-3.75c1.19-1.19,2.57-2.12,4.14-2.78,1.57-.67,3.12-1,4.64-1s3.01.38,4.32,1.14c1.31.76,1.97,2.17,1.97,4.21,0,1.38-.44,4.38-1.32,9-.88,4.62-1.6,8.89-2.14,12.82-.55,3.93-.82,8.27-.82,13.03,0,5,.29,9.09.86,12.28.57,3.19,1.57,6.16,3,8.93.52,1.09,1.3,2.17,2.32,3.21s1.77,1.57,2.25,1.57c1,0,2.09-.6,3.28-1.79,1.19-1.19,2.21-2.74,3.07-4.64.57-1.33,1.32-3.76,2.25-7.28.93-3.52,1.68-6.1,2.25-7.75.57-1.64,1.21-2.46,1.93-2.46l.36.07c.43.14.64.57.64,1.29,0,1.62-.55,4.63-1.64,9.03s-2.26,7.79-3.5,10.17c-2.81,5.43-6.4,8.14-10.78,8.14ZM957.47,215.44c.29,0,.99-.82,2.1-2.46,1.12-1.65,2.42-3.9,3.89-6.79,1.48-2.88,3.07-6.6,4.78-11.17.67-1.86,1.06-3.18,1.18-3.96.12-.78.18-2.46.18-5.03,0-2.81.17-5.43.5-7.85.19-1.14.29-1.88.29-2.21,0-.48-.21-.88-.64-1.21s-.83-.5-1.21-.5c-1.09,0-2.58,2.14-4.46,6.43-1.88,4.28-3.54,9.32-4.96,15.1-1.43,5.79-2.14,10.77-2.14,14.96,0,3.14.17,4.71.5,4.71Z"/>
      </g>
    </g>
  </g>
</svg>