<svg width="60" height="54" viewBox="0 0 60 54" fill="none" xmlns="http://www.w3.org/2000/svg">
<path d="M54.6284 7.55591C55.1386 7.55591 55.5571 7.95889 55.5571 8.46262C55.5571 8.96635 55.1386 9.36934 54.6284 9.36934C54.1181 9.36934 53.6997 8.96635 53.6997 8.46262C53.6997 7.95889 54.1181 7.55591 54.6284 7.55591Z" fill="black"/>
<path d="M29.1254 14.5073C29.6357 14.5073 30.0541 14.9103 30.0541 15.414C30.0541 15.9178 29.6357 16.3208 29.1254 16.3208C28.6152 16.3208 28.1968 15.9178 28.1968 15.414C28.1968 14.9103 28.6152 14.5073 29.1254 14.5073Z" fill="black"/>
<path d="M22.3086 0C22.8188 0 23.2372 0.402979 23.2372 0.90671C23.2372 1.41044 22.8188 1.81344 22.3086 1.81344C21.7983 1.81344 21.3799 1.41044 21.3799 0.90671C21.3799 0.402979 21.7983 0 22.3086 0Z" fill="black"/>
<path d="M40.9941 0C41.5044 0 41.9228 0.402979 41.9228 0.90671C41.9228 1.41044 41.5044 1.81344 40.9941 1.81344C40.4838 1.81344 40.0654 1.41044 40.0654 0.90671C40.0654 0.402979 40.4838 0 40.9941 0Z" fill="black"/>
<path d="M4.86764 8.16058C5.3779 8.16058 5.79631 8.56356 5.79631 9.06729C5.79631 9.57103 5.3779 9.974 4.86764 9.974C4.35738 9.974 3.93896 9.57103 3.93896 9.06729C3.93896 8.56356 4.35738 8.16058 4.86764 8.16058Z" fill="black"/>
<path d="M55.8632 42.2128C56.3735 42.2128 56.7919 42.6158 56.7919 43.1195C56.7919 43.6232 56.3735 44.0262 55.8632 44.0262C55.353 44.0262 54.9346 43.6232 54.9346 43.1195C54.9346 42.6158 55.353 42.2128 55.8632 42.2128Z" fill="black"/>
<path d="M26.8496 35.8656C27.3598 35.8656 27.7782 36.2686 27.7782 36.7723C27.7782 37.276 27.3598 37.679 26.8496 37.679C26.3393 37.679 25.9209 37.276 25.9209 36.7723C25.9209 36.2686 26.3393 35.8656 26.8496 35.8656Z" fill="black"/>
<path d="M3.01071 42.2129C3.52096 42.2129 3.93938 42.6159 3.93938 43.1196C3.93938 43.6233 3.52096 44.0263 3.01071 44.0263C2.50045 44.0263 2.08203 43.6233 2.08203 43.1196C2.08203 42.6159 2.50045 42.2129 3.01071 42.2129Z" fill="black"/>
<path d="M55.8631 18.235C54.7303 18.235 53.6996 18.638 52.9751 19.3432V17.5297C52.9751 14.7088 50.6993 12.4924 47.8112 12.4924C44.9231 12.4924 42.6474 14.7088 42.6474 17.5297V18.1342H40.0655C39.7593 18.1342 39.443 18.4365 39.443 18.7387V23.1715H20.6553V18.7387C20.6553 18.4365 20.3491 18.1342 20.0328 18.1342H17.4508V17.5297C17.4508 14.7088 15.1751 12.4924 12.287 12.4924C9.39894 12.4924 7.12319 14.7088 7.12319 17.5297V19.3432C6.39862 18.638 5.36791 18.235 4.23514 18.235C1.95939 18.235 0 20.0484 0 22.3656V32.9439C0 35.1603 1.85734 37.0745 4.23514 37.0745C5.36791 37.0745 6.39862 36.6715 7.12319 35.9663V38.485C7.12319 41.3059 9.39894 43.5223 12.287 43.5223C15.1751 43.5223 17.4508 41.3059 17.4508 38.485V37.8805H20.0328C20.3389 37.8805 20.6553 37.5783 20.6553 37.276V32.8432H39.3409V37.276C39.3409 37.5783 39.6471 37.8805 39.9635 37.8805H42.5454V38.485C42.5454 41.3059 44.8211 43.5223 47.7092 43.5223C50.5972 43.5223 52.873 41.3059 52.873 38.485V35.9663C53.5976 36.6715 54.6283 37.0745 55.761 37.0745C58.0368 37.0745 59.9962 35.2611 59.9962 32.9439V22.2648C60.0982 20.0484 58.1389 18.235 55.8631 18.235ZM4.24536 35.7648C2.59212 35.7648 1.35727 34.4551 1.35727 32.9439V22.2648C1.35727 20.6529 2.70437 19.4439 4.24536 19.4439C5.78634 19.4439 7.13341 20.7536 7.13341 22.2648V32.8432C7.13341 34.4551 5.89859 35.7648 4.24536 35.7648ZM16.216 38.3842C16.216 40.4999 14.4607 42.2126 12.2972 42.2126C10.1337 42.2126 8.4805 40.4999 8.4805 38.3842V17.6305C8.4805 15.5148 10.2358 13.8021 12.3993 13.8021C14.5628 13.8021 16.3181 15.5148 16.3181 17.6305C16.216 20.0484 16.216 36.1678 16.216 38.3842ZM19.4204 36.47H17.461V19.4439H19.4204V36.47ZM20.6553 31.4327V24.4812H39.3409V31.4327H20.6553ZM40.6778 36.47V19.4439H42.6372V36.47H40.6778ZM51.6177 38.3842C51.6177 40.4999 49.8625 42.2126 47.699 42.2126C45.5355 42.2126 43.8822 40.4999 43.8822 38.3842V17.6305C43.8822 15.5148 45.6375 13.8021 47.801 13.8021C49.9645 13.8021 51.7198 15.5148 51.7198 17.6305C51.6178 19.4439 51.6177 35.5633 51.6177 38.3842ZM58.741 32.9439C58.741 34.5559 57.4041 35.7648 55.8529 35.7648C54.3017 35.7648 52.9648 34.4551 52.9648 32.9439V22.2648C52.9648 20.6529 54.3017 19.4439 55.8529 19.4439C57.4041 19.4439 58.741 20.7536 58.741 22.2648V32.9439Z" fill="black"/>
<path d="M7.13379 47.1492C7.13379 47.4514 7.43993 47.7536 7.75629 47.7536H27.1665C27.4727 47.7536 27.789 47.4514 27.789 47.1492C27.789 46.8469 27.4829 46.5447 27.1665 46.5447H7.75629C7.45013 46.5447 7.13379 46.8469 7.13379 47.1492Z" fill="black"/>
<path d="M52.9753 49.6679H15.5019C15.1958 49.6679 14.8794 49.9701 14.8794 50.2724C14.8794 50.5746 15.1856 50.8769 15.5019 50.8769H52.9753C53.2815 50.8769 53.5978 50.5746 53.5978 50.2724C53.5978 49.9701 53.2917 49.6679 52.9753 49.6679Z" fill="black"/>
<path d="M22.0026 52.791H4.55173C4.24558 52.791 3.9292 53.0933 3.9292 53.3955C3.9292 53.6977 4.23537 54 4.55173 54H22.0026C22.3087 54 22.6251 53.6977 22.6251 53.3955C22.6251 53.0933 22.3189 52.791 22.0026 52.791Z" fill="black"/>
<path d="M47.8109 8.16034C49.5661 8.16034 51.0153 6.74989 51.0153 5.0372C51.0153 3.32452 49.5661 1.91406 47.8109 1.91406C46.0556 1.91406 44.6064 3.32452 44.6064 5.0372C44.6064 6.74989 46.0556 8.16034 47.8109 8.16034ZM47.8109 3.12303C48.8416 3.12303 49.7703 3.92899 49.7703 5.0372C49.7703 6.14541 48.9436 6.95138 47.8109 6.95138C46.6781 6.95138 45.8515 6.14541 45.8515 5.0372C45.8515 3.92899 46.7801 3.12303 47.8109 3.12303Z" fill="black"/>
<path d="M37.4836 43.4217C37.4836 42.0113 36.3509 40.9031 34.9017 40.9031C33.4526 40.9031 32.3198 42.0113 32.3198 43.4217C32.3198 44.8322 33.4526 45.9404 34.9017 45.9404C36.3509 45.9404 37.4836 44.7314 37.4836 43.4217ZM33.5649 43.4217C33.5649 42.7165 34.1874 42.112 34.9119 42.112C35.6365 42.112 36.2488 42.7165 36.2488 43.4217C36.2488 44.127 35.6263 44.7314 34.9119 44.7314C34.1976 44.7314 33.5649 44.127 33.5649 43.4217Z" fill="black"/>
<path d="M15.5018 10.6793C17.9816 10.6793 20.043 8.6644 20.043 6.24649C20.043 3.82858 17.9816 1.81366 15.5018 1.81366C13.0219 1.81366 10.9604 3.82858 10.9604 6.24649C10.9604 8.6644 13.0219 10.6793 15.5018 10.6793ZM15.5018 3.12336C17.2571 3.12336 18.7062 4.5338 18.7062 6.24649C18.7062 7.95917 17.2571 9.36963 15.5018 9.36963C13.7465 9.36963 12.2973 7.95917 12.2973 6.24649C12.2973 4.5338 13.7465 3.12336 15.5018 3.12336Z" fill="black"/>
</svg>
